<ttFont>
    <TTGlyph name="A" xMin="12" yMin="-2" xMax="601" yMax="702">
      <contour>
        <pt x="12" y="15" on="1"/>
        <pt x="12" y="20" on="0"/>
        <pt x="15" y="29" on="1"/>
        <pt x="252" y="686" on="1"/>
        <pt x="257" y="702" on="0"/>
        <pt x="292" y="702" on="1"/>
        <pt x="321" y="702" on="1"/>
        <pt x="356" y="702" on="0"/>
        <pt x="361" y="686" on="1"/>
        <pt x="598" y="28" on="1"/>
        <pt x="601" y="21" on="0"/>
        <pt x="601" y="15" on="1"/>
        <pt x="601" y="-2" on="0"/>
        <pt x="558" y="-2" on="1"/>
        <pt x="550" y="-2" on="1"/>
        <pt x="515" y="-2" on="0"/>
        <pt x="510" y="14" on="1"/>
        <pt x="451" y="178" on="1"/>
        <pt x="157" y="178" on="1"/>
        <pt x="100" y="14" on="1"/>
        <pt x="95" y="-2" on="0"/>
        <pt x="60" y="-2" on="1"/>
        <pt x="55" y="-2" on="1"/>
        <pt x="12" y="-2" on="0"/>
      </contour>
      <contour>
        <pt x="185" y="254" on="1"/>
        <pt x="424" y="254" on="1"/>
        <pt x="319" y="552" on="1"/>
        <pt x="306" y="610" on="1"/>
        <pt x="290" y="552" on="1"/>
      </contour>
    </TTGlyph>
    <TTGlyph name="AE" xMin="-11" yMin="-2" xMax="823" yMax="700">
      <contour>
        <pt x="-11" y="15" on="1"/>
        <pt x="-11" y="23" on="0"/>
        <pt x="-7" y="31" on="1"/>
        <pt x="314" y="673" on="1"/>
        <pt x="327" y="700" on="0"/>
        <pt x="357" y="700" on="1"/>
        <pt x="802" y="700" on="1"/>
        <pt x="822" y="700" on="0"/>
        <pt x="822" y="670" on="1"/>
        <pt x="822" y="654" on="1"/>
        <pt x="822" y="624" on="0"/>
        <pt x="802" y="624" on="1"/>
        <pt x="440" y="624" on="1"/>
        <pt x="490" y="396" on="1"/>
        <pt x="772" y="396" on="1"/>
        <pt x="792" y="396" on="0"/>
        <pt x="792" y="366" on="1"/>
        <pt x="792" y="350" on="1"/>
        <pt x="792" y="320" on="0"/>
        <pt x="772" y="320" on="1"/>
        <pt x="506" y="320" on="1"/>
        <pt x="559" y="76" on="1"/>
        <pt x="803" y="76" on="1"/>
        <pt x="823" y="76" on="0"/>
        <pt x="823" y="46" on="1"/>
        <pt x="823" y="30" on="1"/>
        <pt x="823" y="0" on="0"/>
        <pt x="803" y="0" on="1"/>
        <pt x="516" y="0" on="1"/>
        <pt x="486" y="0" on="0"/>
        <pt x="480" y="29" on="1"/>
        <pt x="448" y="178" on="1"/>
        <pt x="153" y="178" on="1"/>
        <pt x="73" y="14" on="1"/>
        <pt x="64" y="-2" on="0"/>
        <pt x="33" y="-2" on="1"/>
        <pt x="28" y="-2" on="1"/>
        <pt x="-11" y="-2" on="0"/>
      </contour>
      <contour>
        <pt x="192" y="253" on="1"/>
        <pt x="431" y="253" on="1"/>
        <pt x="367" y="552" on="1"/>
        <pt x="363" y="610" on="1"/>
        <pt x="340" y="552" on="1"/>
      </contour>
    </TTGlyph>
    <TTGlyph name="Aacute" xMin="12" yMin="-2" xMax="601" yMax="932">
      <contour>
        <pt x="12" y="15" on="1"/>
        <pt x="12" y="20" on="0"/>
        <pt x="15" y="29" on="1"/>
        <pt x="252" y="686" on="1"/>
        <pt x="257" y="702" on="0"/>
        <pt x="292" y="702" on="1"/>
        <pt x="321" y="702" on="1"/>
        <pt x="356" y="702" on="0"/>
        <pt x="361" y="686" on="1"/>
        <pt x="598" y="28" on="1"/>
        <pt x="601" y="21" on="0"/>
        <pt x="601" y="15" on="1"/>
        <pt x="601" y="-2" on="0"/>
        <pt x="558" y="-2" on="1"/>
        <pt x="550" y="-2" on="1"/>
        <pt x="515" y="-2" on="0"/>
        <pt x="510" y="14" on="1"/>
        <pt x="451" y="178" on="1"/>
        <pt x="157" y="178" on="1"/>
        <pt x="100" y="14" on="1"/>
        <pt x="95" y="-2" on="0"/>
        <pt x="60" y="-2" on="1"/>
        <pt x="55" y="-2" on="1"/>
        <pt x="12" y="-2" on="0"/>
      </contour>
      <contour>
        <pt x="185" y="254" on="1"/>
        <pt x="424" y="254" on="1"/>
        <pt x="319" y="552" on="1"/>
        <pt x="306" y="610" on="1"/>
        <pt x="290" y="552" on="1"/>
      </contour>
      <contour>
        <pt x="419" y="912" on="0"/>
        <pt x="400" y="888" on="0"/>
        <pt x="340" y="820" on="0"/>
        <pt x="308" y="785" on="0"/>
        <pt x="251" y="785" on="0"/>
        <pt x="251" y="805" on="0"/>
        <pt x="309" y="906" on="1"/>
        <pt x="324" y="932" on="0"/>
        <pt x="419" y="932" on="0"/>
        <pt x="419" y="919" on="1"/>
      </contour>
    </TTGlyph>
    <TTGlyph name="Acircumflex" xMin="12" yMin="-2" xMax="601" yMax="906">
      <contour>
        <pt x="12" y="15" on="1"/>
        <pt x="12" y="20" on="0"/>
        <pt x="15" y="29" on="1"/>
        <pt x="252" y="686" on="1"/>
        <pt x="257" y="702" on="0"/>
        <pt x="292" y="702" on="1"/>
        <pt x="321" y="702" on="1"/>
        <pt x="356" y="702" on="0"/>
        <pt x="361" y="686" on="1"/>
        <pt x="598" y="28" on="1"/>
        <pt x="601" y="21" on="0"/>
        <pt x="601" y="15" on="1"/>
        <pt x="601" y="-2" on="0"/>
        <pt x="558" y="-2" on="1"/>
        <pt x="550" y="-2" on="1"/>
        <pt x="515" y="-2" on="0"/>
        <pt x="510" y="14" on="1"/>
        <pt x="451" y="178" on="1"/>
        <pt x="157" y="178" on="1"/>
        <pt x="100" y="14" on="1"/>
        <pt x="95" y="-2" on="0"/>
        <pt x="60" y="-2" on="1"/>
        <pt x="55" y="-2" on="1"/>
        <pt x="12" y="-2" on="0"/>
      </contour>
      <contour>
        <pt x="185" y="254" on="1"/>
        <pt x="424" y="254" on="1"/>
        <pt x="319" y="552" on="1"/>
        <pt x="306" y="610" on="1"/>
        <pt x="290" y="552" on="1"/>
      </contour>
      <contour>
        <pt x="245" y="777" on="1"/>
        <pt x="231" y="764" on="0"/>
        <pt x="186" y="764" on="0"/>
        <pt x="186" y="778" on="1"/>
        <pt x="186" y="786" on="0"/>
        <pt x="192" y="796" on="1"/>
        <pt x="248" y="884" on="1"/>
        <pt x="263" y="906" on="0"/>
        <pt x="294" y="906" on="1"/>
        <pt x="319" y="906" on="1"/>
        <pt x="350" y="906" on="0"/>
        <pt x="365" y="884" on="1"/>
        <pt x="422" y="796" on="1"/>
        <pt x="428" y="787" on="0"/>
        <pt x="428" y="779" on="1"/>
        <pt x="428" y="764" on="0"/>
        <pt x="383" y="764" on="0"/>
        <pt x="369" y="777" on="1"/>
        <pt x="306" y="851" on="1"/>
      </contour>
    </TTGlyph>
    <TTGlyph name="Adieresis" xMin="12" yMin="-2" xMax="601" yMax="882">
      <contour>
        <pt x="12" y="15" on="1"/>
        <pt x="12" y="20" on="0"/>
        <pt x="15" y="29" on="1"/>
        <pt x="252" y="686" on="1"/>
        <pt x="257" y="702" on="0"/>
        <pt x="292" y="702" on="1"/>
        <pt x="321" y="702" on="1"/>
        <pt x="356" y="702" on="0"/>
        <pt x="361" y="686" on="1"/>
        <pt x="598" y="28" on="1"/>
        <pt x="601" y="21" on="0"/>
        <pt x="601" y="15" on="1"/>
        <pt x="601" y="-2" on="0"/>
        <pt x="558" y="-2" on="1"/>
        <pt x="550" y="-2" on="1"/>
        <pt x="515" y="-2" on="0"/>
        <pt x="510" y="14" on="1"/>
        <pt x="451" y="178" on="1"/>
        <pt x="157" y="178" on="1"/>
        <pt x="100" y="14" on="1"/>
        <pt x="95" y="-2" on="0"/>
        <pt x="60" y="-2" on="1"/>
        <pt x="55" y="-2" on="1"/>
        <pt x="12" y="-2" on="0"/>
      </contour>
      <contour>
        <pt x="185" y="254" on="1"/>
        <pt x="424" y="254" on="1"/>
        <pt x="319" y="552" on="1"/>
        <pt x="306" y="610" on="1"/>
        <pt x="290" y="552" on="1"/>
      </contour>
      <contour>
        <pt x="377" y="787" on="1"/>
        <pt x="337" y="787" on="0"/>
        <pt x="337" y="809" on="1"/>
        <pt x="337" y="860" on="1"/>
        <pt x="337" y="882" on="0"/>
        <pt x="377" y="882" on="1"/>
        <pt x="381" y="882" on="1"/>
        <pt x="421" y="882" on="0"/>
        <pt x="421" y="860" on="1"/>
        <pt x="421" y="809" on="1"/>
        <pt x="421" y="787" on="0"/>
        <pt x="381" y="787" on="1"/>
      </contour>
      <contour>
        <pt x="233" y="787" on="1"/>
        <pt x="193" y="787" on="0"/>
        <pt x="193" y="809" on="1"/>
        <pt x="193" y="860" on="1"/>
        <pt x="193" y="882" on="0"/>
        <pt x="233" y="882" on="1"/>
        <pt x="237" y="882" on="1"/>
        <pt x="277" y="882" on="0"/>
        <pt x="277" y="860" on="1"/>
        <pt x="277" y="809" on="1"/>
        <pt x="277" y="787" on="0"/>
        <pt x="237" y="787" on="1"/>
      </contour>
    </TTGlyph>
    <TTGlyph name="Agrave" xMin="12" yMin="-2" xMax="601" yMax="932">
      <contour>
        <pt x="12" y="15" on="1"/>
        <pt x="12" y="20" on="0"/>
        <pt x="15" y="29" on="1"/>
        <pt x="252" y="686" on="1"/>
        <pt x="257" y="702" on="0"/>
        <pt x="292" y="702" on="1"/>
        <pt x="321" y="702" on="1"/>
        <pt x="356" y="702" on="0"/>
        <pt x="361" y="686" on="1"/>
        <pt x="598" y="28" on="1"/>
        <pt x="601" y="21" on="0"/>
        <pt x="601" y="15" on="1"/>
        <pt x="601" y="-2" on="0"/>
        <pt x="558" y="-2" on="1"/>
        <pt x="550" y="-2" on="1"/>
        <pt x="515" y="-2" on="0"/>
        <pt x="510" y="14" on="1"/>
        <pt x="451" y="178" on="1"/>
        <pt x="157" y="178" on="1"/>
        <pt x="100" y="14" on="1"/>
        <pt x="95" y="-2" on="0"/>
        <pt x="60" y="-2" on="1"/>
        <pt x="55" y="-2" on="1"/>
        <pt x="12" y="-2" on="0"/>
      </contour>
      <contour>
        <pt x="185" y="254" on="1"/>
        <pt x="424" y="254" on="1"/>
        <pt x="319" y="552" on="1"/>
        <pt x="306" y="610" on="1"/>
        <pt x="290" y="552" on="1"/>
      </contour>
      <contour>
        <pt x="374" y="805" on="0"/>
        <pt x="374" y="785" on="0"/>
        <pt x="316" y="785" on="0"/>
        <pt x="300" y="803" on="1"/>
        <pt x="212" y="904" on="0"/>
        <pt x="206" y="915" on="0"/>
        <pt x="206" y="919" on="1"/>
        <pt x="206" y="932" on="0"/>
        <pt x="301" y="932" on="0"/>
        <pt x="316" y="906" on="1"/>
      </contour>
    </TTGlyph>
    <TTGlyph name="Aring" xMin="12" yMin="-2" xMax="601" yMax="913">
      <contour>
        <pt x="12" y="15" on="1"/>
        <pt x="12" y="20" on="0"/>
        <pt x="15" y="29" on="1"/>
        <pt x="252" y="686" on="1"/>
        <pt x="257" y="702" on="0"/>
        <pt x="292" y="702" on="1"/>
        <pt x="321" y="702" on="1"/>
        <pt x="356" y="702" on="0"/>
        <pt x="361" y="686" on="1"/>
        <pt x="598" y="28" on="1"/>
        <pt x="601" y="21" on="0"/>
        <pt x="601" y="15" on="1"/>
        <pt x="601" y="-2" on="0"/>
        <pt x="558" y="-2" on="1"/>
        <pt x="550" y="-2" on="1"/>
        <pt x="515" y="-2" on="0"/>
        <pt x="510" y="14" on="1"/>
        <pt x="451" y="178" on="1"/>
        <pt x="157" y="178" on="1"/>
        <pt x="100" y="14" on="1"/>
        <pt x="95" y="-2" on="0"/>
        <pt x="60" y="-2" on="1"/>
        <pt x="55" y="-2" on="1"/>
        <pt x="12" y="-2" on="0"/>
      </contour>
      <contour>
        <pt x="185" y="254" on="1"/>
        <pt x="424" y="254" on="1"/>
        <pt x="319" y="552" on="1"/>
        <pt x="306" y="610" on="1"/>
        <pt x="290" y="552" on="1"/>
      </contour>
      <contour>
        <pt x="342" y="744" on="0"/>
        <pt x="272" y="744" on="0"/>
        <pt x="223" y="793" on="0"/>
        <pt x="223" y="863" on="0"/>
        <pt x="272" y="913" on="0"/>
        <pt x="342" y="913" on="0"/>
        <pt x="392" y="863" on="0"/>
        <pt x="392" y="793" on="0"/>
      </contour>
      <contour>
        <pt x="286" y="779" on="0"/>
        <pt x="328" y="779" on="0"/>
        <pt x="357" y="807" on="0"/>
        <pt x="357" y="849" on="0"/>
        <pt x="328" y="878" on="0"/>
        <pt x="286" y="878" on="0"/>
        <pt x="258" y="849" on="0"/>
        <pt x="258" y="807" on="0"/>
      </contour>
    </TTGlyph>
    <TTGlyph name="Atilde" xMin="12" yMin="-2" xMax="601" yMax="888">
      <contour>
        <pt x="12" y="15" on="1"/>
        <pt x="12" y="20" on="0"/>
        <pt x="15" y="29" on="1"/>
        <pt x="252" y="686" on="1"/>
        <pt x="257" y="702" on="0"/>
        <pt x="292" y="702" on="1"/>
        <pt x="321" y="702" on="1"/>
        <pt x="356" y="702" on="0"/>
        <pt x="361" y="686" on="1"/>
        <pt x="598" y="28" on="1"/>
        <pt x="601" y="21" on="0"/>
        <pt x="601" y="15" on="1"/>
        <pt x="601" y="-2" on="0"/>
        <pt x="558" y="-2" on="1"/>
        <pt x="550" y="-2" on="1"/>
        <pt x="515" y="-2" on="0"/>
        <pt x="510" y="14" on="1"/>
        <pt x="451" y="178" on="1"/>
        <pt x="157" y="178" on="1"/>
        <pt x="100" y="14" on="1"/>
        <pt x="95" y="-2" on="0"/>
        <pt x="60" y="-2" on="1"/>
        <pt x="55" y="-2" on="1"/>
        <pt x="12" y="-2" on="0"/>
      </contour>
      <contour>
        <pt x="185" y="254" on="1"/>
        <pt x="424" y="254" on="1"/>
        <pt x="319" y="552" on="1"/>
        <pt x="306" y="610" on="1"/>
        <pt x="290" y="552" on="1"/>
      </contour>
      <contour>
        <pt x="330" y="795" on="0"/>
        <pt x="248" y="815" on="0"/>
        <pt x="222" y="815" on="0"/>
        <pt x="188" y="802" on="0"/>
        <pt x="166" y="802" on="0"/>
        <pt x="148" y="823" on="0"/>
        <pt x="148" y="832" on="1"/>
        <pt x="148" y="851" on="0"/>
        <pt x="216" y="888" on="0"/>
        <pt x="284" y="888" on="0"/>
        <pt x="365" y="868" on="0"/>
        <pt x="397" y="868" on="0"/>
        <pt x="428" y="881" on="0"/>
        <pt x="447" y="881" on="0"/>
        <pt x="466" y="859" on="0"/>
        <pt x="466" y="851" on="1"/>
        <pt x="466" y="832" on="0"/>
        <pt x="398" y="795" on="0"/>
      </contour>
    </TTGlyph>
    <TTGlyph name="B" xMin="97" yMin="0" xMax="560" yMax="700">
      <contour>
        <pt x="97" y="30" on="1"/>
        <pt x="97" y="670" on="1"/>
        <pt x="97" y="700" on="0"/>
        <pt x="127" y="700" on="1"/>
        <pt x="306" y="700" on="1"/>
        <pt x="415" y="700" on="0"/>
        <pt x="530" y="604" on="0"/>
        <pt x="530" y="523" on="1"/>
        <pt x="530" y="473" on="0"/>
        <pt x="464" y="383" on="0"/>
        <pt x="420" y="371" on="1"/>
        <pt x="420" y="367" on="1"/>
        <pt x="435" y="365" on="0"/>
        <pt x="493" y="333" on="0"/>
        <pt x="530" y="300" on="0"/>
        <pt x="560" y="238" on="0"/>
        <pt x="560" y="201" on="1"/>
        <pt x="560" y="0" on="0"/>
        <pt x="299" y="0" on="1"/>
        <pt x="127" y="0" on="1"/>
        <pt x="97" y="0" on="0"/>
      </contour>
      <contour>
        <pt x="185" y="398" on="1"/>
        <pt x="301" y="398" on="1"/>
        <pt x="361" y="398" on="0"/>
        <pt x="439" y="466" on="0"/>
        <pt x="439" y="571" on="0"/>
        <pt x="371" y="624" on="0"/>
        <pt x="297" y="624" on="1"/>
        <pt x="185" y="624" on="1"/>
      </contour>
      <contour>
        <pt x="185" y="76" on="1"/>
        <pt x="331" y="76" on="1"/>
        <pt x="397" y="76" on="0"/>
        <pt x="469" y="145" on="0"/>
        <pt x="469" y="261" on="0"/>
        <pt x="390" y="322" on="0"/>
        <pt x="314" y="322" on="1"/>
        <pt x="185" y="322" on="1"/>
      </contour>
    </TTGlyph>
    <TTGlyph name="C" xMin="57" yMin="-6" xMax="586" yMax="706">
      <contour>
        <pt x="57" y="350" on="1"/>
        <pt x="57" y="706" on="0"/>
        <pt x="381" y="706" on="1"/>
        <pt x="453" y="706" on="0"/>
        <pt x="572" y="665" on="0"/>
        <pt x="572" y="644" on="1"/>
        <pt x="572" y="630" on="0"/>
        <pt x="547" y="586" on="0"/>
        <pt x="538" y="586" on="1"/>
        <pt x="536" y="586" on="0"/>
        <pt x="497" y="608" on="0"/>
        <pt x="425" y="630" on="0"/>
        <pt x="383" y="630" on="1"/>
        <pt x="262" y="630" on="0"/>
        <pt x="148" y="496" on="0"/>
        <pt x="148" y="205" on="0"/>
        <pt x="261" y="70" on="0"/>
        <pt x="379" y="70" on="1"/>
        <pt x="424" y="70" on="0"/>
        <pt x="504" y="95" on="0"/>
        <pt x="548" y="120" on="0"/>
        <pt x="551" y="120" on="1"/>
        <pt x="560" y="120" on="0"/>
        <pt x="586" y="76" on="0"/>
        <pt x="586" y="66" on="1"/>
        <pt x="586" y="43" on="0"/>
        <pt x="461" y="-6" on="0"/>
        <pt x="379" y="-6" on="1"/>
        <pt x="214" y="-6" on="0"/>
        <pt x="57" y="167" on="0"/>
      </contour>
    </TTGlyph>
    <TTGlyph name="Ccedilla" xMin="57" yMin="-210" xMax="586" yMax="706">
      <contour>
        <pt x="57" y="350" on="1"/>
        <pt x="57" y="706" on="0"/>
        <pt x="381" y="706" on="1"/>
        <pt x="453" y="706" on="0"/>
        <pt x="572" y="665" on="0"/>
        <pt x="572" y="644" on="1"/>
        <pt x="572" y="630" on="0"/>
        <pt x="547" y="586" on="0"/>
        <pt x="538" y="586" on="1"/>
        <pt x="536" y="586" on="0"/>
        <pt x="497" y="608" on="0"/>
        <pt x="425" y="630" on="0"/>
        <pt x="383" y="630" on="1"/>
        <pt x="262" y="630" on="0"/>
        <pt x="148" y="496" on="0"/>
        <pt x="148" y="205" on="0"/>
        <pt x="261" y="70" on="0"/>
        <pt x="379" y="70" on="1"/>
        <pt x="424" y="70" on="0"/>
        <pt x="504" y="95" on="0"/>
        <pt x="548" y="120" on="0"/>
        <pt x="551" y="120" on="1"/>
        <pt x="560" y="120" on="0"/>
        <pt x="586" y="76" on="0"/>
        <pt x="586" y="66" on="1"/>
        <pt x="586" y="43" on="0"/>
        <pt x="461" y="-6" on="0"/>
        <pt x="379" y="-6" on="1"/>
        <pt x="369" y="-6" on="1"/>
        <pt x="357" y="-49" on="1"/>
        <pt x="361" y="-49" on="1"/>
        <pt x="377" y="-49" on="0"/>
        <pt x="410" y="-56" on="0"/>
        <pt x="446" y="-91" on="0"/>
        <pt x="446" y="-121" on="1"/>
        <pt x="446" y="-210" on="0"/>
        <pt x="331" y="-210" on="1"/>
        <pt x="292" y="-210" on="0"/>
        <pt x="216" y="-186" on="0"/>
        <pt x="216" y="-167" on="1"/>
        <pt x="216" y="-141" on="0"/>
        <pt x="235" y="-141" on="1"/>
        <pt x="240" y="-141" on="0"/>
        <pt x="296" y="-161" on="0"/>
        <pt x="318" y="-161" on="1"/>
        <pt x="375" y="-161" on="0"/>
        <pt x="375" y="-126" on="1"/>
        <pt x="375" y="-107" on="0"/>
        <pt x="342" y="-89" on="0"/>
        <pt x="309" y="-79" on="0"/>
        <pt x="309" y="-68" on="1"/>
        <pt x="309" y="-66" on="0"/>
        <pt x="311" y="-56" on="1"/>
        <pt x="327" y="-3" on="1"/>
        <pt x="189" y="9" on="0"/>
        <pt x="57" y="182" on="0"/>
      </contour>
    </TTGlyph>
    <TTGlyph name="D" xMin="97" yMin="0" xMax="638" yMax="700">
      <contour>
        <pt x="97" y="30" on="1"/>
        <pt x="97" y="670" on="1"/>
        <pt x="97" y="700" on="0"/>
        <pt x="127" y="700" on="1"/>
        <pt x="329" y="700" on="1"/>
        <pt x="469" y="700" on="0"/>
        <pt x="638" y="533" on="0"/>
        <pt x="638" y="166" on="0"/>
        <pt x="469" y="0" on="0"/>
        <pt x="329" y="0" on="1"/>
        <pt x="127" y="0" on="1"/>
        <pt x="97" y="0" on="0"/>
      </contour>
      <contour>
        <pt x="185" y="76" on="1"/>
        <pt x="322" y="76" on="1"/>
        <pt x="423" y="76" on="0"/>
        <pt x="547" y="208" on="0"/>
        <pt x="547" y="491" on="0"/>
        <pt x="423" y="624" on="0"/>
        <pt x="322" y="624" on="1"/>
        <pt x="185" y="624" on="1"/>
      </contour>
    </TTGlyph>
    <TTGlyph name="Delta" xMin="34" yMin="0" xMax="673" yMax="710">
      <contour>
        <pt x="34" y="30" on="1"/>
        <pt x="34" y="48" on="0"/>
        <pt x="42" y="67" on="1"/>
        <pt x="306" y="687" on="1"/>
        <pt x="316" y="710" on="0"/>
        <pt x="341" y="710" on="1"/>
        <pt x="367" y="710" on="1"/>
        <pt x="392" y="710" on="0"/>
        <pt x="402" y="687" on="1"/>
        <pt x="665" y="67" on="1"/>
        <pt x="673" y="46" on="0"/>
        <pt x="673" y="30" on="1"/>
        <pt x="673" y="0" on="0"/>
        <pt x="643" y="0" on="1"/>
        <pt x="64" y="0" on="1"/>
        <pt x="34" y="0" on="0"/>
      </contour>
      <contour>
        <pt x="116" y="68" on="1"/>
        <pt x="587" y="68" on="1"/>
        <pt x="355" y="619" on="1"/>
        <pt x="350" y="619" on="1"/>
      </contour>
    </TTGlyph>
    <TTGlyph name="E" xMin="97" yMin="0" xMax="497" yMax="700">
      <contour>
        <pt x="97" y="30" on="1"/>
        <pt x="97" y="670" on="1"/>
        <pt x="97" y="700" on="0"/>
        <pt x="127" y="700" on="1"/>
        <pt x="476" y="700" on="1"/>
        <pt x="496" y="700" on="0"/>
        <pt x="496" y="670" on="1"/>
        <pt x="496" y="654" on="1"/>
        <pt x="496" y="624" on="0"/>
        <pt x="476" y="624" on="1"/>
        <pt x="185" y="624" on="1"/>
        <pt x="185" y="396" on="1"/>
        <pt x="446" y="396" on="1"/>
        <pt x="466" y="396" on="0"/>
        <pt x="466" y="366" on="1"/>
        <pt x="466" y="350" on="1"/>
        <pt x="466" y="320" on="0"/>
        <pt x="446" y="320" on="1"/>
        <pt x="185" y="320" on="1"/>
        <pt x="185" y="76" on="1"/>
        <pt x="477" y="76" on="1"/>
        <pt x="497" y="76" on="0"/>
        <pt x="497" y="46" on="1"/>
        <pt x="497" y="30" on="1"/>
        <pt x="497" y="0" on="0"/>
        <pt x="477" y="0" on="1"/>
        <pt x="127" y="0" on="1"/>
        <pt x="97" y="0" on="0"/>
      </contour>
    </TTGlyph>
    <TTGlyph name="Eacute" xMin="97" yMin="0" xMax="497" yMax="932">
      <contour>
        <pt x="97" y="30" on="1"/>
        <pt x="97" y="670" on="1"/>
        <pt x="97" y="700" on="0"/>
        <pt x="127" y="700" on="1"/>
        <pt x="476" y="700" on="1"/>
        <pt x="496" y="700" on="0"/>
        <pt x="496" y="670" on="1"/>
        <pt x="496" y="654" on="1"/>
        <pt x="496" y="624" on="0"/>
        <pt x="476" y="624" on="1"/>
        <pt x="185" y="624" on="1"/>
        <pt x="185" y="396" on="1"/>
        <pt x="446" y="396" on="1"/>
        <pt x="466" y="396" on="0"/>
        <pt x="466" y="366" on="1"/>
        <pt x="466" y="350" on="1"/>
        <pt x="466" y="320" on="0"/>
        <pt x="446" y="320" on="1"/>
        <pt x="185" y="320" on="1"/>
        <pt x="185" y="76" on="1"/>
        <pt x="477" y="76" on="1"/>
        <pt x="497" y="76" on="0"/>
        <pt x="497" y="46" on="1"/>
        <pt x="497" y="30" on="1"/>
        <pt x="497" y="0" on="0"/>
        <pt x="477" y="0" on="1"/>
        <pt x="127" y="0" on="1"/>
        <pt x="97" y="0" on="0"/>
      </contour>
      <contour>
        <pt x="410" y="912" on="0"/>
        <pt x="391" y="888" on="0"/>
        <pt x="331" y="820" on="0"/>
        <pt x="300" y="785" on="0"/>
        <pt x="242" y="785" on="0"/>
        <pt x="242" y="805" on="0"/>
        <pt x="300" y="906" on="1"/>
        <pt x="315" y="932" on="0"/>
        <pt x="410" y="932" on="0"/>
        <pt x="410" y="919" on="1"/>
      </contour>
    </TTGlyph>
    <TTGlyph name="Ecircumflex" xMin="97" yMin="0" xMax="497" yMax="906">
      <contour>
        <pt x="97" y="30" on="1"/>
        <pt x="97" y="670" on="1"/>
        <pt x="97" y="700" on="0"/>
        <pt x="127" y="700" on="1"/>
        <pt x="476" y="700" on="1"/>
        <pt x="496" y="700" on="0"/>
        <pt x="496" y="670" on="1"/>
        <pt x="496" y="654" on="1"/>
        <pt x="496" y="624" on="0"/>
        <pt x="476" y="624" on="1"/>
        <pt x="185" y="624" on="1"/>
        <pt x="185" y="396" on="1"/>
        <pt x="446" y="396" on="1"/>
        <pt x="466" y="396" on="0"/>
        <pt x="466" y="366" on="1"/>
        <pt x="466" y="350" on="1"/>
        <pt x="466" y="320" on="0"/>
        <pt x="446" y="320" on="1"/>
        <pt x="185" y="320" on="1"/>
        <pt x="185" y="76" on="1"/>
        <pt x="477" y="76" on="1"/>
        <pt x="497" y="76" on="0"/>
        <pt x="497" y="46" on="1"/>
        <pt x="497" y="30" on="1"/>
        <pt x="497" y="0" on="0"/>
        <pt x="477" y="0" on="1"/>
        <pt x="127" y="0" on="1"/>
        <pt x="97" y="0" on="0"/>
      </contour>
      <contour>
        <pt x="236" y="777" on="1"/>
        <pt x="222" y="764" on="0"/>
        <pt x="177" y="764" on="0"/>
        <pt x="177" y="778" on="1"/>
        <pt x="177" y="786" on="0"/>
        <pt x="183" y="796" on="1"/>
        <pt x="239" y="884" on="1"/>
        <pt x="254" y="906" on="0"/>
        <pt x="285" y="906" on="1"/>
        <pt x="310" y="906" on="1"/>
        <pt x="341" y="906" on="0"/>
        <pt x="356" y="884" on="1"/>
        <pt x="413" y="796" on="1"/>
        <pt x="419" y="787" on="0"/>
        <pt x="419" y="779" on="1"/>
        <pt x="419" y="764" on="0"/>
        <pt x="374" y="764" on="0"/>
        <pt x="360" y="777" on="1"/>
        <pt x="297" y="851" on="1"/>
      </contour>
    </TTGlyph>
    <TTGlyph name="Edieresis" xMin="97" yMin="0" xMax="497" yMax="882">
      <contour>
        <pt x="97" y="30" on="1"/>
        <pt x="97" y="670" on="1"/>
        <pt x="97" y="700" on="0"/>
        <pt x="127" y="700" on="1"/>
        <pt x="476" y="700" on="1"/>
        <pt x="496" y="700" on="0"/>
        <pt x="496" y="670" on="1"/>
        <pt x="496" y="654" on="1"/>
        <pt x="496" y="624" on="0"/>
        <pt x="476" y="624" on="1"/>
        <pt x="185" y="624" on="1"/>
        <pt x="185" y="396" on="1"/>
        <pt x="446" y="396" on="1"/>
        <pt x="466" y="396" on="0"/>
        <pt x="466" y="366" on="1"/>
        <pt x="466" y="350" on="1"/>
        <pt x="466" y="320" on="0"/>
        <pt x="446" y="320" on="1"/>
        <pt x="185" y="320" on="1"/>
        <pt x="185" y="76" on="1"/>
        <pt x="477" y="76" on="1"/>
        <pt x="497" y="76" on="0"/>
        <pt x="497" y="46" on="1"/>
        <pt x="497" y="30" on="1"/>
        <pt x="497" y="0" on="0"/>
        <pt x="477" y="0" on="1"/>
        <pt x="127" y="0" on="1"/>
        <pt x="97" y="0" on="0"/>
      </contour>
      <contour>
        <pt x="368" y="787" on="1"/>
        <pt x="328" y="787" on="0"/>
        <pt x="328" y="809" on="1"/>
        <pt x="328" y="860" on="1"/>
        <pt x="328" y="882" on="0"/>
        <pt x="368" y="882" on="1"/>
        <pt x="372" y="882" on="1"/>
        <pt x="412" y="882" on="0"/>
        <pt x="412" y="860" on="1"/>
        <pt x="412" y="809" on="1"/>
        <pt x="412" y="787" on="0"/>
        <pt x="372" y="787" on="1"/>
      </contour>
      <contour>
        <pt x="224" y="787" on="1"/>
        <pt x="184" y="787" on="0"/>
        <pt x="184" y="809" on="1"/>
        <pt x="184" y="860" on="1"/>
        <pt x="184" y="882" on="0"/>
        <pt x="224" y="882" on="1"/>
        <pt x="228" y="882" on="1"/>
        <pt x="268" y="882" on="0"/>
        <pt x="268" y="860" on="1"/>
        <pt x="268" y="809" on="1"/>
        <pt x="268" y="787" on="0"/>
        <pt x="228" y="787" on="1"/>
      </contour>
    </TTGlyph>
    <TTGlyph name="Egrave" xMin="97" yMin="0" xMax="497" yMax="932">
      <contour>
        <pt x="97" y="30" on="1"/>
        <pt x="97" y="670" on="1"/>
        <pt x="97" y="700" on="0"/>
        <pt x="127" y="700" on="1"/>
        <pt x="476" y="700" on="1"/>
        <pt x="496" y="700" on="0"/>
        <pt x="496" y="670" on="1"/>
        <pt x="496" y="654" on="1"/>
        <pt x="496" y="624" on="0"/>
        <pt x="476" y="624" on="1"/>
        <pt x="185" y="624" on="1"/>
        <pt x="185" y="396" on="1"/>
        <pt x="446" y="396" on="1"/>
        <pt x="466" y="396" on="0"/>
        <pt x="466" y="366" on="1"/>
        <pt x="466" y="350" on="1"/>
        <pt x="466" y="320" on="0"/>
        <pt x="446" y="320" on="1"/>
        <pt x="185" y="320" on="1"/>
        <pt x="185" y="76" on="1"/>
        <pt x="477" y="76" on="1"/>
        <pt x="497" y="76" on="0"/>
        <pt x="497" y="46" on="1"/>
        <pt x="497" y="30" on="1"/>
        <pt x="497" y="0" on="0"/>
        <pt x="477" y="0" on="1"/>
        <pt x="127" y="0" on="1"/>
        <pt x="97" y="0" on="0"/>
      </contour>
      <contour>
        <pt x="365" y="805" on="0"/>
        <pt x="365" y="785" on="0"/>
        <pt x="308" y="785" on="0"/>
        <pt x="291" y="803" on="1"/>
        <pt x="203" y="904" on="0"/>
        <pt x="197" y="915" on="0"/>
        <pt x="197" y="919" on="1"/>
        <pt x="197" y="932" on="0"/>
        <pt x="292" y="932" on="0"/>
        <pt x="307" y="906" on="1"/>
      </contour>
    </TTGlyph>
    <TTGlyph name="Eth" xMin="0" yMin="0" xMax="641" yMax="700">
      <contour>
        <pt x="85" y="30" on="1"/>
        <pt x="85" y="320" on="1"/>
        <pt x="20" y="320" on="1"/>
        <pt x="0" y="320" on="0"/>
        <pt x="0" y="350" on="1"/>
        <pt x="0" y="366" on="1"/>
        <pt x="0" y="396" on="0"/>
        <pt x="20" y="396" on="1"/>
        <pt x="85" y="396" on="1"/>
        <pt x="85" y="670" on="1"/>
        <pt x="85" y="700" on="0"/>
        <pt x="115" y="700" on="1"/>
        <pt x="330" y="700" on="1"/>
        <pt x="464" y="700" on="0"/>
        <pt x="550" y="622" on="1"/>
        <pt x="641" y="539" on="0"/>
        <pt x="641" y="350" on="1"/>
        <pt x="641" y="83" on="0"/>
        <pt x="452" y="18" on="1"/>
        <pt x="397" y="0" on="0"/>
        <pt x="330" y="0" on="1"/>
        <pt x="115" y="0" on="1"/>
        <pt x="85" y="0" on="0"/>
      </contour>
      <contour>
        <pt x="173" y="76" on="1"/>
        <pt x="323" y="76" on="1"/>
        <pt x="425" y="76" on="0"/>
        <pt x="550" y="208" on="0"/>
        <pt x="550" y="491" on="0"/>
        <pt x="425" y="624" on="0"/>
        <pt x="323" y="624" on="1"/>
        <pt x="173" y="624" on="1"/>
        <pt x="173" y="396" on="1"/>
        <pt x="283" y="396" on="1"/>
        <pt x="303" y="396" on="0"/>
        <pt x="303" y="366" on="1"/>
        <pt x="303" y="350" on="1"/>
        <pt x="303" y="320" on="0"/>
        <pt x="283" y="320" on="1"/>
        <pt x="173" y="320" on="1"/>
      </contour>
    </TTGlyph>
    <TTGlyph name="Euro" xMin="0" yMin="-6" xMax="550" yMax="706">
      <contour>
        <pt x="20" y="236" on="1"/>
        <pt x="0" y="236" on="0"/>
        <pt x="0" y="266" on="1"/>
        <pt x="0" y="273" on="1"/>
        <pt x="0" y="303" on="0"/>
        <pt x="20" y="303" on="1"/>
        <pt x="69" y="303" on="1"/>
        <pt x="68" y="318" on="0"/>
        <pt x="68" y="381" on="0"/>
        <pt x="69" y="396" on="1"/>
        <pt x="20" y="396" on="1"/>
        <pt x="0" y="396" on="0"/>
        <pt x="0" y="426" on="1"/>
        <pt x="0" y="433" on="1"/>
        <pt x="0" y="463" on="0"/>
        <pt x="20" y="463" on="1"/>
        <pt x="77" y="463" on="1"/>
        <pt x="97" y="583" on="0"/>
        <pt x="248" y="706" on="0"/>
        <pt x="365" y="706" on="1"/>
        <pt x="429" y="706" on="0"/>
        <pt x="536" y="665" on="0"/>
        <pt x="536" y="644" on="1"/>
        <pt x="536" y="631" on="0"/>
        <pt x="511" y="590" on="0"/>
        <pt x="502" y="590" on="1"/>
        <pt x="500" y="590" on="0"/>
        <pt x="466" y="612" on="0"/>
        <pt x="401" y="634" on="0"/>
        <pt x="363" y="634" on="1"/>
        <pt x="281" y="634" on="0"/>
        <pt x="183" y="553" on="0"/>
        <pt x="166" y="463" on="1"/>
        <pt x="444" y="463" on="1"/>
        <pt x="464" y="463" on="0"/>
        <pt x="464" y="433" on="1"/>
        <pt x="464" y="426" on="1"/>
        <pt x="464" y="396" on="0"/>
        <pt x="444" y="396" on="1"/>
        <pt x="158" y="396" on="1"/>
        <pt x="157" y="381" on="0"/>
        <pt x="157" y="317" on="0"/>
        <pt x="158" y="303" on="1"/>
        <pt x="444" y="303" on="1"/>
        <pt x="464" y="303" on="0"/>
        <pt x="464" y="273" on="1"/>
        <pt x="464" y="266" on="1"/>
        <pt x="464" y="236" on="0"/>
        <pt x="444" y="236" on="1"/>
        <pt x="166" y="236" on="1"/>
        <pt x="183" y="149" on="0"/>
        <pt x="283" y="66" on="0"/>
        <pt x="355" y="66" on="1"/>
        <pt x="397" y="66" on="0"/>
        <pt x="471" y="91" on="0"/>
        <pt x="513" y="116" on="0"/>
        <pt x="515" y="116" on="1"/>
        <pt x="524" y="116" on="0"/>
        <pt x="550" y="75" on="0"/>
        <pt x="550" y="66" on="1"/>
        <pt x="550" y="43" on="0"/>
        <pt x="436" y="-6" on="0"/>
        <pt x="363" y="-6" on="1"/>
        <pt x="112" y="-6" on="0"/>
        <pt x="75" y="236" on="1"/>
      </contour>
    </TTGlyph>
    <TTGlyph name="F" xMin="97" yMin="-2" xMax="462" yMax="700">
      <contour>
        <pt x="97" y="20" on="1"/>
        <pt x="97" y="670" on="1"/>
        <pt x="97" y="700" on="0"/>
        <pt x="127" y="700" on="1"/>
        <pt x="442" y="700" on="1"/>
        <pt x="462" y="700" on="0"/>
        <pt x="462" y="670" on="1"/>
        <pt x="462" y="654" on="1"/>
        <pt x="462" y="624" on="0"/>
        <pt x="442" y="624" on="1"/>
        <pt x="185" y="624" on="1"/>
        <pt x="185" y="396" on="1"/>
        <pt x="424" y="396" on="1"/>
        <pt x="444" y="396" on="0"/>
        <pt x="444" y="366" on="1"/>
        <pt x="444" y="350" on="1"/>
        <pt x="444" y="320" on="0"/>
        <pt x="424" y="320" on="1"/>
        <pt x="185" y="320" on="1"/>
        <pt x="185" y="20" on="1"/>
        <pt x="185" y="-2" on="0"/>
        <pt x="145" y="-2" on="1"/>
        <pt x="137" y="-2" on="1"/>
        <pt x="97" y="-2" on="0"/>
      </contour>
    </TTGlyph>
    <TTGlyph name="G" xMin="57" yMin="-6" xMax="589" yMax="706">
      <contour>
        <pt x="57" y="344" on="1"/>
        <pt x="57" y="706" on="0"/>
        <pt x="381" y="706" on="1"/>
        <pt x="453" y="706" on="0"/>
        <pt x="572" y="665" on="0"/>
        <pt x="572" y="644" on="1"/>
        <pt x="572" y="630" on="0"/>
        <pt x="547" y="586" on="0"/>
        <pt x="538" y="586" on="1"/>
        <pt x="536" y="586" on="0"/>
        <pt x="497" y="608" on="0"/>
        <pt x="425" y="630" on="0"/>
        <pt x="383" y="630" on="1"/>
        <pt x="256" y="630" on="0"/>
        <pt x="148" y="490" on="0"/>
        <pt x="148" y="353" on="1"/>
        <pt x="148" y="70" on="0"/>
        <pt x="372" y="70" on="1"/>
        <pt x="451" y="70" on="0"/>
        <pt x="501" y="83" on="1"/>
        <pt x="501" y="285" on="1"/>
        <pt x="384" y="285" on="1"/>
        <pt x="364" y="285" on="0"/>
        <pt x="364" y="315" on="1"/>
        <pt x="364" y="331" on="1"/>
        <pt x="364" y="361" on="0"/>
        <pt x="384" y="361" on="1"/>
        <pt x="559" y="361" on="1"/>
        <pt x="589" y="361" on="0"/>
        <pt x="589" y="331" on="1"/>
        <pt x="589" y="66" on="1"/>
        <pt x="589" y="-6" on="0"/>
        <pt x="366" y="-6" on="1"/>
        <pt x="57" y="-6" on="0"/>
      </contour>
    </TTGlyph>
    <TTGlyph name="H" xMin="97" yMin="-2" xMax="635" yMax="702">
      <contour>
        <pt x="97" y="20" on="1"/>
        <pt x="97" y="680" on="1"/>
        <pt x="97" y="702" on="0"/>
        <pt x="137" y="702" on="1"/>
        <pt x="145" y="702" on="1"/>
        <pt x="185" y="702" on="0"/>
        <pt x="185" y="680" on="1"/>
        <pt x="185" y="397" on="1"/>
        <pt x="547" y="397" on="1"/>
        <pt x="547" y="680" on="1"/>
        <pt x="547" y="702" on="0"/>
        <pt x="587" y="702" on="1"/>
        <pt x="595" y="702" on="1"/>
        <pt x="635" y="702" on="0"/>
        <pt x="635" y="680" on="1"/>
        <pt x="635" y="20" on="1"/>
        <pt x="635" y="-2" on="0"/>
        <pt x="595" y="-2" on="1"/>
        <pt x="587" y="-2" on="1"/>
        <pt x="547" y="-2" on="0"/>
        <pt x="547" y="20" on="1"/>
        <pt x="547" y="321" on="1"/>
        <pt x="185" y="321" on="1"/>
        <pt x="185" y="20" on="1"/>
        <pt x="185" y="-2" on="0"/>
        <pt x="145" y="-2" on="1"/>
        <pt x="137" y="-2" on="1"/>
        <pt x="97" y="-2" on="0"/>
      </contour>
    </TTGlyph>
    <TTGlyph name="I" xMin="97" yMin="-2" xMax="185" yMax="702">
      <contour>
        <pt x="97" y="20" on="1"/>
        <pt x="97" y="680" on="1"/>
        <pt x="97" y="702" on="0"/>
        <pt x="137" y="702" on="1"/>
        <pt x="145" y="702" on="1"/>
        <pt x="185" y="702" on="0"/>
        <pt x="185" y="680" on="1"/>
        <pt x="185" y="20" on="1"/>
        <pt x="185" y="-2" on="0"/>
        <pt x="145" y="-2" on="1"/>
        <pt x="137" y="-2" on="1"/>
        <pt x="97" y="-2" on="0"/>
      </contour>
    </TTGlyph>
    <TTGlyph name="Iacute" xMin="85" yMin="-2" xMax="253" yMax="932">
      <contour>
        <pt x="97" y="20" on="1"/>
        <pt x="97" y="680" on="1"/>
        <pt x="97" y="702" on="0"/>
        <pt x="137" y="702" on="1"/>
        <pt x="145" y="702" on="1"/>
        <pt x="185" y="702" on="0"/>
        <pt x="185" y="680" on="1"/>
        <pt x="185" y="20" on="1"/>
        <pt x="185" y="-2" on="0"/>
        <pt x="145" y="-2" on="1"/>
        <pt x="137" y="-2" on="1"/>
        <pt x="97" y="-2" on="0"/>
      </contour>
      <contour>
        <pt x="253" y="912" on="0"/>
        <pt x="234" y="888" on="0"/>
        <pt x="174" y="820" on="0"/>
        <pt x="143" y="785" on="0"/>
        <pt x="85" y="785" on="0"/>
        <pt x="85" y="805" on="0"/>
        <pt x="143" y="906" on="1"/>
        <pt x="158" y="932" on="0"/>
        <pt x="253" y="932" on="0"/>
        <pt x="253" y="919" on="1"/>
      </contour>
    </TTGlyph>
    <TTGlyph name="Icircumflex" xMin="20" yMin="-2" xMax="262" yMax="906">
      <contour>
        <pt x="97" y="20" on="1"/>
        <pt x="97" y="680" on="1"/>
        <pt x="97" y="702" on="0"/>
        <pt x="137" y="702" on="1"/>
        <pt x="145" y="702" on="1"/>
        <pt x="185" y="702" on="0"/>
        <pt x="185" y="680" on="1"/>
        <pt x="185" y="20" on="1"/>
        <pt x="185" y="-2" on="0"/>
        <pt x="145" y="-2" on="1"/>
        <pt x="137" y="-2" on="1"/>
        <pt x="97" y="-2" on="0"/>
      </contour>
      <contour>
        <pt x="79" y="777" on="1"/>
        <pt x="65" y="764" on="0"/>
        <pt x="20" y="764" on="0"/>
        <pt x="20" y="778" on="1"/>
        <pt x="20" y="786" on="0"/>
        <pt x="26" y="796" on="1"/>
        <pt x="82" y="884" on="1"/>
        <pt x="97" y="906" on="0"/>
        <pt x="128" y="906" on="1"/>
        <pt x="153" y="906" on="1"/>
        <pt x="184" y="906" on="0"/>
        <pt x="199" y="884" on="1"/>
        <pt x="256" y="796" on="1"/>
        <pt x="262" y="787" on="0"/>
        <pt x="262" y="779" on="1"/>
        <pt x="262" y="764" on="0"/>
        <pt x="217" y="764" on="0"/>
        <pt x="203" y="777" on="1"/>
        <pt x="140" y="851" on="1"/>
      </contour>
    </TTGlyph>
    <TTGlyph name="Idieresis" xMin="27" yMin="-2" xMax="255" yMax="882">
      <contour>
        <pt x="97" y="20" on="1"/>
        <pt x="97" y="680" on="1"/>
        <pt x="97" y="702" on="0"/>
        <pt x="137" y="702" on="1"/>
        <pt x="145" y="702" on="1"/>
        <pt x="185" y="702" on="0"/>
        <pt x="185" y="680" on="1"/>
        <pt x="185" y="20" on="1"/>
        <pt x="185" y="-2" on="0"/>
        <pt x="145" y="-2" on="1"/>
        <pt x="137" y="-2" on="1"/>
        <pt x="97" y="-2" on="0"/>
      </contour>
      <contour>
        <pt x="211" y="787" on="1"/>
        <pt x="171" y="787" on="0"/>
        <pt x="171" y="809" on="1"/>
        <pt x="171" y="860" on="1"/>
        <pt x="171" y="882" on="0"/>
        <pt x="211" y="882" on="1"/>
        <pt x="215" y="882" on="1"/>
        <pt x="255" y="882" on="0"/>
        <pt x="255" y="860" on="1"/>
        <pt x="255" y="809" on="1"/>
        <pt x="255" y="787" on="0"/>
        <pt x="215" y="787" on="1"/>
      </contour>
      <contour>
        <pt x="67" y="787" on="1"/>
        <pt x="27" y="787" on="0"/>
        <pt x="27" y="809" on="1"/>
        <pt x="27" y="860" on="1"/>
        <pt x="27" y="882" on="0"/>
        <pt x="67" y="882" on="1"/>
        <pt x="71" y="882" on="1"/>
        <pt x="111" y="882" on="0"/>
        <pt x="111" y="860" on="1"/>
        <pt x="111" y="809" on="1"/>
        <pt x="111" y="787" on="0"/>
        <pt x="71" y="787" on="1"/>
      </contour>
    </TTGlyph>
    <TTGlyph name="Igrave" xMin="40" yMin="-2" xMax="208" yMax="932">
      <contour>
        <pt x="97" y="20" on="1"/>
        <pt x="97" y="680" on="1"/>
        <pt x="97" y="702" on="0"/>
        <pt x="137" y="702" on="1"/>
        <pt x="145" y="702" on="1"/>
        <pt x="185" y="702" on="0"/>
        <pt x="185" y="680" on="1"/>
        <pt x="185" y="20" on="1"/>
        <pt x="185" y="-2" on="0"/>
        <pt x="145" y="-2" on="1"/>
        <pt x="137" y="-2" on="1"/>
        <pt x="97" y="-2" on="0"/>
      </contour>
      <contour>
        <pt x="208" y="805" on="0"/>
        <pt x="208" y="785" on="0"/>
        <pt x="150" y="785" on="0"/>
        <pt x="134" y="803" on="1"/>
        <pt x="46" y="904" on="0"/>
        <pt x="40" y="915" on="0"/>
        <pt x="40" y="919" on="1"/>
        <pt x="40" y="932" on="0"/>
        <pt x="135" y="932" on="0"/>
        <pt x="150" y="906" on="1"/>
      </contour>
    </TTGlyph>
    <TTGlyph name="J" xMin="6" yMin="-6" xMax="319" yMax="702">
      <contour>
        <pt x="6" y="26" on="1"/>
        <pt x="6" y="36" on="0"/>
        <pt x="18" y="81" on="0"/>
        <pt x="28" y="81" on="1"/>
        <pt x="29" y="81" on="0"/>
        <pt x="72" y="72" on="0"/>
        <pt x="91" y="72" on="1"/>
        <pt x="165" y="72" on="0"/>
        <pt x="231" y="130" on="0"/>
        <pt x="231" y="195" on="1"/>
        <pt x="231" y="680" on="1"/>
        <pt x="231" y="702" on="0"/>
        <pt x="271" y="702" on="1"/>
        <pt x="279" y="702" on="1"/>
        <pt x="319" y="702" on="0"/>
        <pt x="319" y="680" on="1"/>
        <pt x="319" y="205" on="1"/>
        <pt x="319" y="-6" on="0"/>
        <pt x="107" y="-6" on="1"/>
        <pt x="6" y="-6" on="0"/>
      </contour>
    </TTGlyph>
    <TTGlyph name="K" xMin="97" yMin="-2" xMax="586" yMax="702">
      <contour>
        <pt x="97" y="20" on="1"/>
        <pt x="97" y="680" on="1"/>
        <pt x="97" y="702" on="0"/>
        <pt x="137" y="702" on="1"/>
        <pt x="145" y="702" on="1"/>
        <pt x="185" y="702" on="0"/>
        <pt x="185" y="680" on="1"/>
        <pt x="185" y="374" on="1"/>
        <pt x="189" y="374" on="1"/>
        <pt x="435" y="688" on="1"/>
        <pt x="446" y="702" on="0"/>
        <pt x="489" y="702" on="1"/>
        <pt x="499" y="702" on="1"/>
        <pt x="534" y="702" on="0"/>
        <pt x="534" y="689" on="1"/>
        <pt x="534" y="680" on="0"/>
        <pt x="524" y="669" on="1"/>
        <pt x="274" y="357" on="1"/>
        <pt x="577" y="28" on="1"/>
        <pt x="586" y="18" on="0"/>
        <pt x="586" y="12" on="1"/>
        <pt x="586" y="-2" on="0"/>
        <pt x="542" y="-2" on="1"/>
        <pt x="530" y="-2" on="1"/>
        <pt x="487" y="-2" on="0"/>
        <pt x="475" y="11" on="1"/>
        <pt x="189" y="333" on="1"/>
        <pt x="185" y="333" on="1"/>
        <pt x="185" y="20" on="1"/>
        <pt x="185" y="-2" on="0"/>
        <pt x="145" y="-2" on="1"/>
        <pt x="137" y="-2" on="1"/>
        <pt x="97" y="-2" on="0"/>
      </contour>
    </TTGlyph>
    <TTGlyph name="L" xMin="97" yMin="0" xMax="480" yMax="702">
      <contour>
        <pt x="97" y="30" on="1"/>
        <pt x="97" y="680" on="1"/>
        <pt x="97" y="702" on="0"/>
        <pt x="137" y="702" on="1"/>
        <pt x="145" y="702" on="1"/>
        <pt x="185" y="702" on="0"/>
        <pt x="185" y="680" on="1"/>
        <pt x="185" y="76" on="1"/>
        <pt x="460" y="76" on="1"/>
        <pt x="480" y="76" on="0"/>
        <pt x="480" y="46" on="1"/>
        <pt x="480" y="30" on="1"/>
        <pt x="480" y="0" on="0"/>
        <pt x="460" y="0" on="1"/>
        <pt x="127" y="0" on="1"/>
        <pt x="97" y="0" on="0"/>
      </contour>
    </TTGlyph>
    <TTGlyph name="Lslash" xMin="-2" yMin="0" xMax="484" yMax="702">
      <contour>
        <pt x="85" y="30" on="1"/>
        <pt x="85" y="348" on="1"/>
        <pt x="17" y="308" on="1"/>
        <pt x="12" y="304" on="0"/>
        <pt x="7" y="304" on="1"/>
        <pt x="-2" y="304" on="0"/>
        <pt x="-2" y="318" on="1"/>
        <pt x="-2" y="324" on="1"/>
        <pt x="-2" y="343" on="0"/>
        <pt x="17" y="354" on="1"/>
        <pt x="85" y="394" on="1"/>
        <pt x="85" y="680" on="1"/>
        <pt x="85" y="702" on="0"/>
        <pt x="125" y="702" on="1"/>
        <pt x="133" y="702" on="1"/>
        <pt x="173" y="702" on="0"/>
        <pt x="173" y="680" on="1"/>
        <pt x="173" y="447" on="1"/>
        <pt x="281" y="511" on="1"/>
        <pt x="289" y="515" on="0"/>
        <pt x="291" y="515" on="1"/>
        <pt x="300" y="515" on="0"/>
        <pt x="300" y="501" on="1"/>
        <pt x="300" y="495" on="1"/>
        <pt x="300" y="476" on="0"/>
        <pt x="281" y="465" on="1"/>
        <pt x="173" y="401" on="1"/>
        <pt x="173" y="76" on="1"/>
        <pt x="464" y="76" on="1"/>
        <pt x="484" y="76" on="0"/>
        <pt x="484" y="46" on="1"/>
        <pt x="484" y="30" on="1"/>
        <pt x="484" y="0" on="0"/>
        <pt x="464" y="0" on="1"/>
        <pt x="115" y="0" on="1"/>
        <pt x="85" y="0" on="0"/>
      </contour>
    </TTGlyph>
    <TTGlyph name="M" xMin="90" yMin="-2" xMax="753" yMax="702">
      <contour>
        <pt x="90" y="20" on="1"/>
        <pt x="90" y="680" on="1"/>
        <pt x="90" y="702" on="0"/>
        <pt x="130" y="702" on="1"/>
        <pt x="166" y="702" on="1"/>
        <pt x="198" y="702" on="0"/>
        <pt x="208" y="684" on="1"/>
        <pt x="397" y="356" on="1"/>
        <pt x="423" y="293" on="1"/>
        <pt x="449" y="350" on="1"/>
        <pt x="638" y="684" on="1"/>
        <pt x="648" y="702" on="0"/>
        <pt x="680" y="702" on="1"/>
        <pt x="713" y="702" on="1"/>
        <pt x="753" y="702" on="0"/>
        <pt x="753" y="680" on="1"/>
        <pt x="753" y="20" on="1"/>
        <pt x="753" y="-2" on="0"/>
        <pt x="713" y="-2" on="1"/>
        <pt x="706" y="-2" on="1"/>
        <pt x="666" y="-2" on="0"/>
        <pt x="666" y="20" on="1"/>
        <pt x="666" y="558" on="1"/>
        <pt x="465" y="208" on="1"/>
        <pt x="458" y="195" on="0"/>
        <pt x="443" y="195" on="1"/>
        <pt x="403" y="195" on="1"/>
        <pt x="388" y="195" on="0"/>
        <pt x="381" y="208" on="1"/>
        <pt x="177" y="564" on="1"/>
        <pt x="177" y="20" on="1"/>
        <pt x="177" y="-2" on="0"/>
        <pt x="137" y="-2" on="1"/>
        <pt x="130" y="-2" on="1"/>
        <pt x="90" y="-2" on="0"/>
      </contour>
    </TTGlyph>
    <TTGlyph name="N" xMin="90" yMin="-2" xMax="629" yMax="702">
      <contour>
        <pt x="90" y="20" on="1"/>
        <pt x="90" y="680" on="1"/>
        <pt x="90" y="702" on="0"/>
        <pt x="130" y="702" on="1"/>
        <pt x="151" y="702" on="1"/>
        <pt x="179" y="702" on="0"/>
        <pt x="193" y="683" on="1"/>
        <pt x="512" y="201" on="1"/>
        <pt x="542" y="145" on="1"/>
        <pt x="542" y="680" on="1"/>
        <pt x="542" y="702" on="0"/>
        <pt x="582" y="702" on="1"/>
        <pt x="589" y="702" on="1"/>
        <pt x="629" y="702" on="0"/>
        <pt x="629" y="680" on="1"/>
        <pt x="629" y="20" on="1"/>
        <pt x="629" y="-2" on="0"/>
        <pt x="589" y="-2" on="1"/>
        <pt x="569" y="-2" on="1"/>
        <pt x="543" y="-2" on="0"/>
        <pt x="534" y="12" on="1"/>
        <pt x="204" y="510" on="1"/>
        <pt x="177" y="561" on="1"/>
        <pt x="177" y="20" on="1"/>
        <pt x="177" y="-2" on="0"/>
        <pt x="137" y="-2" on="1"/>
        <pt x="130" y="-2" on="1"/>
        <pt x="90" y="-2" on="0"/>
      </contour>
    </TTGlyph>
    <TTGlyph name="Ntilde" xMin="90" yMin="-2" xMax="629" yMax="888">
      <contour>
        <pt x="90" y="20" on="1"/>
        <pt x="90" y="680" on="1"/>
        <pt x="90" y="702" on="0"/>
        <pt x="130" y="702" on="1"/>
        <pt x="151" y="702" on="1"/>
        <pt x="179" y="702" on="0"/>
        <pt x="193" y="683" on="1"/>
        <pt x="512" y="201" on="1"/>
        <pt x="542" y="145" on="1"/>
        <pt x="542" y="680" on="1"/>
        <pt x="542" y="702" on="0"/>
        <pt x="582" y="702" on="1"/>
        <pt x="589" y="702" on="1"/>
        <pt x="629" y="702" on="0"/>
        <pt x="629" y="680" on="1"/>
        <pt x="629" y="20" on="1"/>
        <pt x="629" y="-2" on="0"/>
        <pt x="589" y="-2" on="1"/>
        <pt x="569" y="-2" on="1"/>
        <pt x="543" y="-2" on="0"/>
        <pt x="534" y="12" on="1"/>
        <pt x="204" y="510" on="1"/>
        <pt x="177" y="561" on="1"/>
        <pt x="177" y="20" on="1"/>
        <pt x="177" y="-2" on="0"/>
        <pt x="137" y="-2" on="1"/>
        <pt x="130" y="-2" on="1"/>
        <pt x="90" y="-2" on="0"/>
      </contour>
      <contour>
        <pt x="382" y="795" on="0"/>
        <pt x="300" y="815" on="0"/>
        <pt x="274" y="815" on="0"/>
        <pt x="240" y="802" on="0"/>
        <pt x="218" y="802" on="0"/>
        <pt x="200" y="823" on="0"/>
        <pt x="200" y="832" on="1"/>
        <pt x="200" y="851" on="0"/>
        <pt x="268" y="888" on="0"/>
        <pt x="336" y="888" on="0"/>
        <pt x="417" y="868" on="0"/>
        <pt x="449" y="868" on="0"/>
        <pt x="480" y="881" on="0"/>
        <pt x="499" y="881" on="0"/>
        <pt x="518" y="859" on="0"/>
        <pt x="518" y="851" on="1"/>
        <pt x="518" y="832" on="0"/>
        <pt x="450" y="795" on="0"/>
      </contour>
    </TTGlyph>
    <TTGlyph name="O" xMin="57" yMin="-6" xMax="674" yMax="706">
      <contour>
        <pt x="57" y="177" on="0"/>
        <pt x="57" y="527" on="0"/>
        <pt x="214" y="706" on="0"/>
        <pt x="516" y="706" on="0"/>
        <pt x="674" y="527" on="0"/>
        <pt x="674" y="177" on="0"/>
        <pt x="516" y="-6" on="0"/>
        <pt x="215" y="-6" on="0"/>
      </contour>
      <contour>
        <pt x="259" y="70" on="0"/>
        <pt x="471" y="70" on="0"/>
        <pt x="583" y="214" on="0"/>
        <pt x="583" y="489" on="0"/>
        <pt x="471" y="630" on="0"/>
        <pt x="259" y="630" on="0"/>
        <pt x="148" y="489" on="0"/>
        <pt x="148" y="214" on="0"/>
      </contour>
    </TTGlyph>
    <TTGlyph name="OE" xMin="57" yMin="-6" xMax="988" yMax="706">
      <contour>
        <pt x="57" y="177" on="0"/>
        <pt x="57" y="527" on="0"/>
        <pt x="214" y="706" on="0"/>
        <pt x="508" y="706" on="0"/>
        <pt x="585" y="624" on="1"/>
        <pt x="585" y="670" on="1"/>
        <pt x="585" y="700" on="0"/>
        <pt x="615" y="700" on="1"/>
        <pt x="967" y="700" on="1"/>
        <pt x="987" y="700" on="0"/>
        <pt x="987" y="670" on="1"/>
        <pt x="987" y="654" on="1"/>
        <pt x="987" y="624" on="0"/>
        <pt x="967" y="624" on="1"/>
        <pt x="673" y="624" on="1"/>
        <pt x="673" y="396" on="1"/>
        <pt x="937" y="396" on="1"/>
        <pt x="957" y="396" on="0"/>
        <pt x="957" y="366" on="1"/>
        <pt x="957" y="350" on="1"/>
        <pt x="957" y="320" on="0"/>
        <pt x="937" y="320" on="1"/>
        <pt x="673" y="320" on="1"/>
        <pt x="673" y="76" on="1"/>
        <pt x="968" y="76" on="1"/>
        <pt x="988" y="76" on="0"/>
        <pt x="988" y="46" on="1"/>
        <pt x="988" y="30" on="1"/>
        <pt x="988" y="0" on="0"/>
        <pt x="968" y="0" on="1"/>
        <pt x="615" y="0" on="1"/>
        <pt x="585" y="0" on="0"/>
        <pt x="585" y="30" on="1"/>
        <pt x="585" y="78" on="1"/>
        <pt x="508" y="-6" on="0"/>
        <pt x="215" y="-6" on="0"/>
      </contour>
      <contour>
        <pt x="259" y="70" on="0"/>
        <pt x="471" y="70" on="0"/>
        <pt x="583" y="214" on="0"/>
        <pt x="583" y="489" on="0"/>
        <pt x="471" y="630" on="0"/>
        <pt x="259" y="630" on="0"/>
        <pt x="148" y="489" on="0"/>
        <pt x="148" y="214" on="0"/>
      </contour>
    </TTGlyph>
    <TTGlyph name="Oacute" xMin="57" yMin="-6" xMax="674" yMax="932">
      <contour>
        <pt x="57" y="177" on="0"/>
        <pt x="57" y="527" on="0"/>
        <pt x="214" y="706" on="0"/>
        <pt x="516" y="706" on="0"/>
        <pt x="674" y="527" on="0"/>
        <pt x="674" y="177" on="0"/>
        <pt x="516" y="-6" on="0"/>
        <pt x="215" y="-6" on="0"/>
      </contour>
      <contour>
        <pt x="259" y="70" on="0"/>
        <pt x="471" y="70" on="0"/>
        <pt x="583" y="214" on="0"/>
        <pt x="583" y="489" on="0"/>
        <pt x="471" y="630" on="0"/>
        <pt x="259" y="630" on="0"/>
        <pt x="148" y="489" on="0"/>
        <pt x="148" y="214" on="0"/>
      </contour>
      <contour>
        <pt x="477" y="912" on="0"/>
        <pt x="458" y="888" on="0"/>
        <pt x="398" y="820" on="0"/>
        <pt x="366" y="785" on="0"/>
        <pt x="309" y="785" on="0"/>
        <pt x="309" y="805" on="0"/>
        <pt x="367" y="906" on="1"/>
        <pt x="382" y="932" on="0"/>
        <pt x="477" y="932" on="0"/>
        <pt x="477" y="919" on="1"/>
      </contour>
    </TTGlyph>
    <TTGlyph name="Ocircumflex" xMin="57" yMin="-6" xMax="674" yMax="906">
      <contour>
        <pt x="57" y="177" on="0"/>
        <pt x="57" y="527" on="0"/>
        <pt x="214" y="706" on="0"/>
        <pt x="516" y="706" on="0"/>
        <pt x="674" y="527" on="0"/>
        <pt x="674" y="177" on="0"/>
        <pt x="516" y="-6" on="0"/>
        <pt x="215" y="-6" on="0"/>
      </contour>
      <contour>
        <pt x="259" y="70" on="0"/>
        <pt x="471" y="70" on="0"/>
        <pt x="583" y="214" on="0"/>
        <pt x="583" y="489" on="0"/>
        <pt x="471" y="630" on="0"/>
        <pt x="259" y="630" on="0"/>
        <pt x="148" y="489" on="0"/>
        <pt x="148" y="214" on="0"/>
      </contour>
      <contour>
        <pt x="303" y="777" on="1"/>
        <pt x="289" y="764" on="0"/>
        <pt x="244" y="764" on="0"/>
        <pt x="244" y="778" on="1"/>
        <pt x="244" y="786" on="0"/>
        <pt x="250" y="796" on="1"/>
        <pt x="306" y="884" on="1"/>
        <pt x="321" y="906" on="0"/>
        <pt x="352" y="906" on="1"/>
        <pt x="377" y="906" on="1"/>
        <pt x="408" y="906" on="0"/>
        <pt x="423" y="884" on="1"/>
        <pt x="480" y="796" on="1"/>
        <pt x="486" y="787" on="0"/>
        <pt x="486" y="779" on="1"/>
        <pt x="486" y="764" on="0"/>
        <pt x="441" y="764" on="0"/>
        <pt x="427" y="777" on="1"/>
        <pt x="364" y="851" on="1"/>
      </contour>
    </TTGlyph>
    <TTGlyph name="Odieresis" xMin="57" yMin="-6" xMax="674" yMax="882">
      <contour>
        <pt x="57" y="177" on="0"/>
        <pt x="57" y="527" on="0"/>
        <pt x="214" y="706" on="0"/>
        <pt x="516" y="706" on="0"/>
        <pt x="674" y="527" on="0"/>
        <pt x="674" y="177" on="0"/>
        <pt x="516" y="-6" on="0"/>
        <pt x="215" y="-6" on="0"/>
      </contour>
      <contour>
        <pt x="259" y="70" on="0"/>
        <pt x="471" y="70" on="0"/>
        <pt x="583" y="214" on="0"/>
        <pt x="583" y="489" on="0"/>
        <pt x="471" y="630" on="0"/>
        <pt x="259" y="630" on="0"/>
        <pt x="148" y="489" on="0"/>
        <pt x="148" y="214" on="0"/>
      </contour>
      <contour>
        <pt x="435" y="787" on="1"/>
        <pt x="395" y="787" on="0"/>
        <pt x="395" y="809" on="1"/>
        <pt x="395" y="860" on="1"/>
        <pt x="395" y="882" on="0"/>
        <pt x="435" y="882" on="1"/>
        <pt x="439" y="882" on="1"/>
        <pt x="479" y="882" on="0"/>
        <pt x="479" y="860" on="1"/>
        <pt x="479" y="809" on="1"/>
        <pt x="479" y="787" on="0"/>
        <pt x="439" y="787" on="1"/>
      </contour>
      <contour>
        <pt x="291" y="787" on="1"/>
        <pt x="251" y="787" on="0"/>
        <pt x="251" y="809" on="1"/>
        <pt x="251" y="860" on="1"/>
        <pt x="251" y="882" on="0"/>
        <pt x="291" y="882" on="1"/>
        <pt x="295" y="882" on="1"/>
        <pt x="335" y="882" on="0"/>
        <pt x="335" y="860" on="1"/>
        <pt x="335" y="809" on="1"/>
        <pt x="335" y="787" on="0"/>
        <pt x="295" y="787" on="1"/>
      </contour>
    </TTGlyph>
    <TTGlyph name="Ograve" xMin="57" yMin="-6" xMax="674" yMax="932">
      <contour>
        <pt x="57" y="177" on="0"/>
        <pt x="57" y="527" on="0"/>
        <pt x="214" y="706" on="0"/>
        <pt x="516" y="706" on="0"/>
        <pt x="674" y="527" on="0"/>
        <pt x="674" y="177" on="0"/>
        <pt x="516" y="-6" on="0"/>
        <pt x="215" y="-6" on="0"/>
      </contour>
      <contour>
        <pt x="259" y="70" on="0"/>
        <pt x="471" y="70" on="0"/>
        <pt x="583" y="214" on="0"/>
        <pt x="583" y="489" on="0"/>
        <pt x="471" y="630" on="0"/>
        <pt x="259" y="630" on="0"/>
        <pt x="148" y="489" on="0"/>
        <pt x="148" y="214" on="0"/>
      </contour>
      <contour>
        <pt x="432" y="805" on="0"/>
        <pt x="432" y="785" on="0"/>
        <pt x="374" y="785" on="0"/>
        <pt x="358" y="803" on="1"/>
        <pt x="270" y="904" on="0"/>
        <pt x="264" y="915" on="0"/>
        <pt x="264" y="919" on="1"/>
        <pt x="264" y="932" on="0"/>
        <pt x="359" y="932" on="0"/>
        <pt x="374" y="906" on="1"/>
      </contour>
    </TTGlyph>
    <TTGlyph name="Omega" xMin="41" yMin="0" xMax="689" yMax="706">
      <contour>
        <pt x="41" y="30" on="1"/>
        <pt x="41" y="38" on="1"/>
        <pt x="41" y="68" on="0"/>
        <pt x="61" y="68" on="1"/>
        <pt x="99" y="68" on="1"/>
        <pt x="158" y="64" on="1"/>
        <pt x="57" y="157" on="0"/>
        <pt x="57" y="527" on="0"/>
        <pt x="214" y="706" on="0"/>
        <pt x="516" y="706" on="0"/>
        <pt x="674" y="527" on="0"/>
        <pt x="674" y="157" on="0"/>
        <pt x="572" y="64" on="1"/>
        <pt x="631" y="68" on="1"/>
        <pt x="669" y="68" on="1"/>
        <pt x="689" y="68" on="0"/>
        <pt x="689" y="38" on="1"/>
        <pt x="689" y="30" on="1"/>
        <pt x="689" y="0" on="0"/>
        <pt x="669" y="0" on="1"/>
        <pt x="432" y="0" on="1"/>
        <pt x="412" y="0" on="0"/>
        <pt x="412" y="30" on="1"/>
        <pt x="412" y="34" on="1"/>
        <pt x="412" y="50" on="0"/>
        <pt x="419" y="52" on="1"/>
        <pt x="583" y="94" on="0"/>
        <pt x="583" y="352" on="1"/>
        <pt x="583" y="489" on="0"/>
        <pt x="471" y="630" on="0"/>
        <pt x="259" y="630" on="0"/>
        <pt x="148" y="489" on="0"/>
        <pt x="148" y="352" on="1"/>
        <pt x="148" y="93" on="0"/>
        <pt x="311" y="52" on="1"/>
        <pt x="318" y="50" on="0"/>
        <pt x="318" y="34" on="1"/>
        <pt x="318" y="30" on="1"/>
        <pt x="318" y="0" on="0"/>
        <pt x="298" y="0" on="1"/>
        <pt x="61" y="0" on="1"/>
        <pt x="41" y="0" on="0"/>
      </contour>
    </TTGlyph>
    <TTGlyph name="Oslash" xMin="34" yMin="-6" xMax="674" yMax="706">
      <contour>
        <pt x="49" y="1" on="0"/>
        <pt x="34" y="15" on="0"/>
        <pt x="34" y="28" on="0"/>
        <pt x="40" y="36" on="1"/>
        <pt x="113" y="116" on="1"/>
        <pt x="57" y="205" on="0"/>
        <pt x="57" y="352" on="1"/>
        <pt x="57" y="527" on="0"/>
        <pt x="214" y="706" on="0"/>
        <pt x="499" y="706" on="0"/>
        <pt x="578" y="633" on="1"/>
        <pt x="633" y="694" on="1"/>
        <pt x="640" y="702" on="0"/>
        <pt x="654" y="702" on="0"/>
        <pt x="669" y="688" on="0"/>
        <pt x="669" y="675" on="0"/>
        <pt x="663" y="668" on="1"/>
        <pt x="605" y="604" on="1"/>
        <pt x="674" y="514" on="0"/>
        <pt x="674" y="177" on="0"/>
        <pt x="516" y="-6" on="0"/>
        <pt x="215" y="-6" on="0"/>
        <pt x="137" y="84" on="1"/>
        <pt x="70" y="10" on="1"/>
        <pt x="62" y="1" on="0"/>
      </contour>
      <contour>
        <pt x="519" y="568" on="1"/>
        <pt x="465" y="630" on="0"/>
        <pt x="259" y="630" on="0"/>
        <pt x="148" y="489" on="0"/>
        <pt x="148" y="352" on="1"/>
        <pt x="148" y="254" on="0"/>
        <pt x="177" y="187" on="1"/>
      </contour>
      <contour>
        <pt x="197" y="151" on="1"/>
        <pt x="251" y="70" on="0"/>
        <pt x="471" y="70" on="0"/>
        <pt x="583" y="214" on="0"/>
        <pt x="583" y="467" on="0"/>
        <pt x="543" y="536" on="1"/>
      </contour>
    </TTGlyph>
    <TTGlyph name="Otilde" xMin="57" yMin="-6" xMax="674" yMax="888">
      <contour>
        <pt x="57" y="177" on="0"/>
        <pt x="57" y="527" on="0"/>
        <pt x="214" y="706" on="0"/>
        <pt x="516" y="706" on="0"/>
        <pt x="674" y="527" on="0"/>
        <pt x="674" y="177" on="0"/>
        <pt x="516" y="-6" on="0"/>
        <pt x="215" y="-6" on="0"/>
      </contour>
      <contour>
        <pt x="259" y="70" on="0"/>
        <pt x="471" y="70" on="0"/>
        <pt x="583" y="214" on="0"/>
        <pt x="583" y="489" on="0"/>
        <pt x="471" y="630" on="0"/>
        <pt x="259" y="630" on="0"/>
        <pt x="148" y="489" on="0"/>
        <pt x="148" y="214" on="0"/>
      </contour>
      <contour>
        <pt x="388" y="795" on="0"/>
        <pt x="306" y="815" on="0"/>
        <pt x="280" y="815" on="0"/>
        <pt x="246" y="802" on="0"/>
        <pt x="224" y="802" on="0"/>
        <pt x="206" y="823" on="0"/>
        <pt x="206" y="832" on="1"/>
        <pt x="206" y="851" on="0"/>
        <pt x="274" y="888" on="0"/>
        <pt x="342" y="888" on="0"/>
        <pt x="423" y="868" on="0"/>
        <pt x="455" y="868" on="0"/>
        <pt x="486" y="881" on="0"/>
        <pt x="505" y="881" on="0"/>
        <pt x="524" y="859" on="0"/>
        <pt x="524" y="851" on="1"/>
        <pt x="524" y="832" on="0"/>
        <pt x="456" y="795" on="0"/>
      </contour>
    </TTGlyph>
    <TTGlyph name="P" xMin="85" yMin="-2" xMax="541" yMax="700">
      <contour>
        <pt x="85" y="20" on="1"/>
        <pt x="85" y="670" on="1"/>
        <pt x="85" y="700" on="0"/>
        <pt x="115" y="700" on="1"/>
        <pt x="318" y="700" on="1"/>
        <pt x="395" y="700" on="0"/>
        <pt x="460" y="666" on="1"/>
        <pt x="497" y="647" on="0"/>
        <pt x="541" y="564" on="0"/>
        <pt x="541" y="452" on="0"/>
        <pt x="506" y="373" on="0"/>
        <pt x="457" y="331" on="0"/>
        <pt x="425" y="318" on="1"/>
        <pt x="376" y="298" on="0"/>
        <pt x="328" y="298" on="1"/>
        <pt x="173" y="298" on="1"/>
        <pt x="173" y="20" on="1"/>
        <pt x="173" y="-2" on="0"/>
        <pt x="133" y="-2" on="1"/>
        <pt x="125" y="-2" on="1"/>
        <pt x="85" y="-2" on="0"/>
      </contour>
      <contour>
        <pt x="173" y="374" on="1"/>
        <pt x="329" y="374" on="1"/>
        <pt x="367" y="374" on="0"/>
        <pt x="404" y="398" on="1"/>
        <pt x="424" y="411" on="0"/>
        <pt x="450" y="466" on="0"/>
        <pt x="450" y="504" on="1"/>
        <pt x="450" y="571" on="0"/>
        <pt x="370" y="624" on="0"/>
        <pt x="315" y="624" on="1"/>
        <pt x="173" y="624" on="1"/>
      </contour>
    </TTGlyph>
    <TTGlyph name="Q" xMin="57" yMin="-148" xMax="684" yMax="706">
      <contour>
        <pt x="57" y="347" on="1"/>
        <pt x="57" y="523" on="0"/>
        <pt x="215" y="706" on="0"/>
        <pt x="516" y="706" on="0"/>
        <pt x="674" y="522" on="0"/>
        <pt x="674" y="347" on="1"/>
        <pt x="674" y="205" on="0"/>
        <pt x="571" y="31" on="0"/>
        <pt x="473" y="5" on="1"/>
        <pt x="473" y="1" on="1"/>
        <pt x="670" y="-61" on="1"/>
        <pt x="684" y="-66" on="0"/>
        <pt x="684" y="-90" on="0"/>
        <pt x="657" y="-148" on="0"/>
        <pt x="642" y="-148" on="1"/>
        <pt x="634" y="-148" on="0"/>
        <pt x="294" y="-14" on="0"/>
        <pt x="246" y="6" on="1"/>
        <pt x="57" y="81" on="0"/>
      </contour>
      <contour>
        <pt x="148" y="211" on="0"/>
        <pt x="261" y="67" on="0"/>
        <pt x="470" y="67" on="0"/>
        <pt x="583" y="212" on="0"/>
        <pt x="583" y="483" on="0"/>
        <pt x="469" y="630" on="0"/>
        <pt x="261" y="630" on="0"/>
        <pt x="148" y="484" on="0"/>
      </contour>
    </TTGlyph>
    <TTGlyph name="R" xMin="97" yMin="-2" xMax="592" yMax="700">
      <contour>
        <pt x="97" y="20" on="1"/>
        <pt x="97" y="670" on="1"/>
        <pt x="97" y="700" on="0"/>
        <pt x="127" y="700" on="1"/>
        <pt x="295" y="700" on="1"/>
        <pt x="415" y="700" on="0"/>
        <pt x="536" y="615" on="0"/>
        <pt x="536" y="523" on="1"/>
        <pt x="536" y="400" on="0"/>
        <pt x="421" y="354" on="1"/>
        <pt x="421" y="350" on="1"/>
        <pt x="450" y="340" on="0"/>
        <pt x="489" y="282" on="0"/>
        <pt x="511" y="225" on="1"/>
        <pt x="589" y="28" on="1"/>
        <pt x="592" y="19" on="0"/>
        <pt x="592" y="14" on="1"/>
        <pt x="592" y="-2" on="0"/>
        <pt x="550" y="-2" on="1"/>
        <pt x="540" y="-2" on="1"/>
        <pt x="506" y="-2" on="0"/>
        <pt x="500" y="14" on="1"/>
        <pt x="424" y="210" on="1"/>
        <pt x="402" y="267" on="0"/>
        <pt x="336" y="308" on="0"/>
        <pt x="275" y="308" on="1"/>
        <pt x="185" y="308" on="1"/>
        <pt x="185" y="20" on="1"/>
        <pt x="185" y="-2" on="0"/>
        <pt x="145" y="-2" on="1"/>
        <pt x="137" y="-2" on="1"/>
        <pt x="97" y="-2" on="0"/>
      </contour>
      <contour>
        <pt x="185" y="384" on="1"/>
        <pt x="317" y="384" on="1"/>
        <pt x="370" y="384" on="0"/>
        <pt x="445" y="457" on="0"/>
        <pt x="445" y="566" on="0"/>
        <pt x="373" y="624" on="0"/>
        <pt x="310" y="624" on="1"/>
        <pt x="185" y="624" on="1"/>
      </contour>
    </TTGlyph>
    <TTGlyph name="S" xMin="37" yMin="-6" xMax="466" yMax="706">
      <contour>
        <pt x="37" y="67" on="1"/>
        <pt x="37" y="79" on="0"/>
        <pt x="64" y="121" on="0"/>
        <pt x="72" y="121" on="1"/>
        <pt x="75" y="121" on="0"/>
        <pt x="119" y="96" on="0"/>
        <pt x="199" y="70" on="0"/>
        <pt x="302" y="70" on="0"/>
        <pt x="375" y="136" on="0"/>
        <pt x="375" y="238" on="0"/>
        <pt x="308" y="298" on="0"/>
        <pt x="213" y="333" on="0"/>
        <pt x="117" y="373" on="0"/>
        <pt x="50" y="457" on="0"/>
        <pt x="50" y="522" on="1"/>
        <pt x="50" y="605" on="0"/>
        <pt x="172" y="706" on="0"/>
        <pt x="272" y="706" on="1"/>
        <pt x="321" y="706" on="0"/>
        <pt x="433" y="670" on="0"/>
        <pt x="433" y="645" on="1"/>
        <pt x="433" y="634" on="0"/>
        <pt x="408" y="592" on="0"/>
        <pt x="401" y="592" on="1"/>
        <pt x="397" y="592" on="0"/>
        <pt x="380" y="602" on="1"/>
        <pt x="329" y="630" on="0"/>
        <pt x="211" y="630" on="0"/>
        <pt x="141" y="573" on="0"/>
        <pt x="141" y="463" on="0"/>
        <pt x="206" y="432" on="1"/>
        <pt x="234" y="419" on="0"/>
        <pt x="304" y="394" on="0"/>
        <pt x="373" y="361" on="0"/>
        <pt x="430" y="317" on="0"/>
        <pt x="466" y="241" on="0"/>
        <pt x="466" y="191" on="1"/>
        <pt x="466" y="99" on="0"/>
        <pt x="346" y="-6" on="0"/>
        <pt x="162" y="-6" on="0"/>
        <pt x="37" y="44" on="0"/>
      </contour>
    </TTGlyph>
    <TTGlyph name="Scaron" xMin="37" yMin="-6" xMax="466" yMax="904">
      <contour>
        <pt x="37" y="67" on="1"/>
        <pt x="37" y="79" on="0"/>
        <pt x="64" y="121" on="0"/>
        <pt x="72" y="121" on="1"/>
        <pt x="75" y="121" on="0"/>
        <pt x="119" y="96" on="0"/>
        <pt x="199" y="70" on="0"/>
        <pt x="302" y="70" on="0"/>
        <pt x="375" y="136" on="0"/>
        <pt x="375" y="238" on="0"/>
        <pt x="308" y="298" on="0"/>
        <pt x="213" y="333" on="0"/>
        <pt x="117" y="373" on="0"/>
        <pt x="50" y="457" on="0"/>
        <pt x="50" y="522" on="1"/>
        <pt x="50" y="605" on="0"/>
        <pt x="172" y="706" on="0"/>
        <pt x="272" y="706" on="1"/>
        <pt x="321" y="706" on="0"/>
        <pt x="433" y="670" on="0"/>
        <pt x="433" y="645" on="1"/>
        <pt x="433" y="634" on="0"/>
        <pt x="408" y="592" on="0"/>
        <pt x="401" y="592" on="1"/>
        <pt x="397" y="592" on="0"/>
        <pt x="380" y="602" on="1"/>
        <pt x="329" y="630" on="0"/>
        <pt x="211" y="630" on="0"/>
        <pt x="141" y="573" on="0"/>
        <pt x="141" y="463" on="0"/>
        <pt x="206" y="432" on="1"/>
        <pt x="234" y="419" on="0"/>
        <pt x="304" y="394" on="0"/>
        <pt x="373" y="361" on="0"/>
        <pt x="430" y="317" on="0"/>
        <pt x="466" y="241" on="0"/>
        <pt x="466" y="191" on="1"/>
        <pt x="466" y="99" on="0"/>
        <pt x="346" y="-6" on="0"/>
        <pt x="162" y="-6" on="0"/>
        <pt x="37" y="44" on="0"/>
      </contour>
      <contour>
        <pt x="245" y="762" on="1"/>
        <pt x="214" y="762" on="0"/>
        <pt x="199" y="784" on="1"/>
        <pt x="143" y="872" on="1"/>
        <pt x="137" y="882" on="0"/>
        <pt x="137" y="890" on="1"/>
        <pt x="137" y="904" on="0"/>
        <pt x="182" y="904" on="0"/>
        <pt x="196" y="891" on="1"/>
        <pt x="257" y="817" on="1"/>
        <pt x="320" y="891" on="1"/>
        <pt x="334" y="904" on="0"/>
        <pt x="379" y="904" on="0"/>
        <pt x="379" y="889" on="1"/>
        <pt x="379" y="881" on="0"/>
        <pt x="373" y="872" on="1"/>
        <pt x="316" y="784" on="1"/>
        <pt x="301" y="762" on="0"/>
        <pt x="270" y="762" on="1"/>
      </contour>
    </TTGlyph>
    <TTGlyph name="T" xMin="20" yMin="-2" xMax="529" yMax="700">
      <contour>
        <pt x="232" y="20" on="1"/>
        <pt x="232" y="624" on="1"/>
        <pt x="40" y="624" on="1"/>
        <pt x="20" y="624" on="0"/>
        <pt x="20" y="654" on="1"/>
        <pt x="20" y="670" on="1"/>
        <pt x="20" y="700" on="0"/>
        <pt x="40" y="700" on="1"/>
        <pt x="509" y="700" on="1"/>
        <pt x="529" y="700" on="0"/>
        <pt x="529" y="670" on="1"/>
        <pt x="529" y="654" on="1"/>
        <pt x="529" y="624" on="0"/>
        <pt x="509" y="624" on="1"/>
        <pt x="320" y="624" on="1"/>
        <pt x="320" y="20" on="1"/>
        <pt x="320" y="-2" on="0"/>
        <pt x="280" y="-2" on="1"/>
        <pt x="272" y="-2" on="1"/>
        <pt x="232" y="-2" on="0"/>
      </contour>
    </TTGlyph>
    <TTGlyph name="Thorn" xMin="85" yMin="-2" xMax="541" yMax="702">
      <contour>
        <pt x="85" y="20" on="1"/>
        <pt x="85" y="680" on="1"/>
        <pt x="85" y="702" on="0"/>
        <pt x="125" y="702" on="1"/>
        <pt x="133" y="702" on="1"/>
        <pt x="173" y="702" on="0"/>
        <pt x="173" y="680" on="1"/>
        <pt x="173" y="578" on="1"/>
        <pt x="318" y="578" on="1"/>
        <pt x="395" y="578" on="0"/>
        <pt x="460" y="544" on="1"/>
        <pt x="497" y="525" on="0"/>
        <pt x="541" y="442" on="0"/>
        <pt x="541" y="330" on="0"/>
        <pt x="506" y="251" on="0"/>
        <pt x="457" y="209" on="0"/>
        <pt x="425" y="196" on="1"/>
        <pt x="376" y="176" on="0"/>
        <pt x="328" y="176" on="1"/>
        <pt x="173" y="176" on="1"/>
        <pt x="173" y="20" on="1"/>
        <pt x="173" y="-2" on="0"/>
        <pt x="133" y="-2" on="1"/>
        <pt x="125" y="-2" on="1"/>
        <pt x="85" y="-2" on="0"/>
      </contour>
      <contour>
        <pt x="173" y="252" on="1"/>
        <pt x="329" y="252" on="1"/>
        <pt x="367" y="252" on="0"/>
        <pt x="404" y="276" on="1"/>
        <pt x="424" y="289" on="0"/>
        <pt x="450" y="344" on="0"/>
        <pt x="450" y="382" on="1"/>
        <pt x="450" y="449" on="0"/>
        <pt x="370" y="502" on="0"/>
        <pt x="315" y="502" on="1"/>
        <pt x="173" y="502" on="1"/>
      </contour>
    </TTGlyph>
    <TTGlyph name="U" xMin="83" yMin="-6" xMax="629" yMax="702">
      <contour>
        <pt x="83" y="224" on="1"/>
        <pt x="83" y="680" on="1"/>
        <pt x="83" y="702" on="0"/>
        <pt x="123" y="702" on="1"/>
        <pt x="131" y="702" on="1"/>
        <pt x="171" y="702" on="0"/>
        <pt x="171" y="680" on="1"/>
        <pt x="171" y="221" on="1"/>
        <pt x="171" y="155" on="0"/>
        <pt x="276" y="70" on="0"/>
        <pt x="436" y="70" on="0"/>
        <pt x="541" y="155" on="0"/>
        <pt x="541" y="221" on="1"/>
        <pt x="541" y="680" on="1"/>
        <pt x="541" y="702" on="0"/>
        <pt x="581" y="702" on="1"/>
        <pt x="589" y="702" on="1"/>
        <pt x="629" y="702" on="0"/>
        <pt x="629" y="680" on="1"/>
        <pt x="629" y="224" on="1"/>
        <pt x="629" y="115" on="0"/>
        <pt x="487" y="-6" on="0"/>
        <pt x="224" y="-6" on="0"/>
        <pt x="83" y="115" on="0"/>
      </contour>
    </TTGlyph>
    <TTGlyph name="Uacute" xMin="83" yMin="-6" xMax="629" yMax="932">
      <contour>
        <pt x="83" y="224" on="1"/>
        <pt x="83" y="680" on="1"/>
        <pt x="83" y="702" on="0"/>
        <pt x="123" y="702" on="1"/>
        <pt x="131" y="702" on="1"/>
        <pt x="171" y="702" on="0"/>
        <pt x="171" y="680" on="1"/>
        <pt x="171" y="221" on="1"/>
        <pt x="171" y="155" on="0"/>
        <pt x="276" y="70" on="0"/>
        <pt x="436" y="70" on="0"/>
        <pt x="541" y="155" on="0"/>
        <pt x="541" y="221" on="1"/>
        <pt x="541" y="680" on="1"/>
        <pt x="541" y="702" on="0"/>
        <pt x="581" y="702" on="1"/>
        <pt x="589" y="702" on="1"/>
        <pt x="629" y="702" on="0"/>
        <pt x="629" y="680" on="1"/>
        <pt x="629" y="224" on="1"/>
        <pt x="629" y="115" on="0"/>
        <pt x="487" y="-6" on="0"/>
        <pt x="224" y="-6" on="0"/>
        <pt x="83" y="115" on="0"/>
      </contour>
      <contour>
        <pt x="468" y="912" on="0"/>
        <pt x="449" y="888" on="0"/>
        <pt x="389" y="820" on="0"/>
        <pt x="358" y="785" on="0"/>
        <pt x="300" y="785" on="0"/>
        <pt x="300" y="805" on="0"/>
        <pt x="358" y="906" on="1"/>
        <pt x="373" y="932" on="0"/>
        <pt x="468" y="932" on="0"/>
        <pt x="468" y="919" on="1"/>
      </contour>
    </TTGlyph>
    <TTGlyph name="Ucircumflex" xMin="83" yMin="-6" xMax="629" yMax="906">
      <contour>
        <pt x="83" y="224" on="1"/>
        <pt x="83" y="680" on="1"/>
        <pt x="83" y="702" on="0"/>
        <pt x="123" y="702" on="1"/>
        <pt x="131" y="702" on="1"/>
        <pt x="171" y="702" on="0"/>
        <pt x="171" y="680" on="1"/>
        <pt x="171" y="221" on="1"/>
        <pt x="171" y="155" on="0"/>
        <pt x="276" y="70" on="0"/>
        <pt x="436" y="70" on="0"/>
        <pt x="541" y="155" on="0"/>
        <pt x="541" y="221" on="1"/>
        <pt x="541" y="680" on="1"/>
        <pt x="541" y="702" on="0"/>
        <pt x="581" y="702" on="1"/>
        <pt x="589" y="702" on="1"/>
        <pt x="629" y="702" on="0"/>
        <pt x="629" y="680" on="1"/>
        <pt x="629" y="224" on="1"/>
        <pt x="629" y="115" on="0"/>
        <pt x="487" y="-6" on="0"/>
        <pt x="224" y="-6" on="0"/>
        <pt x="83" y="115" on="0"/>
      </contour>
      <contour>
        <pt x="294" y="777" on="1"/>
        <pt x="280" y="764" on="0"/>
        <pt x="235" y="764" on="0"/>
        <pt x="235" y="778" on="1"/>
        <pt x="235" y="786" on="0"/>
        <pt x="241" y="796" on="1"/>
        <pt x="297" y="884" on="1"/>
        <pt x="312" y="906" on="0"/>
        <pt x="343" y="906" on="1"/>
        <pt x="368" y="906" on="1"/>
        <pt x="399" y="906" on="0"/>
        <pt x="414" y="884" on="1"/>
        <pt x="471" y="796" on="1"/>
        <pt x="477" y="787" on="0"/>
        <pt x="477" y="779" on="1"/>
        <pt x="477" y="764" on="0"/>
        <pt x="432" y="764" on="0"/>
        <pt x="418" y="777" on="1"/>
        <pt x="355" y="851" on="1"/>
      </contour>
    </TTGlyph>
    <TTGlyph name="Udieresis" xMin="83" yMin="-6" xMax="629" yMax="882">
      <contour>
        <pt x="83" y="224" on="1"/>
        <pt x="83" y="680" on="1"/>
        <pt x="83" y="702" on="0"/>
        <pt x="123" y="702" on="1"/>
        <pt x="131" y="702" on="1"/>
        <pt x="171" y="702" on="0"/>
        <pt x="171" y="680" on="1"/>
        <pt x="171" y="221" on="1"/>
        <pt x="171" y="155" on="0"/>
        <pt x="276" y="70" on="0"/>
        <pt x="436" y="70" on="0"/>
        <pt x="541" y="155" on="0"/>
        <pt x="541" y="221" on="1"/>
        <pt x="541" y="680" on="1"/>
        <pt x="541" y="702" on="0"/>
        <pt x="581" y="702" on="1"/>
        <pt x="589" y="702" on="1"/>
        <pt x="629" y="702" on="0"/>
        <pt x="629" y="680" on="1"/>
        <pt x="629" y="224" on="1"/>
        <pt x="629" y="115" on="0"/>
        <pt x="487" y="-6" on="0"/>
        <pt x="224" y="-6" on="0"/>
        <pt x="83" y="115" on="0"/>
      </contour>
      <contour>
        <pt x="426" y="787" on="1"/>
        <pt x="386" y="787" on="0"/>
        <pt x="386" y="809" on="1"/>
        <pt x="386" y="860" on="1"/>
        <pt x="386" y="882" on="0"/>
        <pt x="426" y="882" on="1"/>
        <pt x="430" y="882" on="1"/>
        <pt x="470" y="882" on="0"/>
        <pt x="470" y="860" on="1"/>
        <pt x="470" y="809" on="1"/>
        <pt x="470" y="787" on="0"/>
        <pt x="430" y="787" on="1"/>
      </contour>
      <contour>
        <pt x="282" y="787" on="1"/>
        <pt x="242" y="787" on="0"/>
        <pt x="242" y="809" on="1"/>
        <pt x="242" y="860" on="1"/>
        <pt x="242" y="882" on="0"/>
        <pt x="282" y="882" on="1"/>
        <pt x="286" y="882" on="1"/>
        <pt x="326" y="882" on="0"/>
        <pt x="326" y="860" on="1"/>
        <pt x="326" y="809" on="1"/>
        <pt x="326" y="787" on="0"/>
        <pt x="286" y="787" on="1"/>
      </contour>
    </TTGlyph>
    <TTGlyph name="Ugrave" xMin="83" yMin="-6" xMax="629" yMax="932">
      <contour>
        <pt x="83" y="224" on="1"/>
        <pt x="83" y="680" on="1"/>
        <pt x="83" y="702" on="0"/>
        <pt x="123" y="702" on="1"/>
        <pt x="131" y="702" on="1"/>
        <pt x="171" y="702" on="0"/>
        <pt x="171" y="680" on="1"/>
        <pt x="171" y="221" on="1"/>
        <pt x="171" y="155" on="0"/>
        <pt x="276" y="70" on="0"/>
        <pt x="436" y="70" on="0"/>
        <pt x="541" y="155" on="0"/>
        <pt x="541" y="221" on="1"/>
        <pt x="541" y="680" on="1"/>
        <pt x="541" y="702" on="0"/>
        <pt x="581" y="702" on="1"/>
        <pt x="589" y="702" on="1"/>
        <pt x="629" y="702" on="0"/>
        <pt x="629" y="680" on="1"/>
        <pt x="629" y="224" on="1"/>
        <pt x="629" y="115" on="0"/>
        <pt x="487" y="-6" on="0"/>
        <pt x="224" y="-6" on="0"/>
        <pt x="83" y="115" on="0"/>
      </contour>
      <contour>
        <pt x="423" y="805" on="0"/>
        <pt x="423" y="785" on="0"/>
        <pt x="366" y="785" on="0"/>
        <pt x="349" y="803" on="1"/>
        <pt x="261" y="904" on="0"/>
        <pt x="255" y="915" on="0"/>
        <pt x="255" y="919" on="1"/>
        <pt x="255" y="932" on="0"/>
        <pt x="350" y="932" on="0"/>
        <pt x="365" y="906" on="1"/>
      </contour>
    </TTGlyph>
    <TTGlyph name="V" xMin="21" yMin="-2" xMax="596" yMax="702">
      <contour>
        <pt x="21" y="685" on="1"/>
        <pt x="21" y="702" on="0"/>
        <pt x="64" y="702" on="1"/>
        <pt x="73" y="702" on="1"/>
        <pt x="108" y="702" on="0"/>
        <pt x="113" y="686" on="1"/>
        <pt x="298" y="152" on="1"/>
        <pt x="309" y="100" on="1"/>
        <pt x="322" y="153" on="1"/>
        <pt x="507" y="686" on="1"/>
        <pt x="512" y="702" on="0"/>
        <pt x="547" y="702" on="1"/>
        <pt x="553" y="702" on="1"/>
        <pt x="596" y="702" on="0"/>
        <pt x="596" y="685" on="1"/>
        <pt x="596" y="680" on="0"/>
        <pt x="593" y="671" on="1"/>
        <pt x="364" y="14" on="1"/>
        <pt x="359" y="-2" on="0"/>
        <pt x="324" y="-2" on="1"/>
        <pt x="293" y="-2" on="1"/>
        <pt x="258" y="-2" on="0"/>
        <pt x="253" y="14" on="1"/>
        <pt x="24" y="672" on="1"/>
        <pt x="21" y="680" on="0"/>
      </contour>
    </TTGlyph>
    <TTGlyph name="W" xMin="15" yMin="-2" xMax="867" yMax="702">
      <contour>
        <pt x="15" y="685" on="1"/>
        <pt x="15" y="702" on="0"/>
        <pt x="58" y="702" on="1"/>
        <pt x="68" y="702" on="1"/>
        <pt x="104" y="702" on="0"/>
        <pt x="108" y="686" on="1"/>
        <pt x="235" y="194" on="1"/>
        <pt x="242" y="166" on="0"/>
        <pt x="253" y="102" on="0"/>
        <pt x="253" y="101" on="1"/>
        <pt x="398" y="685" on="1"/>
        <pt x="402" y="702" on="0"/>
        <pt x="437" y="702" on="1"/>
        <pt x="453" y="702" on="1"/>
        <pt x="488" y="702" on="0"/>
        <pt x="492" y="685" on="1"/>
        <pt x="616" y="193" on="1"/>
        <pt x="633" y="101" on="1"/>
        <pt x="778" y="686" on="1"/>
        <pt x="782" y="702" on="0"/>
        <pt x="818" y="702" on="1"/>
        <pt x="824" y="702" on="1"/>
        <pt x="867" y="702" on="0"/>
        <pt x="867" y="685" on="1"/>
        <pt x="867" y="683" on="0"/>
        <pt x="864" y="671" on="1"/>
        <pt x="691" y="14" on="1"/>
        <pt x="687" y="-2" on="0"/>
        <pt x="651" y="-2" on="1"/>
        <pt x="610" y="-2" on="1"/>
        <pt x="574" y="-2" on="0"/>
        <pt x="570" y="14" on="1"/>
        <pt x="461" y="421" on="1"/>
        <pt x="440" y="551" on="1"/>
        <pt x="419" y="421" on="1"/>
        <pt x="310" y="14" on="1"/>
        <pt x="306" y="-2" on="0"/>
        <pt x="270" y="-2" on="1"/>
        <pt x="229" y="-2" on="1"/>
        <pt x="193" y="-2" on="0"/>
        <pt x="189" y="14" on="1"/>
        <pt x="18" y="671" on="1"/>
        <pt x="15" y="683" on="0"/>
      </contour>
    </TTGlyph>
    <TTGlyph name="X" xMin="20" yMin="-2" xMax="592" yMax="702">
      <contour>
        <pt x="20" y="15" on="1"/>
        <pt x="20" y="22" on="0"/>
        <pt x="28" y="33" on="1"/>
        <pt x="252" y="365" on="1"/>
        <pt x="52" y="667" on="1"/>
        <pt x="44" y="678" on="0"/>
        <pt x="44" y="685" on="1"/>
        <pt x="44" y="702" on="0"/>
        <pt x="90" y="702" on="1"/>
        <pt x="104" y="702" on="1"/>
        <pt x="137" y="702" on="0"/>
        <pt x="147" y="687" on="1"/>
        <pt x="307" y="446" on="1"/>
        <pt x="472" y="688" on="1"/>
        <pt x="481" y="702" on="0"/>
        <pt x="515" y="702" on="1"/>
        <pt x="521" y="702" on="1"/>
        <pt x="567" y="702" on="0"/>
        <pt x="567" y="685" on="1"/>
        <pt x="567" y="681" on="0"/>
        <pt x="559" y="667" on="1"/>
        <pt x="359" y="370" on="1"/>
        <pt x="584" y="33" on="1"/>
        <pt x="592" y="22" on="0"/>
        <pt x="592" y="15" on="1"/>
        <pt x="592" y="-2" on="0"/>
        <pt x="546" y="-2" on="1"/>
        <pt x="530" y="-2" on="1"/>
        <pt x="497" y="-2" on="0"/>
        <pt x="487" y="13" on="1"/>
        <pt x="303" y="288" on="1"/>
        <pt x="117" y="12" on="1"/>
        <pt x="108" y="-2" on="0"/>
        <pt x="74" y="-2" on="1"/>
        <pt x="66" y="-2" on="1"/>
        <pt x="20" y="-2" on="0"/>
      </contour>
    </TTGlyph>
    <TTGlyph name="Y" xMin="18" yMin="-2" xMax="541" yMax="702">
      <contour>
        <pt x="235" y="20" on="1"/>
        <pt x="235" y="359" on="1"/>
        <pt x="26" y="667" on="1"/>
        <pt x="18" y="678" on="0"/>
        <pt x="18" y="685" on="1"/>
        <pt x="18" y="702" on="0"/>
        <pt x="64" y="702" on="1"/>
        <pt x="75" y="702" on="1"/>
        <pt x="108" y="702" on="0"/>
        <pt x="118" y="687" on="1"/>
        <pt x="282" y="441" on="1"/>
        <pt x="450" y="688" on="1"/>
        <pt x="459" y="702" on="0"/>
        <pt x="541" y="702" on="0"/>
        <pt x="541" y="685" on="1"/>
        <pt x="541" y="681" on="0"/>
        <pt x="533" y="667" on="1"/>
        <pt x="323" y="356" on="1"/>
        <pt x="323" y="20" on="1"/>
        <pt x="323" y="-2" on="0"/>
        <pt x="283" y="-2" on="1"/>
        <pt x="275" y="-2" on="1"/>
        <pt x="235" y="-2" on="0"/>
      </contour>
    </TTGlyph>
    <TTGlyph name="Yacute" xMin="18" yMin="-2" xMax="541" yMax="932">
      <contour>
        <pt x="235" y="20" on="1"/>
        <pt x="235" y="359" on="1"/>
        <pt x="26" y="667" on="1"/>
        <pt x="18" y="678" on="0"/>
        <pt x="18" y="685" on="1"/>
        <pt x="18" y="702" on="0"/>
        <pt x="64" y="702" on="1"/>
        <pt x="75" y="702" on="1"/>
        <pt x="108" y="702" on="0"/>
        <pt x="118" y="687" on="1"/>
        <pt x="282" y="441" on="1"/>
        <pt x="450" y="688" on="1"/>
        <pt x="459" y="702" on="0"/>
        <pt x="541" y="702" on="0"/>
        <pt x="541" y="685" on="1"/>
        <pt x="541" y="681" on="0"/>
        <pt x="533" y="667" on="1"/>
        <pt x="323" y="356" on="1"/>
        <pt x="323" y="20" on="1"/>
        <pt x="323" y="-2" on="0"/>
        <pt x="283" y="-2" on="1"/>
        <pt x="275" y="-2" on="1"/>
        <pt x="235" y="-2" on="0"/>
      </contour>
      <contour>
        <pt x="391" y="912" on="0"/>
        <pt x="372" y="888" on="0"/>
        <pt x="312" y="820" on="0"/>
        <pt x="280" y="785" on="0"/>
        <pt x="223" y="785" on="0"/>
        <pt x="223" y="805" on="0"/>
        <pt x="281" y="906" on="1"/>
        <pt x="296" y="932" on="0"/>
        <pt x="391" y="932" on="0"/>
        <pt x="391" y="919" on="1"/>
      </contour>
    </TTGlyph>
    <TTGlyph name="Ydieresis" xMin="18" yMin="-2" xMax="541" yMax="882">
      <contour>
        <pt x="235" y="20" on="1"/>
        <pt x="235" y="359" on="1"/>
        <pt x="26" y="667" on="1"/>
        <pt x="18" y="678" on="0"/>
        <pt x="18" y="685" on="1"/>
        <pt x="18" y="702" on="0"/>
        <pt x="64" y="702" on="1"/>
        <pt x="75" y="702" on="1"/>
        <pt x="108" y="702" on="0"/>
        <pt x="118" y="687" on="1"/>
        <pt x="282" y="441" on="1"/>
        <pt x="450" y="688" on="1"/>
        <pt x="459" y="702" on="0"/>
        <pt x="541" y="702" on="0"/>
        <pt x="541" y="685" on="1"/>
        <pt x="541" y="681" on="0"/>
        <pt x="533" y="667" on="1"/>
        <pt x="323" y="356" on="1"/>
        <pt x="323" y="20" on="1"/>
        <pt x="323" y="-2" on="0"/>
        <pt x="283" y="-2" on="1"/>
        <pt x="275" y="-2" on="1"/>
        <pt x="235" y="-2" on="0"/>
      </contour>
      <contour>
        <pt x="349" y="787" on="1"/>
        <pt x="309" y="787" on="0"/>
        <pt x="309" y="809" on="1"/>
        <pt x="309" y="860" on="1"/>
        <pt x="309" y="882" on="0"/>
        <pt x="349" y="882" on="1"/>
        <pt x="353" y="882" on="1"/>
        <pt x="393" y="882" on="0"/>
        <pt x="393" y="860" on="1"/>
        <pt x="393" y="809" on="1"/>
        <pt x="393" y="787" on="0"/>
        <pt x="353" y="787" on="1"/>
      </contour>
      <contour>
        <pt x="205" y="787" on="1"/>
        <pt x="165" y="787" on="0"/>
        <pt x="165" y="809" on="1"/>
        <pt x="165" y="860" on="1"/>
        <pt x="165" y="882" on="0"/>
        <pt x="205" y="882" on="1"/>
        <pt x="209" y="882" on="1"/>
        <pt x="249" y="882" on="0"/>
        <pt x="249" y="860" on="1"/>
        <pt x="249" y="809" on="1"/>
        <pt x="249" y="787" on="0"/>
        <pt x="209" y="787" on="1"/>
      </contour>
    </TTGlyph>
    <TTGlyph name="Z" xMin="38" yMin="0" xMax="571" yMax="700">
      <contour>
        <pt x="62" y="0" on="1"/>
        <pt x="55" y="0" on="0"/>
        <pt x="38" y="38" on="0"/>
        <pt x="38" y="60" on="0"/>
        <pt x="41" y="65" on="1"/>
        <pt x="451" y="624" on="1"/>
        <pt x="91" y="624" on="1"/>
        <pt x="71" y="624" on="0"/>
        <pt x="71" y="658" on="1"/>
        <pt x="71" y="666" on="1"/>
        <pt x="71" y="700" on="0"/>
        <pt x="91" y="700" on="1"/>
        <pt x="549" y="700" on="1"/>
        <pt x="555" y="700" on="0"/>
        <pt x="571" y="662" on="0"/>
        <pt x="571" y="640" on="0"/>
        <pt x="568" y="635" on="1"/>
        <pt x="158" y="76" on="1"/>
        <pt x="549" y="76" on="1"/>
        <pt x="569" y="76" on="0"/>
        <pt x="569" y="42" on="1"/>
        <pt x="569" y="34" on="1"/>
        <pt x="569" y="0" on="0"/>
        <pt x="549" y="0" on="1"/>
      </contour>
    </TTGlyph>
    <TTGlyph name="Zcaron" xMin="38" yMin="0" xMax="571" yMax="905">
      <contour>
        <pt x="62" y="0" on="1"/>
        <pt x="55" y="0" on="0"/>
        <pt x="38" y="38" on="0"/>
        <pt x="38" y="60" on="0"/>
        <pt x="41" y="65" on="1"/>
        <pt x="451" y="624" on="1"/>
        <pt x="91" y="624" on="1"/>
        <pt x="71" y="624" on="0"/>
        <pt x="71" y="658" on="1"/>
        <pt x="71" y="666" on="1"/>
        <pt x="71" y="700" on="0"/>
        <pt x="91" y="700" on="1"/>
        <pt x="549" y="700" on="1"/>
        <pt x="555" y="700" on="0"/>
        <pt x="571" y="662" on="0"/>
        <pt x="571" y="640" on="0"/>
        <pt x="568" y="635" on="1"/>
        <pt x="158" y="76" on="1"/>
        <pt x="549" y="76" on="1"/>
        <pt x="569" y="76" on="0"/>
        <pt x="569" y="42" on="1"/>
        <pt x="569" y="34" on="1"/>
        <pt x="569" y="0" on="0"/>
        <pt x="549" y="0" on="1"/>
      </contour>
      <contour>
        <pt x="295" y="763" on="1"/>
        <pt x="264" y="763" on="0"/>
        <pt x="249" y="785" on="1"/>
        <pt x="193" y="873" on="1"/>
        <pt x="187" y="884" on="0"/>
        <pt x="187" y="891" on="1"/>
        <pt x="187" y="905" on="0"/>
        <pt x="232" y="905" on="0"/>
        <pt x="246" y="892" on="1"/>
        <pt x="307" y="818" on="1"/>
        <pt x="370" y="892" on="1"/>
        <pt x="384" y="905" on="0"/>
        <pt x="429" y="905" on="0"/>
        <pt x="429" y="890" on="1"/>
        <pt x="429" y="882" on="0"/>
        <pt x="423" y="873" on="1"/>
        <pt x="366" y="785" on="1"/>
        <pt x="351" y="763" on="0"/>
        <pt x="320" y="763" on="1"/>
      </contour>
    </TTGlyph>
    <TTGlyph name="a" xMin="49" yMin="-6" xMax="477" yMax="529">
      <contour>
        <pt x="381" y="326" on="1"/>
        <pt x="381" y="373" on="1"/>
        <pt x="381" y="457" on="0"/>
        <pt x="271" y="457" on="1"/>
        <pt x="199" y="457" on="0"/>
        <pt x="138" y="426" on="1"/>
        <pt x="117" y="415" on="0"/>
        <pt x="115" y="415" on="1"/>
        <pt x="105" y="415" on="0"/>
        <pt x="80" y="455" on="0"/>
        <pt x="80" y="465" on="1"/>
        <pt x="80" y="486" on="0"/>
        <pt x="197" y="529" on="0"/>
        <pt x="361" y="529" on="0"/>
        <pt x="465" y="446" on="0"/>
        <pt x="465" y="372" on="1"/>
        <pt x="465" y="148" on="1"/>
        <pt x="465" y="88" on="0"/>
        <pt x="470" y="61" on="1"/>
        <pt x="477" y="24" on="0"/>
        <pt x="477" y="22" on="1"/>
        <pt x="477" y="10" on="0"/>
        <pt x="439" y="-1" on="0"/>
        <pt x="418" y="-1" on="0"/>
        <pt x="410" y="3" on="0"/>
        <pt x="403" y="13" on="0"/>
        <pt x="399" y="22" on="0"/>
        <pt x="395" y="38" on="0"/>
        <pt x="392" y="47" on="0"/>
        <pt x="389" y="66" on="0"/>
        <pt x="388" y="69" on="1"/>
        <pt x="320" y="-6" on="0"/>
        <pt x="220" y="-6" on="1"/>
        <pt x="143" y="-6" on="0"/>
        <pt x="49" y="70" on="0"/>
        <pt x="49" y="228" on="0"/>
        <pt x="158" y="307" on="0"/>
        <pt x="294" y="324" on="0"/>
      </contour>
      <contour>
        <pt x="139" y="149" on="1"/>
        <pt x="139" y="67" on="0"/>
        <pt x="224" y="67" on="1"/>
        <pt x="273" y="67" on="0"/>
        <pt x="344" y="103" on="0"/>
        <pt x="381" y="136" on="1"/>
        <pt x="381" y="254" on="1"/>
        <pt x="256" y="254" on="0"/>
        <pt x="220" y="240" on="1"/>
        <pt x="201" y="233" on="0"/>
        <pt x="180" y="222" on="1"/>
        <pt x="139" y="201" on="0"/>
      </contour>
    </TTGlyph>
    <TTGlyph name="aacute" xMin="49" yMin="-6" xMax="477" yMax="752">
      <contour>
        <pt x="381" y="326" on="1"/>
        <pt x="381" y="373" on="1"/>
        <pt x="381" y="457" on="0"/>
        <pt x="271" y="457" on="1"/>
        <pt x="199" y="457" on="0"/>
        <pt x="138" y="426" on="1"/>
        <pt x="117" y="415" on="0"/>
        <pt x="115" y="415" on="1"/>
        <pt x="105" y="415" on="0"/>
        <pt x="80" y="455" on="0"/>
        <pt x="80" y="465" on="1"/>
        <pt x="80" y="486" on="0"/>
        <pt x="197" y="529" on="0"/>
        <pt x="361" y="529" on="0"/>
        <pt x="465" y="446" on="0"/>
        <pt x="465" y="372" on="1"/>
        <pt x="465" y="148" on="1"/>
        <pt x="465" y="88" on="0"/>
        <pt x="470" y="61" on="1"/>
        <pt x="477" y="24" on="0"/>
        <pt x="477" y="22" on="1"/>
        <pt x="477" y="10" on="0"/>
        <pt x="439" y="-1" on="0"/>
        <pt x="418" y="-1" on="0"/>
        <pt x="410" y="3" on="0"/>
        <pt x="403" y="13" on="0"/>
        <pt x="399" y="22" on="0"/>
        <pt x="395" y="38" on="0"/>
        <pt x="392" y="47" on="0"/>
        <pt x="389" y="66" on="0"/>
        <pt x="388" y="69" on="1"/>
        <pt x="320" y="-6" on="0"/>
        <pt x="220" y="-6" on="1"/>
        <pt x="143" y="-6" on="0"/>
        <pt x="49" y="70" on="0"/>
        <pt x="49" y="228" on="0"/>
        <pt x="158" y="307" on="0"/>
        <pt x="294" y="324" on="0"/>
      </contour>
      <contour>
        <pt x="139" y="149" on="1"/>
        <pt x="139" y="67" on="0"/>
        <pt x="224" y="67" on="1"/>
        <pt x="273" y="67" on="0"/>
        <pt x="344" y="103" on="0"/>
        <pt x="381" y="136" on="1"/>
        <pt x="381" y="254" on="1"/>
        <pt x="256" y="254" on="0"/>
        <pt x="220" y="240" on="1"/>
        <pt x="201" y="233" on="0"/>
        <pt x="180" y="222" on="1"/>
        <pt x="139" y="201" on="0"/>
      </contour>
      <contour>
        <pt x="380" y="732" on="0"/>
        <pt x="361" y="708" on="0"/>
        <pt x="301" y="640" on="0"/>
        <pt x="270" y="605" on="0"/>
        <pt x="212" y="605" on="0"/>
        <pt x="212" y="625" on="0"/>
        <pt x="270" y="726" on="1"/>
        <pt x="285" y="752" on="0"/>
        <pt x="380" y="752" on="0"/>
        <pt x="380" y="739" on="1"/>
      </contour>
    </TTGlyph>
    <TTGlyph name="acircumflex" xMin="49" yMin="-6" xMax="477" yMax="726">
      <contour>
        <pt x="381" y="326" on="1"/>
        <pt x="381" y="373" on="1"/>
        <pt x="381" y="457" on="0"/>
        <pt x="271" y="457" on="1"/>
        <pt x="199" y="457" on="0"/>
        <pt x="138" y="426" on="1"/>
        <pt x="117" y="415" on="0"/>
        <pt x="115" y="415" on="1"/>
        <pt x="105" y="415" on="0"/>
        <pt x="80" y="455" on="0"/>
        <pt x="80" y="465" on="1"/>
        <pt x="80" y="486" on="0"/>
        <pt x="197" y="529" on="0"/>
        <pt x="361" y="529" on="0"/>
        <pt x="465" y="446" on="0"/>
        <pt x="465" y="372" on="1"/>
        <pt x="465" y="148" on="1"/>
        <pt x="465" y="88" on="0"/>
        <pt x="470" y="61" on="1"/>
        <pt x="477" y="24" on="0"/>
        <pt x="477" y="22" on="1"/>
        <pt x="477" y="10" on="0"/>
        <pt x="439" y="-1" on="0"/>
        <pt x="418" y="-1" on="0"/>
        <pt x="410" y="3" on="0"/>
        <pt x="403" y="13" on="0"/>
        <pt x="399" y="22" on="0"/>
        <pt x="395" y="38" on="0"/>
        <pt x="392" y="47" on="0"/>
        <pt x="389" y="66" on="0"/>
        <pt x="388" y="69" on="1"/>
        <pt x="320" y="-6" on="0"/>
        <pt x="220" y="-6" on="1"/>
        <pt x="143" y="-6" on="0"/>
        <pt x="49" y="70" on="0"/>
        <pt x="49" y="228" on="0"/>
        <pt x="158" y="307" on="0"/>
        <pt x="294" y="324" on="0"/>
      </contour>
      <contour>
        <pt x="139" y="149" on="1"/>
        <pt x="139" y="67" on="0"/>
        <pt x="224" y="67" on="1"/>
        <pt x="273" y="67" on="0"/>
        <pt x="344" y="103" on="0"/>
        <pt x="381" y="136" on="1"/>
        <pt x="381" y="254" on="1"/>
        <pt x="256" y="254" on="0"/>
        <pt x="220" y="240" on="1"/>
        <pt x="201" y="233" on="0"/>
        <pt x="180" y="222" on="1"/>
        <pt x="139" y="201" on="0"/>
      </contour>
      <contour>
        <pt x="206" y="597" on="1"/>
        <pt x="192" y="584" on="0"/>
        <pt x="147" y="584" on="0"/>
        <pt x="147" y="598" on="1"/>
        <pt x="147" y="606" on="0"/>
        <pt x="153" y="616" on="1"/>
        <pt x="209" y="704" on="1"/>
        <pt x="224" y="726" on="0"/>
        <pt x="255" y="726" on="1"/>
        <pt x="280" y="726" on="1"/>
        <pt x="311" y="726" on="0"/>
        <pt x="326" y="704" on="1"/>
        <pt x="383" y="616" on="1"/>
        <pt x="389" y="607" on="0"/>
        <pt x="389" y="599" on="1"/>
        <pt x="389" y="584" on="0"/>
        <pt x="344" y="584" on="0"/>
        <pt x="330" y="597" on="1"/>
        <pt x="267" y="671" on="1"/>
      </contour>
    </TTGlyph>
    <TTGlyph name="acute" xMin="74" yMin="605" xMax="242" yMax="752">
      <contour>
        <pt x="242" y="732" on="0"/>
        <pt x="223" y="708" on="0"/>
        <pt x="163" y="640" on="0"/>
        <pt x="132" y="605" on="0"/>
        <pt x="74" y="605" on="0"/>
        <pt x="74" y="625" on="0"/>
        <pt x="132" y="726" on="1"/>
        <pt x="147" y="752" on="0"/>
        <pt x="242" y="752" on="0"/>
        <pt x="242" y="739" on="1"/>
      </contour>
    </TTGlyph>
    <TTGlyph name="adieresis" xMin="49" yMin="-6" xMax="477" yMax="702">
      <contour>
        <pt x="381" y="326" on="1"/>
        <pt x="381" y="373" on="1"/>
        <pt x="381" y="457" on="0"/>
        <pt x="271" y="457" on="1"/>
        <pt x="199" y="457" on="0"/>
        <pt x="138" y="426" on="1"/>
        <pt x="117" y="415" on="0"/>
        <pt x="115" y="415" on="1"/>
        <pt x="105" y="415" on="0"/>
        <pt x="80" y="455" on="0"/>
        <pt x="80" y="465" on="1"/>
        <pt x="80" y="486" on="0"/>
        <pt x="197" y="529" on="0"/>
        <pt x="361" y="529" on="0"/>
        <pt x="465" y="446" on="0"/>
        <pt x="465" y="372" on="1"/>
        <pt x="465" y="148" on="1"/>
        <pt x="465" y="88" on="0"/>
        <pt x="470" y="61" on="1"/>
        <pt x="477" y="24" on="0"/>
        <pt x="477" y="22" on="1"/>
        <pt x="477" y="10" on="0"/>
        <pt x="439" y="-1" on="0"/>
        <pt x="418" y="-1" on="0"/>
        <pt x="410" y="3" on="0"/>
        <pt x="403" y="13" on="0"/>
        <pt x="399" y="22" on="0"/>
        <pt x="395" y="38" on="0"/>
        <pt x="392" y="47" on="0"/>
        <pt x="389" y="66" on="0"/>
        <pt x="388" y="69" on="1"/>
        <pt x="320" y="-6" on="0"/>
        <pt x="220" y="-6" on="1"/>
        <pt x="143" y="-6" on="0"/>
        <pt x="49" y="70" on="0"/>
        <pt x="49" y="228" on="0"/>
        <pt x="158" y="307" on="0"/>
        <pt x="294" y="324" on="0"/>
      </contour>
      <contour>
        <pt x="139" y="149" on="1"/>
        <pt x="139" y="67" on="0"/>
        <pt x="224" y="67" on="1"/>
        <pt x="273" y="67" on="0"/>
        <pt x="344" y="103" on="0"/>
        <pt x="381" y="136" on="1"/>
        <pt x="381" y="254" on="1"/>
        <pt x="256" y="254" on="0"/>
        <pt x="220" y="240" on="1"/>
        <pt x="201" y="233" on="0"/>
        <pt x="180" y="222" on="1"/>
        <pt x="139" y="201" on="0"/>
      </contour>
      <contour>
        <pt x="338" y="607" on="1"/>
        <pt x="298" y="607" on="0"/>
        <pt x="298" y="629" on="1"/>
        <pt x="298" y="680" on="1"/>
        <pt x="298" y="702" on="0"/>
        <pt x="338" y="702" on="1"/>
        <pt x="342" y="702" on="1"/>
        <pt x="382" y="702" on="0"/>
        <pt x="382" y="680" on="1"/>
        <pt x="382" y="629" on="1"/>
        <pt x="382" y="607" on="0"/>
        <pt x="342" y="607" on="1"/>
      </contour>
      <contour>
        <pt x="194" y="607" on="1"/>
        <pt x="154" y="607" on="0"/>
        <pt x="154" y="629" on="1"/>
        <pt x="154" y="680" on="1"/>
        <pt x="154" y="702" on="0"/>
        <pt x="194" y="702" on="1"/>
        <pt x="198" y="702" on="1"/>
        <pt x="238" y="702" on="0"/>
        <pt x="238" y="680" on="1"/>
        <pt x="238" y="629" on="1"/>
        <pt x="238" y="607" on="0"/>
        <pt x="198" y="607" on="1"/>
      </contour>
    </TTGlyph>
    <TTGlyph name="ae" xMin="45" yMin="-6" xMax="774" yMax="529">
      <contour>
        <pt x="45" y="144" on="1"/>
        <pt x="45" y="185" on="0"/>
        <pt x="80" y="246" on="0"/>
        <pt x="133" y="281" on="0"/>
        <pt x="174" y="292" on="1"/>
        <pt x="241" y="310" on="0"/>
        <pt x="338" y="312" on="1"/>
        <pt x="344" y="374" on="0"/>
        <pt x="366" y="416" on="1"/>
        <pt x="340" y="457" on="0"/>
        <pt x="267" y="457" on="1"/>
        <pt x="195" y="457" on="0"/>
        <pt x="134" y="426" on="1"/>
        <pt x="113" y="415" on="0"/>
        <pt x="111" y="415" on="1"/>
        <pt x="101" y="415" on="0"/>
        <pt x="76" y="455" on="0"/>
        <pt x="76" y="465" on="1"/>
        <pt x="76" y="486" on="0"/>
        <pt x="193" y="529" on="0"/>
        <pt x="264" y="529" on="1"/>
        <pt x="363" y="529" on="0"/>
        <pt x="416" y="481" on="1"/>
        <pt x="473" y="529" on="0"/>
        <pt x="670" y="529" on="0"/>
        <pt x="774" y="403" on="0"/>
        <pt x="774" y="282" on="1"/>
        <pt x="774" y="273" on="0"/>
        <pt x="750" y="241" on="0"/>
        <pt x="741" y="241" on="1"/>
        <pt x="425" y="241" on="1"/>
        <pt x="431" y="150" on="0"/>
        <pt x="505" y="66" on="0"/>
        <pt x="579" y="66" on="1"/>
        <pt x="647" y="66" on="0"/>
        <pt x="704" y="98" on="1"/>
        <pt x="723" y="108" on="0"/>
        <pt x="725" y="108" on="1"/>
        <pt x="735" y="108" on="0"/>
        <pt x="760" y="68" on="0"/>
        <pt x="760" y="58" on="1"/>
        <pt x="760" y="38" on="0"/>
        <pt x="651" y="-6" on="0"/>
        <pt x="580" y="-6" on="1"/>
        <pt x="457" y="-6" on="0"/>
        <pt x="397" y="57" on="1"/>
        <pt x="321" y="-6" on="0"/>
        <pt x="216" y="-6" on="1"/>
        <pt x="139" y="-6" on="0"/>
        <pt x="45" y="70" on="0"/>
      </contour>
      <contour>
        <pt x="685" y="313" on="1"/>
        <pt x="685" y="457" on="0"/>
        <pt x="565" y="457" on="1"/>
        <pt x="436" y="457" on="0"/>
        <pt x="425" y="313" on="1"/>
      </contour>
      <contour>
        <pt x="135" y="149" on="1"/>
        <pt x="135" y="67" on="0"/>
        <pt x="220" y="67" on="1"/>
        <pt x="293" y="67" on="0"/>
        <pt x="358" y="119" on="1"/>
        <pt x="336" y="170" on="0"/>
        <pt x="335" y="240" on="1"/>
        <pt x="188" y="237" on="0"/>
        <pt x="152" y="196" on="1"/>
        <pt x="135" y="177" on="0"/>
      </contour>
    </TTGlyph>
    <TTGlyph name="agrave" xMin="49" yMin="-6" xMax="477" yMax="752">
      <contour>
        <pt x="381" y="326" on="1"/>
        <pt x="381" y="373" on="1"/>
        <pt x="381" y="457" on="0"/>
        <pt x="271" y="457" on="1"/>
        <pt x="199" y="457" on="0"/>
        <pt x="138" y="426" on="1"/>
        <pt x="117" y="415" on="0"/>
        <pt x="115" y="415" on="1"/>
        <pt x="105" y="415" on="0"/>
        <pt x="80" y="455" on="0"/>
        <pt x="80" y="465" on="1"/>
        <pt x="80" y="486" on="0"/>
        <pt x="197" y="529" on="0"/>
        <pt x="361" y="529" on="0"/>
        <pt x="465" y="446" on="0"/>
        <pt x="465" y="372" on="1"/>
        <pt x="465" y="148" on="1"/>
        <pt x="465" y="88" on="0"/>
        <pt x="470" y="61" on="1"/>
        <pt x="477" y="24" on="0"/>
        <pt x="477" y="22" on="1"/>
        <pt x="477" y="10" on="0"/>
        <pt x="439" y="-1" on="0"/>
        <pt x="418" y="-1" on="0"/>
        <pt x="410" y="3" on="0"/>
        <pt x="403" y="13" on="0"/>
        <pt x="399" y="22" on="0"/>
        <pt x="395" y="38" on="0"/>
        <pt x="392" y="47" on="0"/>
        <pt x="389" y="66" on="0"/>
        <pt x="388" y="69" on="1"/>
        <pt x="320" y="-6" on="0"/>
        <pt x="220" y="-6" on="1"/>
        <pt x="143" y="-6" on="0"/>
        <pt x="49" y="70" on="0"/>
        <pt x="49" y="228" on="0"/>
        <pt x="158" y="307" on="0"/>
        <pt x="294" y="324" on="0"/>
      </contour>
      <contour>
        <pt x="139" y="149" on="1"/>
        <pt x="139" y="67" on="0"/>
        <pt x="224" y="67" on="1"/>
        <pt x="273" y="67" on="0"/>
        <pt x="344" y="103" on="0"/>
        <pt x="381" y="136" on="1"/>
        <pt x="381" y="254" on="1"/>
        <pt x="256" y="254" on="0"/>
        <pt x="220" y="240" on="1"/>
        <pt x="201" y="233" on="0"/>
        <pt x="180" y="222" on="1"/>
        <pt x="139" y="201" on="0"/>
      </contour>
      <contour>
        <pt x="335" y="625" on="0"/>
        <pt x="335" y="605" on="0"/>
        <pt x="278" y="605" on="0"/>
        <pt x="261" y="623" on="1"/>
        <pt x="173" y="724" on="0"/>
        <pt x="167" y="735" on="0"/>
        <pt x="167" y="739" on="1"/>
        <pt x="167" y="752" on="0"/>
        <pt x="262" y="752" on="0"/>
        <pt x="277" y="726" on="1"/>
      </contour>
    </TTGlyph>
    <TTGlyph name="ampersand" xMin="50" yMin="-6" xMax="611" yMax="706">
      <contour>
        <pt x="50" y="212" on="1"/>
        <pt x="50" y="276" on="0"/>
        <pt x="126" y="374" on="0"/>
        <pt x="176" y="387" on="1"/>
        <pt x="176" y="391" on="1"/>
        <pt x="131" y="409" on="0"/>
        <pt x="73" y="485" on="0"/>
        <pt x="73" y="538" on="1"/>
        <pt x="73" y="620" on="0"/>
        <pt x="184" y="706" on="0"/>
        <pt x="360" y="706" on="0"/>
        <pt x="360" y="674" on="1"/>
        <pt x="360" y="665" on="0"/>
        <pt x="348" y="625" on="0"/>
        <pt x="338" y="625" on="1"/>
        <pt x="337" y="625" on="0"/>
        <pt x="296" y="634" on="0"/>
        <pt x="240" y="634" on="0"/>
        <pt x="189" y="613" on="0"/>
        <pt x="178" y="595" on="1"/>
        <pt x="157" y="563" on="0"/>
        <pt x="157" y="484" on="0"/>
        <pt x="225" y="408" on="0"/>
        <pt x="291" y="408" on="1"/>
        <pt x="409" y="408" on="1"/>
        <pt x="421" y="513" on="1"/>
        <pt x="423" y="535" on="0"/>
        <pt x="453" y="535" on="1"/>
        <pt x="463" y="535" on="1"/>
        <pt x="493" y="535" on="0"/>
        <pt x="493" y="513" on="1"/>
        <pt x="493" y="408" on="1"/>
        <pt x="577" y="408" on="1"/>
        <pt x="597" y="408" on="0"/>
        <pt x="597" y="378" on="1"/>
        <pt x="597" y="366" on="1"/>
        <pt x="597" y="336" on="0"/>
        <pt x="577" y="336" on="1"/>
        <pt x="493" y="336" on="1"/>
        <pt x="493" y="140" on="1"/>
        <pt x="493" y="66" on="0"/>
        <pt x="547" y="66" on="1"/>
        <pt x="564" y="66" on="0"/>
        <pt x="588" y="71" on="0"/>
        <pt x="590" y="71" on="1"/>
        <pt x="599" y="71" on="0"/>
        <pt x="611" y="34" on="0"/>
        <pt x="611" y="24" on="1"/>
        <pt x="611" y="-6" on="0"/>
        <pt x="470" y="-6" on="0"/>
        <pt x="436" y="37" on="1"/>
        <pt x="365" y="-6" on="0"/>
        <pt x="273" y="-6" on="1"/>
        <pt x="191" y="-6" on="0"/>
        <pt x="124" y="40" on="1"/>
        <pt x="50" y="93" on="0"/>
      </contour>
      <contour>
        <pt x="137" y="204" on="1"/>
        <pt x="137" y="153" on="0"/>
        <pt x="186" y="88" on="0"/>
        <pt x="247" y="66" on="0"/>
        <pt x="281" y="66" on="1"/>
        <pt x="344" y="66" on="0"/>
        <pt x="411" y="103" on="1"/>
        <pt x="409" y="121" on="0"/>
        <pt x="409" y="132" on="1"/>
        <pt x="409" y="336" on="1"/>
        <pt x="287" y="336" on="1"/>
        <pt x="214" y="336" on="0"/>
        <pt x="137" y="276" on="0"/>
      </contour>
    </TTGlyph>
    <TTGlyph name="approxequal" xMin="79" yMin="99" xMax="468" yMax="363">
      <contour>
        <pt x="93" y="278" on="0"/>
        <pt x="79" y="304" on="0"/>
        <pt x="79" y="311" on="1"/>
        <pt x="79" y="328" on="0"/>
        <pt x="159" y="363" on="0"/>
        <pt x="246" y="363" on="0"/>
        <pt x="354" y="337" on="0"/>
        <pt x="392" y="337" on="0"/>
        <pt x="434" y="348" on="0"/>
        <pt x="450" y="348" on="0"/>
        <pt x="468" y="330" on="0"/>
        <pt x="468" y="316" on="1"/>
        <pt x="468" y="298" on="0"/>
        <pt x="388" y="263" on="0"/>
        <pt x="300" y="263" on="0"/>
        <pt x="193" y="289" on="0"/>
        <pt x="155" y="289" on="0"/>
        <pt x="113" y="278" on="0"/>
      </contour>
      <contour>
        <pt x="79" y="147" on="1"/>
        <pt x="79" y="164" on="0"/>
        <pt x="159" y="199" on="0"/>
        <pt x="246" y="199" on="0"/>
        <pt x="354" y="173" on="0"/>
        <pt x="392" y="173" on="0"/>
        <pt x="434" y="184" on="0"/>
        <pt x="450" y="184" on="0"/>
        <pt x="468" y="166" on="0"/>
        <pt x="468" y="152" on="1"/>
        <pt x="468" y="134" on="0"/>
        <pt x="388" y="99" on="0"/>
        <pt x="300" y="99" on="0"/>
        <pt x="193" y="125" on="0"/>
        <pt x="155" y="125" on="0"/>
        <pt x="113" y="114" on="0"/>
        <pt x="108" y="114" on="1"/>
        <pt x="93" y="114" on="0"/>
        <pt x="79" y="140" on="0"/>
      </contour>
    </TTGlyph>
    <TTGlyph name="aring" xMin="49" yMin="-6" xMax="477" yMax="733">
      <contour>
        <pt x="381" y="326" on="1"/>
        <pt x="381" y="373" on="1"/>
        <pt x="381" y="457" on="0"/>
        <pt x="271" y="457" on="1"/>
        <pt x="199" y="457" on="0"/>
        <pt x="138" y="426" on="1"/>
        <pt x="117" y="415" on="0"/>
        <pt x="115" y="415" on="1"/>
        <pt x="105" y="415" on="0"/>
        <pt x="80" y="455" on="0"/>
        <pt x="80" y="465" on="1"/>
        <pt x="80" y="486" on="0"/>
        <pt x="197" y="529" on="0"/>
        <pt x="361" y="529" on="0"/>
        <pt x="465" y="446" on="0"/>
        <pt x="465" y="372" on="1"/>
        <pt x="465" y="148" on="1"/>
        <pt x="465" y="88" on="0"/>
        <pt x="470" y="61" on="1"/>
        <pt x="477" y="24" on="0"/>
        <pt x="477" y="22" on="1"/>
        <pt x="477" y="10" on="0"/>
        <pt x="439" y="-1" on="0"/>
        <pt x="418" y="-1" on="0"/>
        <pt x="410" y="3" on="0"/>
        <pt x="403" y="13" on="0"/>
        <pt x="399" y="22" on="0"/>
        <pt x="395" y="38" on="0"/>
        <pt x="392" y="47" on="0"/>
        <pt x="389" y="66" on="0"/>
        <pt x="388" y="69" on="1"/>
        <pt x="320" y="-6" on="0"/>
        <pt x="220" y="-6" on="1"/>
        <pt x="143" y="-6" on="0"/>
        <pt x="49" y="70" on="0"/>
        <pt x="49" y="228" on="0"/>
        <pt x="158" y="307" on="0"/>
        <pt x="294" y="324" on="0"/>
      </contour>
      <contour>
        <pt x="139" y="149" on="1"/>
        <pt x="139" y="67" on="0"/>
        <pt x="224" y="67" on="1"/>
        <pt x="273" y="67" on="0"/>
        <pt x="344" y="103" on="0"/>
        <pt x="381" y="136" on="1"/>
        <pt x="381" y="254" on="1"/>
        <pt x="256" y="254" on="0"/>
        <pt x="220" y="240" on="1"/>
        <pt x="201" y="233" on="0"/>
        <pt x="180" y="222" on="1"/>
        <pt x="139" y="201" on="0"/>
      </contour>
      <contour>
        <pt x="303" y="564" on="0"/>
        <pt x="233" y="564" on="0"/>
        <pt x="184" y="613" on="0"/>
        <pt x="184" y="683" on="0"/>
        <pt x="233" y="733" on="0"/>
        <pt x="303" y="733" on="0"/>
        <pt x="353" y="683" on="0"/>
        <pt x="353" y="613" on="0"/>
      </contour>
      <contour>
        <pt x="247" y="599" on="0"/>
        <pt x="289" y="599" on="0"/>
        <pt x="318" y="627" on="0"/>
        <pt x="318" y="669" on="0"/>
        <pt x="289" y="698" on="0"/>
        <pt x="247" y="698" on="0"/>
        <pt x="219" y="669" on="0"/>
        <pt x="219" y="627" on="0"/>
      </contour>
    </TTGlyph>
    <TTGlyph name="arrowdown" xMin="0" yMin="-2" xMax="529" yMax="710">
      <contour>
        <pt x="229" y="20" on="1"/>
        <pt x="229" y="584" on="1"/>
        <pt x="21" y="372" on="1"/>
        <pt x="11" y="362" on="0"/>
        <pt x="0" y="362" on="0"/>
        <pt x="0" y="381" on="1"/>
        <pt x="0" y="436" on="1"/>
        <pt x="0" y="456" on="0"/>
        <pt x="14" y="470" on="1"/>
        <pt x="246" y="703" on="1"/>
        <pt x="253" y="710" on="0"/>
        <pt x="262" y="710" on="1"/>
        <pt x="266" y="710" on="1"/>
        <pt x="275" y="710" on="0"/>
        <pt x="282" y="703" on="1"/>
        <pt x="515" y="469" on="1"/>
        <pt x="529" y="455" on="0"/>
        <pt x="529" y="435" on="1"/>
        <pt x="529" y="380" on="1"/>
        <pt x="529" y="361" on="0"/>
        <pt x="518" y="361" on="0"/>
        <pt x="508" y="371" on="1"/>
        <pt x="299" y="584" on="1"/>
        <pt x="299" y="20" on="1"/>
        <pt x="299" y="-2" on="0"/>
        <pt x="269" y="-2" on="1"/>
        <pt x="259" y="-2" on="1"/>
        <pt x="229" y="-2" on="0"/>
      </contour>
    </TTGlyph>
    <TTGlyph name="arrowleft" xMin="0" yMin="1" xMax="751" yMax="530">
      <contour>
        <pt x="0" y="264" on="1"/>
        <pt x="0" y="268" on="1"/>
        <pt x="0" y="277" on="0"/>
        <pt x="7" y="284" on="1"/>
        <pt x="240" y="516" on="1"/>
        <pt x="254" y="530" on="0"/>
        <pt x="274" y="530" on="1"/>
        <pt x="329" y="530" on="1"/>
        <pt x="348" y="530" on="0"/>
        <pt x="348" y="519" on="0"/>
        <pt x="338" y="509" on="1"/>
        <pt x="126" y="301" on="1"/>
        <pt x="729" y="301" on="1"/>
        <pt x="751" y="301" on="0"/>
        <pt x="751" y="271" on="1"/>
        <pt x="751" y="261" on="1"/>
        <pt x="751" y="231" on="0"/>
        <pt x="729" y="231" on="1"/>
        <pt x="126" y="231" on="1"/>
        <pt x="339" y="22" on="1"/>
        <pt x="349" y="12" on="0"/>
        <pt x="349" y="1" on="0"/>
        <pt x="330" y="1" on="1"/>
        <pt x="275" y="1" on="1"/>
        <pt x="255" y="1" on="0"/>
        <pt x="241" y="15" on="1"/>
        <pt x="7" y="248" on="1"/>
        <pt x="0" y="255" on="0"/>
      </contour>
    </TTGlyph>
    <TTGlyph name="arrowright" xMin="0" yMin="1" xMax="750" yMax="530">
      <contour>
        <pt x="22" y="230" on="1"/>
        <pt x="0" y="230" on="0"/>
        <pt x="0" y="260" on="1"/>
        <pt x="0" y="270" on="1"/>
        <pt x="0" y="300" on="0"/>
        <pt x="22" y="300" on="1"/>
        <pt x="624" y="300" on="1"/>
        <pt x="411" y="509" on="1"/>
        <pt x="401" y="519" on="0"/>
        <pt x="401" y="530" on="0"/>
        <pt x="420" y="530" on="1"/>
        <pt x="475" y="530" on="1"/>
        <pt x="495" y="530" on="0"/>
        <pt x="509" y="516" on="1"/>
        <pt x="743" y="283" on="1"/>
        <pt x="750" y="276" on="0"/>
        <pt x="750" y="267" on="1"/>
        <pt x="750" y="263" on="1"/>
        <pt x="750" y="254" on="0"/>
        <pt x="743" y="247" on="1"/>
        <pt x="510" y="15" on="1"/>
        <pt x="496" y="1" on="0"/>
        <pt x="476" y="1" on="1"/>
        <pt x="421" y="1" on="1"/>
        <pt x="402" y="1" on="0"/>
        <pt x="402" y="12" on="0"/>
        <pt x="412" y="22" on="1"/>
        <pt x="624" y="230" on="1"/>
      </contour>
    </TTGlyph>
    <TTGlyph name="arrowup" xMin="-1" yMin="-4" xMax="528" yMax="708">
      <contour>
        <pt x="-1" y="271" on="1"/>
        <pt x="-1" y="326" on="1"/>
        <pt x="-1" y="345" on="0"/>
        <pt x="10" y="345" on="0"/>
        <pt x="20" y="335" on="1"/>
        <pt x="229" y="122" on="1"/>
        <pt x="229" y="686" on="1"/>
        <pt x="229" y="708" on="0"/>
        <pt x="259" y="708" on="1"/>
        <pt x="269" y="708" on="1"/>
        <pt x="299" y="708" on="0"/>
        <pt x="299" y="686" on="1"/>
        <pt x="299" y="122" on="1"/>
        <pt x="507" y="334" on="1"/>
        <pt x="517" y="344" on="0"/>
        <pt x="528" y="344" on="0"/>
        <pt x="528" y="325" on="1"/>
        <pt x="528" y="270" on="1"/>
        <pt x="528" y="250" on="0"/>
        <pt x="514" y="236" on="1"/>
        <pt x="282" y="3" on="1"/>
        <pt x="275" y="-4" on="0"/>
        <pt x="266" y="-4" on="1"/>
        <pt x="262" y="-4" on="1"/>
        <pt x="253" y="-4" on="0"/>
        <pt x="246" y="3" on="1"/>
        <pt x="13" y="237" on="1"/>
        <pt x="-1" y="251" on="0"/>
      </contour>
    </TTGlyph>
    <TTGlyph name="asciicircum" xMin="53" yMin="320" xMax="397" yMax="684">
      <contour>
        <pt x="80" y="320" on="1"/>
        <pt x="53" y="320" on="0"/>
        <pt x="53" y="341" on="1"/>
        <pt x="53" y="348" on="0"/>
        <pt x="56" y="355" on="1"/>
        <pt x="181" y="664" on="1"/>
        <pt x="188" y="684" on="0"/>
        <pt x="215" y="684" on="1"/>
        <pt x="235" y="684" on="1"/>
        <pt x="260" y="684" on="0"/>
        <pt x="269" y="664" on="1"/>
        <pt x="394" y="355" on="1"/>
        <pt x="397" y="348" on="0"/>
        <pt x="397" y="341" on="1"/>
        <pt x="397" y="320" on="0"/>
        <pt x="370" y="320" on="1"/>
        <pt x="366" y="320" on="1"/>
        <pt x="340" y="320" on="0"/>
        <pt x="331" y="343" on="1"/>
        <pt x="225" y="604" on="1"/>
        <pt x="118" y="343" on="1"/>
        <pt x="108" y="320" on="0"/>
        <pt x="84" y="320" on="1"/>
      </contour>
    </TTGlyph>
    <TTGlyph name="asciitilde" xMin="79" yMin="215" xMax="468" yMax="315">
      <contour>
        <pt x="93" y="230" on="0"/>
        <pt x="79" y="256" on="0"/>
        <pt x="79" y="263" on="1"/>
        <pt x="79" y="280" on="0"/>
        <pt x="159" y="315" on="0"/>
        <pt x="246" y="315" on="0"/>
        <pt x="354" y="289" on="0"/>
        <pt x="392" y="289" on="0"/>
        <pt x="434" y="300" on="0"/>
        <pt x="450" y="300" on="0"/>
        <pt x="468" y="282" on="0"/>
        <pt x="468" y="268" on="1"/>
        <pt x="468" y="250" on="0"/>
        <pt x="388" y="215" on="0"/>
        <pt x="300" y="215" on="0"/>
        <pt x="193" y="241" on="0"/>
        <pt x="155" y="241" on="0"/>
        <pt x="113" y="230" on="0"/>
      </contour>
    </TTGlyph>
    <TTGlyph name="asterisk" xMin="35" yMin="414" xMax="327" yMax="709">
      <contour>
        <pt x="108" y="423" on="1"/>
        <pt x="100" y="414" on="0"/>
        <pt x="86" y="414" on="0"/>
        <pt x="71" y="425" on="0"/>
        <pt x="71" y="441" on="0"/>
        <pt x="76" y="447" on="1"/>
        <pt x="147" y="546" on="1"/>
        <pt x="49" y="578" on="1"/>
        <pt x="35" y="582" on="0"/>
        <pt x="35" y="604" on="0"/>
        <pt x="46" y="617" on="0"/>
        <pt x="59" y="617" on="0"/>
        <pt x="62" y="616" on="1"/>
        <pt x="161" y="584" on="1"/>
        <pt x="161" y="689" on="1"/>
        <pt x="161" y="709" on="0"/>
        <pt x="201" y="709" on="0"/>
        <pt x="201" y="689" on="1"/>
        <pt x="201" y="584" on="1"/>
        <pt x="300" y="616" on="1"/>
        <pt x="303" y="617" on="0"/>
        <pt x="316" y="617" on="0"/>
        <pt x="327" y="604" on="0"/>
        <pt x="327" y="582" on="0"/>
        <pt x="313" y="578" on="1"/>
        <pt x="214" y="546" on="1"/>
        <pt x="286" y="447" on="1"/>
        <pt x="291" y="439" on="0"/>
        <pt x="291" y="427" on="0"/>
        <pt x="276" y="414" on="0"/>
        <pt x="260" y="414" on="0"/>
        <pt x="254" y="423" on="1"/>
        <pt x="181" y="524" on="1"/>
      </contour>
    </TTGlyph>
    <TTGlyph name="at" xMin="84" yMin="-126" xMax="867" yMax="705">
      <contour>
        <pt x="84" y="237" on="1"/>
        <pt x="84" y="434" on="0"/>
        <pt x="344" y="705" on="0"/>
        <pt x="534" y="705" on="1"/>
        <pt x="685" y="705" on="0"/>
        <pt x="867" y="527" on="0"/>
        <pt x="867" y="242" on="0"/>
        <pt x="749" y="54" on="0"/>
        <pt x="657" y="54" on="1"/>
        <pt x="612" y="54" on="0"/>
        <pt x="560" y="102" on="0"/>
        <pt x="558" y="137" on="1"/>
        <pt x="558" y="144" on="1"/>
        <pt x="509" y="54" on="0"/>
        <pt x="423" y="54" on="1"/>
        <pt x="375" y="54" on="0"/>
        <pt x="330" y="90" on="1"/>
        <pt x="306" y="108" on="0"/>
        <pt x="278" y="184" on="0"/>
        <pt x="278" y="236" on="1"/>
        <pt x="278" y="355" on="0"/>
        <pt x="394" y="505" on="0"/>
        <pt x="489" y="505" on="1"/>
        <pt x="553" y="505" on="0"/>
        <pt x="600" y="458" on="1"/>
        <pt x="609" y="486" on="0"/>
        <pt x="614" y="493" on="1"/>
        <pt x="620" y="502" on="0"/>
        <pt x="635" y="502" on="1"/>
        <pt x="641" y="502" on="1"/>
        <pt x="663" y="502" on="0"/>
        <pt x="663" y="481" on="1"/>
        <pt x="630" y="173" on="0"/>
        <pt x="630" y="149" on="1"/>
        <pt x="630" y="107" on="0"/>
        <pt x="670" y="107" on="1"/>
        <pt x="726" y="107" on="0"/>
        <pt x="813" y="272" on="0"/>
        <pt x="813" y="380" on="1"/>
        <pt x="813" y="507" on="0"/>
        <pt x="659" y="661" on="0"/>
        <pt x="534" y="661" on="1"/>
        <pt x="367" y="661" on="0"/>
        <pt x="138" y="415" on="0"/>
        <pt x="138" y="237" on="1"/>
        <pt x="138" y="95" on="0"/>
        <pt x="288" y="-82" on="0"/>
        <pt x="410" y="-82" on="1"/>
        <pt x="468" y="-82" on="0"/>
        <pt x="561" y="-53" on="0"/>
        <pt x="564" y="-53" on="1"/>
        <pt x="578" y="-53" on="0"/>
        <pt x="578" y="-76" on="1"/>
        <pt x="578" y="-102" on="0"/>
        <pt x="465" y="-126" on="0"/>
        <pt x="410" y="-126" on="1"/>
        <pt x="265" y="-126" on="0"/>
        <pt x="84" y="75" on="0"/>
      </contour>
      <contour>
        <pt x="351" y="241" on="1"/>
        <pt x="351" y="115" on="0"/>
        <pt x="439" y="115" on="1"/>
        <pt x="473" y="115" on="0"/>
        <pt x="543" y="181" on="0"/>
        <pt x="568" y="256" on="1"/>
        <pt x="581" y="390" on="0"/>
        <pt x="587" y="409" on="1"/>
        <pt x="546" y="443" on="0"/>
        <pt x="495" y="443" on="1"/>
        <pt x="351" y="443" on="0"/>
      </contour>
    </TTGlyph>
    <TTGlyph name="atilde" xMin="49" yMin="-6" xMax="477" yMax="708">
      <contour>
        <pt x="381" y="326" on="1"/>
        <pt x="381" y="373" on="1"/>
        <pt x="381" y="457" on="0"/>
        <pt x="271" y="457" on="1"/>
        <pt x="199" y="457" on="0"/>
        <pt x="138" y="426" on="1"/>
        <pt x="117" y="415" on="0"/>
        <pt x="115" y="415" on="1"/>
        <pt x="105" y="415" on="0"/>
        <pt x="80" y="455" on="0"/>
        <pt x="80" y="465" on="1"/>
        <pt x="80" y="486" on="0"/>
        <pt x="197" y="529" on="0"/>
        <pt x="361" y="529" on="0"/>
        <pt x="465" y="446" on="0"/>
        <pt x="465" y="372" on="1"/>
        <pt x="465" y="148" on="1"/>
        <pt x="465" y="88" on="0"/>
        <pt x="470" y="61" on="1"/>
        <pt x="477" y="24" on="0"/>
        <pt x="477" y="22" on="1"/>
        <pt x="477" y="10" on="0"/>
        <pt x="439" y="-1" on="0"/>
        <pt x="418" y="-1" on="0"/>
        <pt x="410" y="3" on="0"/>
        <pt x="403" y="13" on="0"/>
        <pt x="399" y="22" on="0"/>
        <pt x="395" y="38" on="0"/>
        <pt x="392" y="47" on="0"/>
        <pt x="389" y="66" on="0"/>
        <pt x="388" y="69" on="1"/>
        <pt x="320" y="-6" on="0"/>
        <pt x="220" y="-6" on="1"/>
        <pt x="143" y="-6" on="0"/>
        <pt x="49" y="70" on="0"/>
        <pt x="49" y="228" on="0"/>
        <pt x="158" y="307" on="0"/>
        <pt x="294" y="324" on="0"/>
      </contour>
      <contour>
        <pt x="139" y="149" on="1"/>
        <pt x="139" y="67" on="0"/>
        <pt x="224" y="67" on="1"/>
        <pt x="273" y="67" on="0"/>
        <pt x="344" y="103" on="0"/>
        <pt x="381" y="136" on="1"/>
        <pt x="381" y="254" on="1"/>
        <pt x="256" y="254" on="0"/>
        <pt x="220" y="240" on="1"/>
        <pt x="201" y="233" on="0"/>
        <pt x="180" y="222" on="1"/>
        <pt x="139" y="201" on="0"/>
      </contour>
      <contour>
        <pt x="291" y="615" on="0"/>
        <pt x="209" y="635" on="0"/>
        <pt x="183" y="635" on="0"/>
        <pt x="149" y="622" on="0"/>
        <pt x="127" y="622" on="0"/>
        <pt x="109" y="643" on="0"/>
        <pt x="109" y="652" on="1"/>
        <pt x="109" y="671" on="0"/>
        <pt x="177" y="708" on="0"/>
        <pt x="245" y="708" on="0"/>
        <pt x="326" y="688" on="0"/>
        <pt x="358" y="688" on="0"/>
        <pt x="389" y="701" on="0"/>
        <pt x="408" y="701" on="0"/>
        <pt x="427" y="679" on="0"/>
        <pt x="427" y="671" on="1"/>
        <pt x="427" y="652" on="0"/>
        <pt x="359" y="615" on="0"/>
      </contour>
    </TTGlyph>
    <TTGlyph name="b" xMin="85" yMin="-6" xMax="515" yMax="752">
      <contour>
        <pt x="85" y="20" on="1"/>
        <pt x="85" y="730" on="1"/>
        <pt x="85" y="752" on="0"/>
        <pt x="125" y="752" on="1"/>
        <pt x="129" y="752" on="1"/>
        <pt x="169" y="752" on="0"/>
        <pt x="169" y="730" on="1"/>
        <pt x="169" y="478" on="1"/>
        <pt x="235" y="529" on="0"/>
        <pt x="403" y="529" on="0"/>
        <pt x="515" y="390" on="0"/>
        <pt x="515" y="267" on="1"/>
        <pt x="515" y="258" on="1"/>
        <pt x="515" y="142" on="0"/>
        <pt x="410" y="-6" on="0"/>
        <pt x="234" y="-6" on="0"/>
        <pt x="162" y="69" on="1"/>
        <pt x="146" y="10" on="1"/>
        <pt x="141" y="-2" on="0"/>
        <pt x="119" y="-2" on="1"/>
        <pt x="115" y="-2" on="1"/>
        <pt x="85" y="-2" on="0"/>
      </contour>
      <contour>
        <pt x="169" y="136" on="1"/>
        <pt x="232" y="67" on="0"/>
        <pt x="298" y="67" on="1"/>
        <pt x="427" y="67" on="0"/>
        <pt x="427" y="269" on="1"/>
        <pt x="427" y="358" on="0"/>
        <pt x="360" y="454" on="0"/>
        <pt x="296" y="455" on="1"/>
        <pt x="290" y="455" on="1"/>
        <pt x="223" y="455" on="0"/>
        <pt x="169" y="410" on="1"/>
      </contour>
    </TTGlyph>
    <TTGlyph name="backslash" xMin="5" yMin="-20" xMax="357" yMax="702">
      <contour>
        <pt x="5" y="682" on="1"/>
        <pt x="5" y="702" on="0"/>
        <pt x="29" y="702" on="1"/>
        <pt x="33" y="702" on="1"/>
        <pt x="58" y="702" on="0"/>
        <pt x="68" y="679" on="1"/>
        <pt x="354" y="15" on="1"/>
        <pt x="357" y="8" on="0"/>
        <pt x="357" y="0" on="1"/>
        <pt x="357" y="-20" on="0"/>
        <pt x="331" y="-20" on="1"/>
        <pt x="327" y="-20" on="1"/>
        <pt x="304" y="-20" on="0"/>
        <pt x="294" y="3" on="1"/>
        <pt x="8" y="667" on="1"/>
        <pt x="5" y="674" on="0"/>
      </contour>
    </TTGlyph>
    <TTGlyph name="bar" xMin="96" yMin="-140" xMax="154" yMax="770">
      <contour>
        <pt x="96" y="-118" on="1"/>
        <pt x="96" y="748" on="1"/>
        <pt x="96" y="770" on="0"/>
        <pt x="120" y="770" on="1"/>
        <pt x="130" y="770" on="1"/>
        <pt x="154" y="770" on="0"/>
        <pt x="154" y="748" on="1"/>
        <pt x="154" y="-118" on="1"/>
        <pt x="154" y="-140" on="0"/>
        <pt x="130" y="-140" on="1"/>
        <pt x="120" y="-140" on="1"/>
        <pt x="96" y="-140" on="0"/>
      </contour>
    </TTGlyph>
    <TTGlyph name="braceleft" xMin="20" yMin="-138" xMax="244" yMax="768">
      <contour>
        <pt x="96" y="-22" on="1"/>
        <pt x="96" y="145" on="1"/>
        <pt x="96" y="200" on="0"/>
        <pt x="76" y="260" on="0"/>
        <pt x="20" y="285" on="0"/>
        <pt x="20" y="308" on="1"/>
        <pt x="20" y="322" on="1"/>
        <pt x="20" y="345" on="0"/>
        <pt x="76" y="370" on="0"/>
        <pt x="96" y="429" on="0"/>
        <pt x="96" y="485" on="1"/>
        <pt x="96" y="652" on="1"/>
        <pt x="96" y="715" on="0"/>
        <pt x="146" y="768" on="0"/>
        <pt x="174" y="768" on="1"/>
        <pt x="224" y="768" on="1"/>
        <pt x="244" y="768" on="0"/>
        <pt x="244" y="739" on="1"/>
        <pt x="244" y="735" on="1"/>
        <pt x="244" y="706" on="0"/>
        <pt x="224" y="706" on="1"/>
        <pt x="202" y="706" on="1"/>
        <pt x="182" y="706" on="0"/>
        <pt x="168" y="677" on="0"/>
        <pt x="168" y="645" on="1"/>
        <pt x="168" y="469" on="1"/>
        <pt x="168" y="369" on="0"/>
        <pt x="90" y="314" on="1"/>
        <pt x="102" y="308" on="0"/>
        <pt x="133" y="280" on="0"/>
        <pt x="168" y="207" on="0"/>
        <pt x="168" y="161" on="1"/>
        <pt x="168" y="-14" on="1"/>
        <pt x="168" y="-46" on="0"/>
        <pt x="182" y="-76" on="0"/>
        <pt x="202" y="-76" on="1"/>
        <pt x="224" y="-76" on="1"/>
        <pt x="244" y="-76" on="0"/>
        <pt x="244" y="-105" on="1"/>
        <pt x="244" y="-109" on="1"/>
        <pt x="244" y="-138" on="0"/>
        <pt x="224" y="-138" on="1"/>
        <pt x="174" y="-138" on="1"/>
        <pt x="146" y="-138" on="0"/>
        <pt x="96" y="-86" on="0"/>
      </contour>
    </TTGlyph>
    <TTGlyph name="braceright" xMin="30" yMin="-138" xMax="254" yMax="768">
      <contour>
        <pt x="50" y="-76" on="1"/>
        <pt x="72" y="-76" on="1"/>
        <pt x="92" y="-76" on="0"/>
        <pt x="106" y="-46" on="0"/>
        <pt x="106" y="-14" on="1"/>
        <pt x="106" y="161" on="1"/>
        <pt x="106" y="207" on="0"/>
        <pt x="141" y="280" on="0"/>
        <pt x="172" y="308" on="0"/>
        <pt x="184" y="314" on="1"/>
        <pt x="106" y="369" on="0"/>
        <pt x="106" y="469" on="1"/>
        <pt x="106" y="645" on="1"/>
        <pt x="106" y="677" on="0"/>
        <pt x="92" y="706" on="0"/>
        <pt x="72" y="706" on="1"/>
        <pt x="50" y="706" on="1"/>
        <pt x="30" y="706" on="0"/>
        <pt x="30" y="735" on="1"/>
        <pt x="30" y="739" on="1"/>
        <pt x="30" y="768" on="0"/>
        <pt x="50" y="768" on="1"/>
        <pt x="100" y="768" on="1"/>
        <pt x="128" y="768" on="0"/>
        <pt x="178" y="715" on="0"/>
        <pt x="178" y="652" on="1"/>
        <pt x="178" y="485" on="1"/>
        <pt x="178" y="429" on="0"/>
        <pt x="198" y="370" on="0"/>
        <pt x="254" y="345" on="0"/>
        <pt x="254" y="322" on="1"/>
        <pt x="254" y="308" on="1"/>
        <pt x="254" y="285" on="0"/>
        <pt x="198" y="260" on="0"/>
        <pt x="178" y="200" on="0"/>
        <pt x="178" y="145" on="1"/>
        <pt x="178" y="-22" on="1"/>
        <pt x="178" y="-86" on="0"/>
        <pt x="128" y="-138" on="0"/>
        <pt x="100" y="-138" on="1"/>
        <pt x="50" y="-138" on="1"/>
        <pt x="30" y="-138" on="0"/>
        <pt x="30" y="-109" on="1"/>
        <pt x="30" y="-105" on="1"/>
        <pt x="30" y="-76" on="0"/>
      </contour>
    </TTGlyph>
    <TTGlyph name="bracketleft" xMin="90" yMin="-138" xMax="261" yMax="768">
      <contour>
        <pt x="90" y="-108" on="1"/>
        <pt x="90" y="738" on="1"/>
        <pt x="90" y="768" on="0"/>
        <pt x="120" y="768" on="1"/>
        <pt x="241" y="768" on="1"/>
        <pt x="261" y="768" on="0"/>
        <pt x="261" y="739" on="1"/>
        <pt x="261" y="734" on="1"/>
        <pt x="261" y="705" on="0"/>
        <pt x="241" y="705" on="1"/>
        <pt x="164" y="705" on="1"/>
        <pt x="164" y="-76" on="1"/>
        <pt x="241" y="-76" on="1"/>
        <pt x="261" y="-76" on="0"/>
        <pt x="261" y="-105" on="1"/>
        <pt x="261" y="-109" on="1"/>
        <pt x="261" y="-138" on="0"/>
        <pt x="241" y="-138" on="1"/>
        <pt x="120" y="-138" on="1"/>
        <pt x="90" y="-138" on="0"/>
      </contour>
    </TTGlyph>
    <TTGlyph name="bracketright" xMin="30" yMin="-138" xMax="201" yMax="768">
      <contour>
        <pt x="50" y="-76" on="1"/>
        <pt x="127" y="-76" on="1"/>
        <pt x="127" y="705" on="1"/>
        <pt x="50" y="705" on="1"/>
        <pt x="30" y="705" on="0"/>
        <pt x="30" y="734" on="1"/>
        <pt x="30" y="739" on="1"/>
        <pt x="30" y="768" on="0"/>
        <pt x="50" y="768" on="1"/>
        <pt x="171" y="768" on="1"/>
        <pt x="201" y="768" on="0"/>
        <pt x="201" y="738" on="1"/>
        <pt x="201" y="-108" on="1"/>
        <pt x="201" y="-138" on="0"/>
        <pt x="171" y="-138" on="1"/>
        <pt x="50" y="-138" on="1"/>
        <pt x="30" y="-138" on="0"/>
        <pt x="30" y="-109" on="1"/>
        <pt x="30" y="-105" on="1"/>
        <pt x="30" y="-76" on="0"/>
      </contour>
    </TTGlyph>
    <TTGlyph name="breve" xMin="13" yMin="585" xMax="302" yMax="715">
      <contour>
        <pt x="302" y="646" on="0"/>
        <pt x="216" y="585" on="0"/>
        <pt x="99" y="585" on="0"/>
        <pt x="13" y="646" on="0"/>
        <pt x="13" y="700" on="1"/>
        <pt x="13" y="715" on="0"/>
        <pt x="28" y="715" on="1"/>
        <pt x="39" y="715" on="0"/>
        <pt x="41" y="710" on="1"/>
        <pt x="47" y="696" on="0"/>
        <pt x="50" y="690" on="1"/>
        <pt x="71" y="651" on="0"/>
        <pt x="158" y="651" on="1"/>
        <pt x="253" y="651" on="0"/>
        <pt x="268" y="698" on="1"/>
        <pt x="273" y="712" on="0"/>
        <pt x="282" y="715" on="0"/>
        <pt x="287" y="715" on="1"/>
        <pt x="302" y="715" on="0"/>
        <pt x="302" y="700" on="1"/>
      </contour>
    </TTGlyph>
    <TTGlyph name="brokenbar" xMin="96" yMin="-140" xMax="154" yMax="770">
      <contour>
        <pt x="120" y="403" on="1"/>
        <pt x="96" y="403" on="0"/>
        <pt x="96" y="425" on="1"/>
        <pt x="96" y="748" on="1"/>
        <pt x="96" y="770" on="0"/>
        <pt x="120" y="770" on="1"/>
        <pt x="130" y="770" on="1"/>
        <pt x="154" y="770" on="0"/>
        <pt x="154" y="748" on="1"/>
        <pt x="154" y="425" on="1"/>
        <pt x="154" y="403" on="0"/>
        <pt x="130" y="403" on="1"/>
      </contour>
      <contour>
        <pt x="96" y="-118" on="1"/>
        <pt x="96" y="204" on="1"/>
        <pt x="96" y="226" on="0"/>
        <pt x="120" y="226" on="1"/>
        <pt x="130" y="226" on="1"/>
        <pt x="154" y="226" on="0"/>
        <pt x="154" y="204" on="1"/>
        <pt x="154" y="-118" on="1"/>
        <pt x="154" y="-140" on="0"/>
        <pt x="130" y="-140" on="1"/>
        <pt x="120" y="-140" on="1"/>
        <pt x="96" y="-140" on="0"/>
      </contour>
    </TTGlyph>
    <TTGlyph name="bullet" xMin="42" yMin="201" xMax="293" yMax="452">
      <contour>
        <pt x="220" y="201" on="0"/>
        <pt x="114" y="201" on="0"/>
        <pt x="42" y="274" on="0"/>
        <pt x="42" y="379" on="0"/>
        <pt x="115" y="452" on="0"/>
        <pt x="220" y="452" on="0"/>
        <pt x="293" y="378" on="0"/>
        <pt x="293" y="274" on="0"/>
      </contour>
    </TTGlyph>
    <TTGlyph name="c" xMin="52" yMin="-6" xMax="455" yMax="529">
      <contour>
        <pt x="52" y="264" on="1"/>
        <pt x="52" y="339" on="0"/>
        <pt x="93" y="447" on="0"/>
        <pt x="128" y="476" on="1"/>
        <pt x="194" y="529" on="0"/>
        <pt x="289" y="529" on="1"/>
        <pt x="347" y="529" on="0"/>
        <pt x="439" y="501" on="0"/>
        <pt x="439" y="483" on="1"/>
        <pt x="439" y="470" on="0"/>
        <pt x="416" y="429" on="0"/>
        <pt x="407" y="429" on="1"/>
        <pt x="406" y="429" on="0"/>
        <pt x="401" y="431" on="0"/>
        <pt x="398" y="432" on="0"/>
        <pt x="396" y="433" on="1"/>
        <pt x="342" y="457" on="0"/>
        <pt x="287" y="457" on="1"/>
        <pt x="142" y="457" on="0"/>
        <pt x="142" y="266" on="1"/>
        <pt x="142" y="160" on="0"/>
        <pt x="213" y="66" on="0"/>
        <pt x="297" y="66" on="1"/>
        <pt x="358" y="66" on="0"/>
        <pt x="410" y="92" on="1"/>
        <pt x="413" y="93" on="0"/>
        <pt x="420" y="96" on="0"/>
        <pt x="421" y="96" on="1"/>
        <pt x="431" y="96" on="0"/>
        <pt x="455" y="57" on="0"/>
        <pt x="455" y="45" on="1"/>
        <pt x="455" y="27" on="0"/>
        <pt x="361" y="-6" on="0"/>
        <pt x="298" y="-6" on="1"/>
        <pt x="174" y="-6" on="0"/>
        <pt x="52" y="122" on="0"/>
      </contour>
    </TTGlyph>
    <TTGlyph name="caron" xMin="35" yMin="582" xMax="277" yMax="724">
      <contour>
        <pt x="143" y="582" on="1"/>
        <pt x="112" y="582" on="0"/>
        <pt x="97" y="604" on="1"/>
        <pt x="41" y="692" on="1"/>
        <pt x="35" y="702" on="0"/>
        <pt x="35" y="710" on="1"/>
        <pt x="35" y="724" on="0"/>
        <pt x="80" y="724" on="0"/>
        <pt x="94" y="711" on="1"/>
        <pt x="155" y="637" on="1"/>
        <pt x="218" y="711" on="1"/>
        <pt x="232" y="724" on="0"/>
        <pt x="277" y="724" on="0"/>
        <pt x="277" y="709" on="1"/>
        <pt x="277" y="701" on="0"/>
        <pt x="271" y="692" on="1"/>
        <pt x="214" y="604" on="1"/>
        <pt x="199" y="582" on="0"/>
        <pt x="168" y="582" on="1"/>
      </contour>
    </TTGlyph>
    <TTGlyph name="ccedilla" xMin="52" yMin="-210" xMax="455" yMax="529">
      <contour>
        <pt x="52" y="264" on="1"/>
        <pt x="52" y="339" on="0"/>
        <pt x="93" y="447" on="0"/>
        <pt x="128" y="476" on="1"/>
        <pt x="194" y="529" on="0"/>
        <pt x="289" y="529" on="1"/>
        <pt x="347" y="529" on="0"/>
        <pt x="439" y="501" on="0"/>
        <pt x="439" y="483" on="1"/>
        <pt x="439" y="470" on="0"/>
        <pt x="416" y="429" on="0"/>
        <pt x="407" y="429" on="1"/>
        <pt x="406" y="429" on="0"/>
        <pt x="401" y="431" on="0"/>
        <pt x="398" y="432" on="0"/>
        <pt x="396" y="433" on="1"/>
        <pt x="342" y="457" on="0"/>
        <pt x="287" y="457" on="1"/>
        <pt x="142" y="457" on="0"/>
        <pt x="142" y="266" on="1"/>
        <pt x="142" y="160" on="0"/>
        <pt x="213" y="66" on="0"/>
        <pt x="297" y="66" on="1"/>
        <pt x="358" y="66" on="0"/>
        <pt x="410" y="92" on="1"/>
        <pt x="413" y="93" on="0"/>
        <pt x="420" y="96" on="0"/>
        <pt x="421" y="96" on="1"/>
        <pt x="431" y="96" on="0"/>
        <pt x="455" y="57" on="0"/>
        <pt x="455" y="45" on="1"/>
        <pt x="455" y="27" on="0"/>
        <pt x="361" y="-6" on="0"/>
        <pt x="298" y="-6" on="1"/>
        <pt x="294" y="-6" on="1"/>
        <pt x="282" y="-49" on="1"/>
        <pt x="286" y="-49" on="1"/>
        <pt x="302" y="-49" on="0"/>
        <pt x="335" y="-56" on="0"/>
        <pt x="371" y="-91" on="0"/>
        <pt x="371" y="-121" on="1"/>
        <pt x="371" y="-210" on="0"/>
        <pt x="256" y="-210" on="1"/>
        <pt x="217" y="-210" on="0"/>
        <pt x="141" y="-186" on="0"/>
        <pt x="141" y="-167" on="1"/>
        <pt x="141" y="-141" on="0"/>
        <pt x="160" y="-141" on="1"/>
        <pt x="165" y="-141" on="0"/>
        <pt x="221" y="-161" on="0"/>
        <pt x="243" y="-161" on="1"/>
        <pt x="300" y="-161" on="0"/>
        <pt x="300" y="-126" on="1"/>
        <pt x="300" y="-107" on="0"/>
        <pt x="267" y="-89" on="0"/>
        <pt x="234" y="-79" on="0"/>
        <pt x="234" y="-68" on="1"/>
        <pt x="234" y="-66" on="0"/>
        <pt x="236" y="-56" on="1"/>
        <pt x="252" y="-3" on="1"/>
        <pt x="151" y="7" on="0"/>
        <pt x="52" y="136" on="0"/>
      </contour>
    </TTGlyph>
    <TTGlyph name="cedilla" xMin="45" yMin="-210" xMax="275" yMax="0">
      <contour>
        <pt x="190" y="-49" on="1"/>
        <pt x="206" y="-49" on="0"/>
        <pt x="239" y="-56" on="0"/>
        <pt x="275" y="-91" on="0"/>
        <pt x="275" y="-121" on="1"/>
        <pt x="275" y="-210" on="0"/>
        <pt x="160" y="-210" on="1"/>
        <pt x="121" y="-210" on="0"/>
        <pt x="45" y="-186" on="0"/>
        <pt x="45" y="-167" on="1"/>
        <pt x="45" y="-141" on="0"/>
        <pt x="64" y="-141" on="1"/>
        <pt x="69" y="-141" on="0"/>
        <pt x="125" y="-161" on="0"/>
        <pt x="147" y="-161" on="1"/>
        <pt x="204" y="-161" on="0"/>
        <pt x="204" y="-126" on="1"/>
        <pt x="204" y="-107" on="0"/>
        <pt x="171" y="-89" on="0"/>
        <pt x="138" y="-79" on="0"/>
        <pt x="138" y="-68" on="1"/>
        <pt x="138" y="-66" on="0"/>
        <pt x="140" y="-56" on="1"/>
        <pt x="157" y="0" on="1"/>
        <pt x="200" y="0" on="1"/>
        <pt x="186" y="-49" on="1"/>
      </contour>
    </TTGlyph>
    <TTGlyph name="cent" xMin="55" yMin="-75" xMax="450" yMax="583">
      <contour>
        <pt x="55" y="264" on="1"/>
        <pt x="55" y="335" on="0"/>
        <pt x="91" y="440" on="0"/>
        <pt x="122" y="468" on="1"/>
        <pt x="182" y="524" on="0"/>
        <pt x="269" y="528" on="1"/>
        <pt x="269" y="567" on="1"/>
        <pt x="269" y="583" on="0"/>
        <pt x="309" y="583" on="0"/>
        <pt x="309" y="567" on="1"/>
        <pt x="309" y="528" on="1"/>
        <pt x="359" y="526" on="0"/>
        <pt x="434" y="499" on="0"/>
        <pt x="434" y="483" on="1"/>
        <pt x="434" y="470" on="0"/>
        <pt x="411" y="429" on="0"/>
        <pt x="402" y="429" on="1"/>
        <pt x="401" y="429" on="0"/>
        <pt x="389" y="434" on="1"/>
        <pt x="349" y="453" on="0"/>
        <pt x="309" y="456" on="1"/>
        <pt x="309" y="66" on="1"/>
        <pt x="357" y="70" on="0"/>
        <pt x="400" y="90" on="1"/>
        <pt x="414" y="96" on="0"/>
        <pt x="416" y="96" on="1"/>
        <pt x="426" y="96" on="0"/>
        <pt x="450" y="57" on="0"/>
        <pt x="450" y="45" on="1"/>
        <pt x="450" y="28" on="0"/>
        <pt x="366" y="-4" on="0"/>
        <pt x="309" y="-6" on="1"/>
        <pt x="309" y="-59" on="1"/>
        <pt x="309" y="-75" on="0"/>
        <pt x="269" y="-75" on="0"/>
        <pt x="269" y="-59" on="1"/>
        <pt x="269" y="-5" on="1"/>
        <pt x="161" y="1" on="0"/>
        <pt x="55" y="130" on="0"/>
      </contour>
      <contour>
        <pt x="144" y="266" on="1"/>
        <pt x="144" y="168" on="0"/>
        <pt x="202" y="74" on="0"/>
        <pt x="269" y="67" on="1"/>
        <pt x="269" y="456" on="1"/>
        <pt x="144" y="444" on="0"/>
      </contour>
    </TTGlyph>
    <TTGlyph name="circumflex" xMin="36" yMin="584" xMax="278" yMax="726">
      <contour>
        <pt x="95" y="597" on="1"/>
        <pt x="81" y="584" on="0"/>
        <pt x="36" y="584" on="0"/>
        <pt x="36" y="598" on="1"/>
        <pt x="36" y="606" on="0"/>
        <pt x="42" y="616" on="1"/>
        <pt x="98" y="704" on="1"/>
        <pt x="113" y="726" on="0"/>
        <pt x="144" y="726" on="1"/>
        <pt x="169" y="726" on="1"/>
        <pt x="200" y="726" on="0"/>
        <pt x="215" y="704" on="1"/>
        <pt x="272" y="616" on="1"/>
        <pt x="278" y="607" on="0"/>
        <pt x="278" y="599" on="1"/>
        <pt x="278" y="584" on="0"/>
        <pt x="233" y="584" on="0"/>
        <pt x="219" y="597" on="1"/>
        <pt x="156" y="671" on="1"/>
      </contour>
    </TTGlyph>
    <TTGlyph name="colon" xMin="51" yMin="-2" xMax="148" yMax="525">
      <contour>
        <pt x="91" y="415" on="1"/>
        <pt x="51" y="415" on="0"/>
        <pt x="51" y="437" on="1"/>
        <pt x="51" y="503" on="1"/>
        <pt x="51" y="525" on="0"/>
        <pt x="91" y="525" on="1"/>
        <pt x="108" y="525" on="1"/>
        <pt x="148" y="525" on="0"/>
        <pt x="148" y="503" on="1"/>
        <pt x="148" y="437" on="1"/>
        <pt x="148" y="415" on="0"/>
        <pt x="108" y="415" on="1"/>
      </contour>
      <contour>
        <pt x="51" y="20" on="1"/>
        <pt x="51" y="86" on="1"/>
        <pt x="51" y="108" on="0"/>
        <pt x="91" y="108" on="1"/>
        <pt x="108" y="108" on="1"/>
        <pt x="148" y="108" on="0"/>
        <pt x="148" y="86" on="1"/>
        <pt x="148" y="20" on="1"/>
        <pt x="148" y="-2" on="0"/>
        <pt x="108" y="-2" on="1"/>
        <pt x="91" y="-2" on="1"/>
        <pt x="51" y="-2" on="0"/>
      </contour>
    </TTGlyph>
    <TTGlyph name="comma" xMin="12" yMin="-116" xMax="144" yMax="108">
      <contour>
        <pt x="55" y="76" on="1"/>
        <pt x="55" y="108" on="0"/>
        <pt x="95" y="108" on="1"/>
        <pt x="104" y="108" on="1"/>
        <pt x="144" y="108" on="0"/>
        <pt x="144" y="80" on="1"/>
        <pt x="144" y="-1" on="0"/>
        <pt x="71" y="-116" on="0"/>
        <pt x="12" y="-116" on="0"/>
        <pt x="12" y="-101" on="1"/>
        <pt x="12" y="-95" on="0"/>
        <pt x="21" y="-77" on="1"/>
        <pt x="55" y="-9" on="0"/>
      </contour>
    </TTGlyph>
    <TTGlyph name="copyright" xMin="10" yMin="-5" xMax="729" yMax="710">
      <contour>
        <pt x="10" y="205" on="0"/>
        <pt x="10" y="503" on="0"/>
        <pt x="219" y="710" on="0"/>
        <pt x="519" y="710" on="0"/>
        <pt x="729" y="503" on="0"/>
        <pt x="729" y="205" on="0"/>
        <pt x="518" y="-5" on="0"/>
        <pt x="220" y="-5" on="0"/>
      </contour>
      <contour>
        <pt x="240" y="662" on="0"/>
        <pt x="58" y="483" on="0"/>
        <pt x="58" y="226" on="0"/>
        <pt x="241" y="43" on="0"/>
        <pt x="498" y="43" on="0"/>
        <pt x="681" y="226" on="0"/>
        <pt x="681" y="483" on="0"/>
        <pt x="498" y="662" on="0"/>
      </contour>
      <contour>
        <pt x="193" y="349" on="1"/>
        <pt x="193" y="562" on="0"/>
        <pt x="387" y="562" on="1"/>
        <pt x="430" y="562" on="0"/>
        <pt x="501" y="538" on="0"/>
        <pt x="501" y="525" on="1"/>
        <pt x="501" y="517" on="0"/>
        <pt x="486" y="490" on="0"/>
        <pt x="480" y="490" on="1"/>
        <pt x="479" y="490" on="0"/>
        <pt x="468" y="497" on="1"/>
        <pt x="435" y="517" on="0"/>
        <pt x="388" y="517" on="1"/>
        <pt x="316" y="517" on="0"/>
        <pt x="247" y="436" on="0"/>
        <pt x="247" y="263" on="0"/>
        <pt x="315" y="182" on="0"/>
        <pt x="385" y="182" on="1"/>
        <pt x="434" y="182" on="0"/>
        <pt x="473" y="204" on="1"/>
        <pt x="486" y="212" on="0"/>
        <pt x="488" y="212" on="1"/>
        <pt x="494" y="212" on="0"/>
        <pt x="509" y="186" on="0"/>
        <pt x="509" y="180" on="1"/>
        <pt x="509" y="167" on="0"/>
        <pt x="434" y="137" on="0"/>
        <pt x="385" y="137" on="1"/>
        <pt x="287" y="137" on="0"/>
        <pt x="193" y="241" on="0"/>
      </contour>
    </TTGlyph>
    <TTGlyph name="currency" xMin="85" yMin="143" xMax="441" yMax="501">
      <contour>
        <pt x="134" y="153" on="1"/>
        <pt x="124" y="143" on="0"/>
        <pt x="103" y="143" on="0"/>
        <pt x="85" y="161" on="0"/>
        <pt x="85" y="182" on="0"/>
        <pt x="96" y="193" on="1"/>
        <pt x="120" y="217" on="1"/>
        <pt x="86" y="262" on="0"/>
        <pt x="86" y="381" on="0"/>
        <pt x="120" y="427" on="1"/>
        <pt x="96" y="450" on="1"/>
        <pt x="86" y="460" on="0"/>
        <pt x="86" y="481" on="0"/>
        <pt x="102" y="501" on="0"/>
        <pt x="124" y="501" on="0"/>
        <pt x="134" y="489" on="1"/>
        <pt x="158" y="465" on="1"/>
        <pt x="206" y="500" on="0"/>
        <pt x="320" y="500" on="0"/>
        <pt x="367" y="466" on="1"/>
        <pt x="391" y="490" on="1"/>
        <pt x="401" y="500" on="0"/>
        <pt x="420" y="500" on="0"/>
        <pt x="441" y="481" on="0"/>
        <pt x="441" y="461" on="0"/>
        <pt x="430" y="450" on="1"/>
        <pt x="406" y="426" on="1"/>
        <pt x="441" y="380" on="0"/>
        <pt x="441" y="263" on="0"/>
        <pt x="406" y="217" on="1"/>
        <pt x="430" y="193" on="1"/>
        <pt x="441" y="182" on="0"/>
        <pt x="441" y="163" on="0"/>
        <pt x="422" y="143" on="0"/>
        <pt x="401" y="143" on="0"/>
        <pt x="391" y="154" on="1"/>
        <pt x="367" y="178" on="1"/>
        <pt x="320" y="145" on="0"/>
        <pt x="205" y="145" on="0"/>
        <pt x="159" y="178" on="1"/>
      </contour>
      <contour>
        <pt x="215" y="206" on="0"/>
        <pt x="311" y="206" on="0"/>
        <pt x="380" y="274" on="0"/>
        <pt x="380" y="370" on="0"/>
        <pt x="311" y="439" on="0"/>
        <pt x="215" y="439" on="0"/>
        <pt x="147" y="370" on="0"/>
        <pt x="147" y="274" on="0"/>
      </contour>
    </TTGlyph>
    <TTGlyph name="d" xMin="52" yMin="-6" xMax="494" yMax="752">
      <contour>
        <pt x="405" y="69" on="1"/>
        <pt x="333" y="-6" on="0"/>
        <pt x="157" y="-6" on="0"/>
        <pt x="52" y="142" on="0"/>
        <pt x="52" y="258" on="1"/>
        <pt x="52" y="267" on="1"/>
        <pt x="52" y="390" on="0"/>
        <pt x="164" y="529" on="0"/>
        <pt x="332" y="529" on="0"/>
        <pt x="398" y="478" on="1"/>
        <pt x="398" y="730" on="1"/>
        <pt x="398" y="752" on="0"/>
        <pt x="438" y="752" on="1"/>
        <pt x="442" y="752" on="1"/>
        <pt x="482" y="752" on="0"/>
        <pt x="482" y="730" on="1"/>
        <pt x="482" y="148" on="1"/>
        <pt x="482" y="88" on="0"/>
        <pt x="487" y="61" on="1"/>
        <pt x="494" y="24" on="0"/>
        <pt x="494" y="22" on="1"/>
        <pt x="494" y="10" on="0"/>
        <pt x="456" y="-1" on="0"/>
        <pt x="435" y="-1" on="0"/>
        <pt x="427" y="3" on="0"/>
        <pt x="420" y="13" on="0"/>
        <pt x="416" y="22" on="0"/>
        <pt x="412" y="38" on="0"/>
        <pt x="409" y="47" on="0"/>
        <pt x="406" y="66" on="0"/>
      </contour>
      <contour>
        <pt x="140" y="269" on="1"/>
        <pt x="140" y="67" on="0"/>
        <pt x="270" y="67" on="1"/>
        <pt x="335" y="67" on="0"/>
        <pt x="398" y="136" on="1"/>
        <pt x="398" y="410" on="1"/>
        <pt x="344" y="455" on="0"/>
        <pt x="277" y="455" on="1"/>
        <pt x="271" y="455" on="1"/>
        <pt x="207" y="454" on="0"/>
        <pt x="140" y="358" on="0"/>
      </contour>
    </TTGlyph>
    <TTGlyph name="dagger" xMin="49" yMin="-140" xMax="486" yMax="702">
      <contour>
        <pt x="227" y="-118" on="1"/>
        <pt x="227" y="422" on="1"/>
        <pt x="69" y="422" on="1"/>
        <pt x="49" y="422" on="0"/>
        <pt x="49" y="452" on="1"/>
        <pt x="49" y="472" on="1"/>
        <pt x="49" y="502" on="0"/>
        <pt x="69" y="502" on="1"/>
        <pt x="227" y="502" on="1"/>
        <pt x="227" y="680" on="1"/>
        <pt x="227" y="702" on="0"/>
        <pt x="309" y="702" on="0"/>
        <pt x="309" y="680" on="1"/>
        <pt x="309" y="502" on="1"/>
        <pt x="466" y="502" on="1"/>
        <pt x="486" y="502" on="0"/>
        <pt x="486" y="472" on="1"/>
        <pt x="486" y="452" on="1"/>
        <pt x="486" y="422" on="0"/>
        <pt x="466" y="422" on="1"/>
        <pt x="309" y="422" on="1"/>
        <pt x="309" y="-118" on="1"/>
        <pt x="309" y="-140" on="0"/>
        <pt x="227" y="-140" on="0"/>
      </contour>
    </TTGlyph>
    <TTGlyph name="daggerdbl" xMin="49" yMin="-140" xMax="486" yMax="702">
      <contour>
        <pt x="69" y="60" on="1"/>
        <pt x="49" y="60" on="0"/>
        <pt x="49" y="90" on="1"/>
        <pt x="49" y="110" on="1"/>
        <pt x="49" y="140" on="0"/>
        <pt x="69" y="140" on="1"/>
        <pt x="227" y="140" on="1"/>
        <pt x="227" y="422" on="1"/>
        <pt x="69" y="422" on="1"/>
        <pt x="49" y="422" on="0"/>
        <pt x="49" y="452" on="1"/>
        <pt x="49" y="472" on="1"/>
        <pt x="49" y="502" on="0"/>
        <pt x="69" y="502" on="1"/>
        <pt x="227" y="502" on="1"/>
        <pt x="227" y="680" on="1"/>
        <pt x="227" y="702" on="0"/>
        <pt x="309" y="702" on="0"/>
        <pt x="309" y="680" on="1"/>
        <pt x="309" y="502" on="1"/>
        <pt x="466" y="502" on="1"/>
        <pt x="486" y="502" on="0"/>
        <pt x="486" y="472" on="1"/>
        <pt x="486" y="452" on="1"/>
        <pt x="486" y="422" on="0"/>
        <pt x="466" y="422" on="1"/>
        <pt x="309" y="422" on="1"/>
        <pt x="309" y="140" on="1"/>
        <pt x="466" y="140" on="1"/>
        <pt x="486" y="140" on="0"/>
        <pt x="486" y="110" on="1"/>
        <pt x="486" y="90" on="1"/>
        <pt x="486" y="60" on="0"/>
        <pt x="466" y="60" on="1"/>
        <pt x="309" y="60" on="1"/>
        <pt x="309" y="-118" on="1"/>
        <pt x="309" y="-140" on="0"/>
        <pt x="227" y="-140" on="0"/>
        <pt x="227" y="-118" on="1"/>
        <pt x="227" y="60" on="1"/>
      </contour>
    </TTGlyph>
    <TTGlyph name="degree" xMin="38" yMin="441" xMax="303" yMax="706">
      <contour>
        <pt x="225" y="441" on="0"/>
        <pt x="115" y="441" on="0"/>
        <pt x="38" y="518" on="0"/>
        <pt x="38" y="628" on="0"/>
        <pt x="115" y="706" on="0"/>
        <pt x="225" y="706" on="0"/>
        <pt x="303" y="628" on="0"/>
        <pt x="303" y="518" on="0"/>
      </contour>
      <contour>
        <pt x="87" y="537" on="0"/>
        <pt x="136" y="486" on="0"/>
        <pt x="205" y="486" on="0"/>
        <pt x="254" y="537" on="0"/>
        <pt x="254" y="609" on="0"/>
        <pt x="204" y="661" on="0"/>
        <pt x="136" y="661" on="0"/>
        <pt x="87" y="609" on="0"/>
      </contour>
    </TTGlyph>
    <TTGlyph name="dieresis" xMin="47" yMin="607" xMax="275" yMax="702">
      <contour>
        <pt x="231" y="607" on="1"/>
        <pt x="191" y="607" on="0"/>
        <pt x="191" y="629" on="1"/>
        <pt x="191" y="680" on="1"/>
        <pt x="191" y="702" on="0"/>
        <pt x="231" y="702" on="1"/>
        <pt x="235" y="702" on="1"/>
        <pt x="275" y="702" on="0"/>
        <pt x="275" y="680" on="1"/>
        <pt x="275" y="629" on="1"/>
        <pt x="275" y="607" on="0"/>
        <pt x="235" y="607" on="1"/>
      </contour>
      <contour>
        <pt x="87" y="607" on="1"/>
        <pt x="47" y="607" on="0"/>
        <pt x="47" y="629" on="1"/>
        <pt x="47" y="680" on="1"/>
        <pt x="47" y="702" on="0"/>
        <pt x="87" y="702" on="1"/>
        <pt x="91" y="702" on="1"/>
        <pt x="131" y="702" on="0"/>
        <pt x="131" y="680" on="1"/>
        <pt x="131" y="629" on="1"/>
        <pt x="131" y="607" on="0"/>
        <pt x="91" y="607" on="1"/>
      </contour>
    </TTGlyph>
    <TTGlyph name="divide" xMin="48" yMin="-2" xMax="512" yMax="463">
      <contour>
        <pt x="238" y="390" on="1"/>
        <pt x="238" y="441" on="1"/>
        <pt x="238" y="463" on="0"/>
        <pt x="278" y="463" on="1"/>
        <pt x="282" y="463" on="1"/>
        <pt x="322" y="463" on="0"/>
        <pt x="322" y="441" on="1"/>
        <pt x="322" y="390" on="1"/>
        <pt x="322" y="368" on="0"/>
        <pt x="282" y="368" on="1"/>
        <pt x="278" y="368" on="1"/>
        <pt x="238" y="368" on="0"/>
      </contour>
      <contour>
        <pt x="78" y="197" on="1"/>
        <pt x="48" y="197" on="0"/>
        <pt x="48" y="227" on="1"/>
        <pt x="48" y="234" on="1"/>
        <pt x="48" y="264" on="0"/>
        <pt x="78" y="264" on="1"/>
        <pt x="482" y="264" on="1"/>
        <pt x="512" y="264" on="0"/>
        <pt x="512" y="234" on="1"/>
        <pt x="512" y="227" on="1"/>
        <pt x="512" y="197" on="0"/>
        <pt x="482" y="197" on="1"/>
      </contour>
      <contour>
        <pt x="238" y="20" on="1"/>
        <pt x="238" y="71" on="1"/>
        <pt x="238" y="93" on="0"/>
        <pt x="278" y="93" on="1"/>
        <pt x="282" y="93" on="1"/>
        <pt x="322" y="93" on="0"/>
        <pt x="322" y="71" on="1"/>
        <pt x="322" y="20" on="1"/>
        <pt x="322" y="-2" on="0"/>
        <pt x="282" y="-2" on="1"/>
        <pt x="278" y="-2" on="1"/>
        <pt x="238" y="-2" on="0"/>
      </contour>
    </TTGlyph>
    <TTGlyph name="dollar" xMin="35" yMin="-71" xMax="464" yMax="758">
      <contour>
        <pt x="35" y="67" on="1"/>
        <pt x="35" y="79" on="0"/>
        <pt x="62" y="121" on="0"/>
        <pt x="70" y="121" on="1"/>
        <pt x="73" y="121" on="0"/>
        <pt x="115" y="95" on="0"/>
        <pt x="190" y="67" on="0"/>
        <pt x="233" y="66" on="1"/>
        <pt x="233" y="324" on="1"/>
        <pt x="195" y="339" on="0"/>
        <pt x="162" y="353" on="0"/>
        <pt x="101" y="389" on="0"/>
        <pt x="86" y="407" on="1"/>
        <pt x="48" y="455" on="0"/>
        <pt x="48" y="595" on="0"/>
        <pt x="148" y="691" on="0"/>
        <pt x="233" y="700" on="1"/>
        <pt x="233" y="742" on="1"/>
        <pt x="233" y="758" on="0"/>
        <pt x="273" y="758" on="0"/>
        <pt x="273" y="742" on="1"/>
        <pt x="273" y="702" on="1"/>
        <pt x="323" y="701" on="0"/>
        <pt x="431" y="668" on="0"/>
        <pt x="431" y="645" on="1"/>
        <pt x="431" y="634" on="0"/>
        <pt x="406" y="592" on="0"/>
        <pt x="394" y="592" on="0"/>
        <pt x="378" y="601" on="1"/>
        <pt x="329" y="628" on="0"/>
        <pt x="273" y="630" on="1"/>
        <pt x="273" y="397" on="1"/>
        <pt x="319" y="381" on="0"/>
        <pt x="366" y="359" on="0"/>
        <pt x="400" y="335" on="1"/>
        <pt x="464" y="289" on="0"/>
        <pt x="464" y="106" on="0"/>
        <pt x="362" y="3" on="0"/>
        <pt x="273" y="-5" on="1"/>
        <pt x="273" y="-55" on="1"/>
        <pt x="273" y="-71" on="0"/>
        <pt x="233" y="-71" on="0"/>
        <pt x="233" y="-55" on="1"/>
        <pt x="233" y="-6" on="1"/>
        <pt x="154" y="-4" on="0"/>
        <pt x="35" y="45" on="0"/>
      </contour>
      <contour>
        <pt x="189" y="619" on="0"/>
        <pt x="139" y="564" on="0"/>
        <pt x="139" y="479" on="0"/>
        <pt x="187" y="431" on="0"/>
        <pt x="233" y="412" on="1"/>
        <pt x="233" y="627" on="1"/>
      </contour>
      <contour>
        <pt x="318" y="77" on="0"/>
        <pt x="373" y="143" on="0"/>
        <pt x="373" y="234" on="0"/>
        <pt x="321" y="287" on="0"/>
        <pt x="273" y="308" on="1"/>
        <pt x="273" y="69" on="1"/>
      </contour>
    </TTGlyph>
    <TTGlyph name="dotaccent" xMin="120" yMin="607" xMax="204" yMax="702">
      <contour>
        <pt x="160" y="607" on="1"/>
        <pt x="120" y="607" on="0"/>
        <pt x="120" y="629" on="1"/>
        <pt x="120" y="680" on="1"/>
        <pt x="120" y="702" on="0"/>
        <pt x="160" y="702" on="1"/>
        <pt x="164" y="702" on="1"/>
        <pt x="204" y="702" on="0"/>
        <pt x="204" y="680" on="1"/>
        <pt x="204" y="629" on="1"/>
        <pt x="204" y="607" on="0"/>
        <pt x="164" y="607" on="1"/>
      </contour>
    </TTGlyph>
    <TTGlyph name="dotlessi" xMin="91" yMin="-2" xMax="175" yMax="525">
      <contour>
        <pt x="91" y="20" on="1"/>
        <pt x="91" y="503" on="1"/>
        <pt x="91" y="525" on="0"/>
        <pt x="131" y="525" on="1"/>
        <pt x="135" y="525" on="1"/>
        <pt x="175" y="525" on="0"/>
        <pt x="175" y="503" on="1"/>
        <pt x="175" y="20" on="1"/>
        <pt x="175" y="-2" on="0"/>
        <pt x="135" y="-2" on="1"/>
        <pt x="131" y="-2" on="1"/>
        <pt x="91" y="-2" on="0"/>
      </contour>
    </TTGlyph>
    <TTGlyph name="e" xMin="55" yMin="-6" xMax="494" yMax="529">
      <contour>
        <pt x="175" y="-6" on="0"/>
        <pt x="55" y="124" on="0"/>
        <pt x="55" y="391" on="0"/>
        <pt x="173" y="529" on="0"/>
        <pt x="282" y="529" on="1"/>
        <pt x="494" y="529" on="0"/>
        <pt x="494" y="268" on="1"/>
        <pt x="494" y="259" on="0"/>
        <pt x="470" y="227" on="0"/>
        <pt x="461" y="227" on="1"/>
        <pt x="145" y="227" on="1"/>
        <pt x="151" y="144" on="0"/>
        <pt x="225" y="66" on="0"/>
        <pt x="299" y="66" on="1"/>
        <pt x="367" y="66" on="0"/>
        <pt x="424" y="98" on="1"/>
        <pt x="443" y="108" on="0"/>
        <pt x="445" y="108" on="1"/>
        <pt x="455" y="108" on="0"/>
        <pt x="480" y="68" on="0"/>
        <pt x="480" y="58" on="1"/>
        <pt x="480" y="38" on="0"/>
        <pt x="371" y="-6" on="0"/>
        <pt x="300" y="-6" on="1"/>
      </contour>
      <contour>
        <pt x="405" y="299" on="1"/>
        <pt x="405" y="457" on="0"/>
        <pt x="285" y="457" on="1"/>
        <pt x="156" y="457" on="0"/>
        <pt x="145" y="299" on="1"/>
      </contour>
    </TTGlyph>
    <TTGlyph name="eacute" xMin="55" yMin="-6" xMax="494" yMax="752">
      <contour>
        <pt x="175" y="-6" on="0"/>
        <pt x="55" y="124" on="0"/>
        <pt x="55" y="391" on="0"/>
        <pt x="173" y="529" on="0"/>
        <pt x="282" y="529" on="1"/>
        <pt x="494" y="529" on="0"/>
        <pt x="494" y="268" on="1"/>
        <pt x="494" y="259" on="0"/>
        <pt x="470" y="227" on="0"/>
        <pt x="461" y="227" on="1"/>
        <pt x="145" y="227" on="1"/>
        <pt x="151" y="144" on="0"/>
        <pt x="225" y="66" on="0"/>
        <pt x="299" y="66" on="1"/>
        <pt x="367" y="66" on="0"/>
        <pt x="424" y="98" on="1"/>
        <pt x="443" y="108" on="0"/>
        <pt x="445" y="108" on="1"/>
        <pt x="455" y="108" on="0"/>
        <pt x="480" y="68" on="0"/>
        <pt x="480" y="58" on="1"/>
        <pt x="480" y="38" on="0"/>
        <pt x="371" y="-6" on="0"/>
        <pt x="300" y="-6" on="1"/>
      </contour>
      <contour>
        <pt x="405" y="299" on="1"/>
        <pt x="405" y="457" on="0"/>
        <pt x="285" y="457" on="1"/>
        <pt x="156" y="457" on="0"/>
        <pt x="145" y="299" on="1"/>
      </contour>
      <contour>
        <pt x="397" y="732" on="0"/>
        <pt x="378" y="708" on="0"/>
        <pt x="318" y="640" on="0"/>
        <pt x="286" y="605" on="0"/>
        <pt x="229" y="605" on="0"/>
        <pt x="229" y="625" on="0"/>
        <pt x="287" y="726" on="1"/>
        <pt x="302" y="752" on="0"/>
        <pt x="397" y="752" on="0"/>
        <pt x="397" y="739" on="1"/>
      </contour>
    </TTGlyph>
    <TTGlyph name="ecircumflex" xMin="55" yMin="-6" xMax="494" yMax="726">
      <contour>
        <pt x="175" y="-6" on="0"/>
        <pt x="55" y="124" on="0"/>
        <pt x="55" y="391" on="0"/>
        <pt x="173" y="529" on="0"/>
        <pt x="282" y="529" on="1"/>
        <pt x="494" y="529" on="0"/>
        <pt x="494" y="268" on="1"/>
        <pt x="494" y="259" on="0"/>
        <pt x="470" y="227" on="0"/>
        <pt x="461" y="227" on="1"/>
        <pt x="145" y="227" on="1"/>
        <pt x="151" y="144" on="0"/>
        <pt x="225" y="66" on="0"/>
        <pt x="299" y="66" on="1"/>
        <pt x="367" y="66" on="0"/>
        <pt x="424" y="98" on="1"/>
        <pt x="443" y="108" on="0"/>
        <pt x="445" y="108" on="1"/>
        <pt x="455" y="108" on="0"/>
        <pt x="480" y="68" on="0"/>
        <pt x="480" y="58" on="1"/>
        <pt x="480" y="38" on="0"/>
        <pt x="371" y="-6" on="0"/>
        <pt x="300" y="-6" on="1"/>
      </contour>
      <contour>
        <pt x="405" y="299" on="1"/>
        <pt x="405" y="457" on="0"/>
        <pt x="285" y="457" on="1"/>
        <pt x="156" y="457" on="0"/>
        <pt x="145" y="299" on="1"/>
      </contour>
      <contour>
        <pt x="223" y="597" on="1"/>
        <pt x="209" y="584" on="0"/>
        <pt x="164" y="584" on="0"/>
        <pt x="164" y="598" on="1"/>
        <pt x="164" y="606" on="0"/>
        <pt x="170" y="616" on="1"/>
        <pt x="226" y="704" on="1"/>
        <pt x="241" y="726" on="0"/>
        <pt x="272" y="726" on="1"/>
        <pt x="297" y="726" on="1"/>
        <pt x="328" y="726" on="0"/>
        <pt x="343" y="704" on="1"/>
        <pt x="400" y="616" on="1"/>
        <pt x="406" y="607" on="0"/>
        <pt x="406" y="599" on="1"/>
        <pt x="406" y="584" on="0"/>
        <pt x="361" y="584" on="0"/>
        <pt x="347" y="597" on="1"/>
        <pt x="284" y="671" on="1"/>
      </contour>
    </TTGlyph>
    <TTGlyph name="edieresis" xMin="55" yMin="-6" xMax="494" yMax="702">
      <contour>
        <pt x="175" y="-6" on="0"/>
        <pt x="55" y="124" on="0"/>
        <pt x="55" y="391" on="0"/>
        <pt x="173" y="529" on="0"/>
        <pt x="282" y="529" on="1"/>
        <pt x="494" y="529" on="0"/>
        <pt x="494" y="268" on="1"/>
        <pt x="494" y="259" on="0"/>
        <pt x="470" y="227" on="0"/>
        <pt x="461" y="227" on="1"/>
        <pt x="145" y="227" on="1"/>
        <pt x="151" y="144" on="0"/>
        <pt x="225" y="66" on="0"/>
        <pt x="299" y="66" on="1"/>
        <pt x="367" y="66" on="0"/>
        <pt x="424" y="98" on="1"/>
        <pt x="443" y="108" on="0"/>
        <pt x="445" y="108" on="1"/>
        <pt x="455" y="108" on="0"/>
        <pt x="480" y="68" on="0"/>
        <pt x="480" y="58" on="1"/>
        <pt x="480" y="38" on="0"/>
        <pt x="371" y="-6" on="0"/>
        <pt x="300" y="-6" on="1"/>
      </contour>
      <contour>
        <pt x="405" y="299" on="1"/>
        <pt x="405" y="457" on="0"/>
        <pt x="285" y="457" on="1"/>
        <pt x="156" y="457" on="0"/>
        <pt x="145" y="299" on="1"/>
      </contour>
      <contour>
        <pt x="355" y="607" on="1"/>
        <pt x="315" y="607" on="0"/>
        <pt x="315" y="629" on="1"/>
        <pt x="315" y="680" on="1"/>
        <pt x="315" y="702" on="0"/>
        <pt x="355" y="702" on="1"/>
        <pt x="359" y="702" on="1"/>
        <pt x="399" y="702" on="0"/>
        <pt x="399" y="680" on="1"/>
        <pt x="399" y="629" on="1"/>
        <pt x="399" y="607" on="0"/>
        <pt x="359" y="607" on="1"/>
      </contour>
      <contour>
        <pt x="211" y="607" on="1"/>
        <pt x="171" y="607" on="0"/>
        <pt x="171" y="629" on="1"/>
        <pt x="171" y="680" on="1"/>
        <pt x="171" y="702" on="0"/>
        <pt x="211" y="702" on="1"/>
        <pt x="215" y="702" on="1"/>
        <pt x="255" y="702" on="0"/>
        <pt x="255" y="680" on="1"/>
        <pt x="255" y="629" on="1"/>
        <pt x="255" y="607" on="0"/>
        <pt x="215" y="607" on="1"/>
      </contour>
    </TTGlyph>
    <TTGlyph name="egrave" xMin="55" yMin="-6" xMax="494" yMax="752">
      <contour>
        <pt x="175" y="-6" on="0"/>
        <pt x="55" y="124" on="0"/>
        <pt x="55" y="391" on="0"/>
        <pt x="173" y="529" on="0"/>
        <pt x="282" y="529" on="1"/>
        <pt x="494" y="529" on="0"/>
        <pt x="494" y="268" on="1"/>
        <pt x="494" y="259" on="0"/>
        <pt x="470" y="227" on="0"/>
        <pt x="461" y="227" on="1"/>
        <pt x="145" y="227" on="1"/>
        <pt x="151" y="144" on="0"/>
        <pt x="225" y="66" on="0"/>
        <pt x="299" y="66" on="1"/>
        <pt x="367" y="66" on="0"/>
        <pt x="424" y="98" on="1"/>
        <pt x="443" y="108" on="0"/>
        <pt x="445" y="108" on="1"/>
        <pt x="455" y="108" on="0"/>
        <pt x="480" y="68" on="0"/>
        <pt x="480" y="58" on="1"/>
        <pt x="480" y="38" on="0"/>
        <pt x="371" y="-6" on="0"/>
        <pt x="300" y="-6" on="1"/>
      </contour>
      <contour>
        <pt x="405" y="299" on="1"/>
        <pt x="405" y="457" on="0"/>
        <pt x="285" y="457" on="1"/>
        <pt x="156" y="457" on="0"/>
        <pt x="145" y="299" on="1"/>
      </contour>
      <contour>
        <pt x="352" y="625" on="0"/>
        <pt x="352" y="605" on="0"/>
        <pt x="294" y="605" on="0"/>
        <pt x="278" y="623" on="1"/>
        <pt x="190" y="724" on="0"/>
        <pt x="184" y="735" on="0"/>
        <pt x="184" y="739" on="1"/>
        <pt x="184" y="752" on="0"/>
        <pt x="279" y="752" on="0"/>
        <pt x="294" y="726" on="1"/>
      </contour>
    </TTGlyph>
    <TTGlyph name="eight" xMin="51" yMin="-6" xMax="484" yMax="706">
      <contour>
        <pt x="51" y="202" on="1"/>
        <pt x="51" y="275" on="0"/>
        <pt x="109" y="355" on="0"/>
        <pt x="162" y="380" on="1"/>
        <pt x="79" y="429" on="0"/>
        <pt x="79" y="533" on="1"/>
        <pt x="79" y="615" on="0"/>
        <pt x="186" y="706" on="0"/>
        <pt x="352" y="706" on="0"/>
        <pt x="461" y="615" on="0"/>
        <pt x="461" y="533" on="1"/>
        <pt x="461" y="426" on="0"/>
        <pt x="364" y="381" on="1"/>
        <pt x="421" y="355" on="0"/>
        <pt x="484" y="277" on="0"/>
        <pt x="484" y="202" on="1"/>
        <pt x="484" y="100" on="0"/>
        <pt x="363" y="-6" on="0"/>
        <pt x="172" y="-6" on="0"/>
        <pt x="51" y="100" on="0"/>
      </contour>
      <contour>
        <pt x="377" y="533" on="1"/>
        <pt x="377" y="584" on="0"/>
        <pt x="317" y="634" on="0"/>
        <pt x="222" y="634" on="0"/>
        <pt x="163" y="584" on="0"/>
        <pt x="163" y="533" on="1"/>
        <pt x="163" y="476" on="0"/>
        <pt x="203" y="448" on="1"/>
        <pt x="233" y="428" on="0"/>
        <pt x="291" y="408" on="1"/>
        <pt x="377" y="458" on="0"/>
      </contour>
      <contour>
        <pt x="137" y="202" on="1"/>
        <pt x="137" y="137" on="0"/>
        <pt x="211" y="66" on="0"/>
        <pt x="323" y="66" on="0"/>
        <pt x="398" y="137" on="0"/>
        <pt x="398" y="202" on="1"/>
        <pt x="398" y="246" on="0"/>
        <pt x="378" y="270" on="1"/>
        <pt x="367" y="284" on="0"/>
        <pt x="348" y="302" on="0"/>
        <pt x="310" y="320" on="0"/>
        <pt x="287" y="329" on="0"/>
        <pt x="239" y="346" on="0"/>
        <pt x="229" y="350" on="1"/>
        <pt x="137" y="296" on="0"/>
      </contour>
    </TTGlyph>
    <TTGlyph name="ellipsis" xMin="51" yMin="-2" xMax="565" yMax="108">
      <contour>
        <pt x="468" y="20" on="1"/>
        <pt x="468" y="86" on="1"/>
        <pt x="468" y="108" on="0"/>
        <pt x="508" y="108" on="1"/>
        <pt x="525" y="108" on="1"/>
        <pt x="565" y="108" on="0"/>
        <pt x="565" y="86" on="1"/>
        <pt x="565" y="20" on="1"/>
        <pt x="565" y="-2" on="0"/>
        <pt x="525" y="-2" on="1"/>
        <pt x="508" y="-2" on="1"/>
        <pt x="468" y="-2" on="0"/>
      </contour>
      <contour>
        <pt x="260" y="20" on="1"/>
        <pt x="260" y="86" on="1"/>
        <pt x="260" y="108" on="0"/>
        <pt x="300" y="108" on="1"/>
        <pt x="317" y="108" on="1"/>
        <pt x="357" y="108" on="0"/>
        <pt x="357" y="86" on="1"/>
        <pt x="357" y="20" on="1"/>
        <pt x="357" y="-2" on="0"/>
        <pt x="317" y="-2" on="1"/>
        <pt x="300" y="-2" on="1"/>
        <pt x="260" y="-2" on="0"/>
      </contour>
      <contour>
        <pt x="51" y="20" on="1"/>
        <pt x="51" y="86" on="1"/>
        <pt x="51" y="108" on="0"/>
        <pt x="91" y="108" on="1"/>
        <pt x="108" y="108" on="1"/>
        <pt x="148" y="108" on="0"/>
        <pt x="148" y="86" on="1"/>
        <pt x="148" y="20" on="1"/>
        <pt x="148" y="-2" on="0"/>
        <pt x="108" y="-2" on="1"/>
        <pt x="91" y="-2" on="1"/>
        <pt x="51" y="-2" on="0"/>
      </contour>
    </TTGlyph>
    <TTGlyph name="emdash" xMin="0" yMin="230" xMax="1000" yMax="300">
      <contour>
        <pt x="20" y="230" on="1"/>
        <pt x="0" y="230" on="0"/>
        <pt x="0" y="260" on="1"/>
        <pt x="0" y="270" on="1"/>
        <pt x="0" y="300" on="0"/>
        <pt x="20" y="300" on="1"/>
        <pt x="980" y="300" on="1"/>
        <pt x="1000" y="300" on="0"/>
        <pt x="1000" y="270" on="1"/>
        <pt x="1000" y="260" on="1"/>
        <pt x="1000" y="230" on="0"/>
        <pt x="980" y="230" on="1"/>
      </contour>
    </TTGlyph>
    <TTGlyph name="endash" xMin="0" yMin="230" xMax="500" yMax="300">
      <contour>
        <pt x="20" y="230" on="1"/>
        <pt x="0" y="230" on="0"/>
        <pt x="0" y="260" on="1"/>
        <pt x="0" y="270" on="1"/>
        <pt x="0" y="300" on="0"/>
        <pt x="20" y="300" on="1"/>
        <pt x="480" y="300" on="1"/>
        <pt x="500" y="300" on="0"/>
        <pt x="500" y="270" on="1"/>
        <pt x="500" y="260" on="1"/>
        <pt x="500" y="230" on="0"/>
        <pt x="480" y="230" on="1"/>
      </contour>
    </TTGlyph>
    <TTGlyph name="equal" xMin="48" yMin="107" xMax="512" yMax="338">
      <contour>
        <pt x="78" y="271" on="1"/>
        <pt x="48" y="271" on="0"/>
        <pt x="48" y="301" on="1"/>
        <pt x="48" y="308" on="1"/>
        <pt x="48" y="338" on="0"/>
        <pt x="78" y="338" on="1"/>
        <pt x="482" y="338" on="1"/>
        <pt x="512" y="338" on="0"/>
        <pt x="512" y="308" on="1"/>
        <pt x="512" y="301" on="1"/>
        <pt x="512" y="271" on="0"/>
        <pt x="482" y="271" on="1"/>
      </contour>
      <contour>
        <pt x="78" y="107" on="1"/>
        <pt x="48" y="107" on="0"/>
        <pt x="48" y="137" on="1"/>
        <pt x="48" y="145" on="1"/>
        <pt x="48" y="175" on="0"/>
        <pt x="78" y="175" on="1"/>
        <pt x="482" y="175" on="1"/>
        <pt x="512" y="175" on="0"/>
        <pt x="512" y="145" on="1"/>
        <pt x="512" y="137" on="1"/>
        <pt x="512" y="107" on="0"/>
        <pt x="482" y="107" on="1"/>
      </contour>
    </TTGlyph>
    <TTGlyph name="eth" xMin="55" yMin="-6" xMax="514" yMax="714">
      <contour>
        <pt x="321" y="607" on="1"/>
        <pt x="235" y="595" on="1"/>
        <pt x="225" y="595" on="0"/>
        <pt x="209" y="616" on="0"/>
        <pt x="209" y="637" on="0"/>
        <pt x="224" y="640" on="1"/>
        <pt x="296" y="650" on="1"/>
        <pt x="270" y="688" on="0"/>
        <pt x="270" y="698" on="1"/>
        <pt x="270" y="714" on="0"/>
        <pt x="313" y="714" on="1"/>
        <pt x="329" y="714" on="0"/>
        <pt x="354" y="685" on="0"/>
        <pt x="372" y="660" on="1"/>
        <pt x="448" y="671" on="0"/>
        <pt x="450" y="671" on="1"/>
        <pt x="462" y="671" on="0"/>
        <pt x="475" y="647" on="0"/>
        <pt x="475" y="639" on="1"/>
        <pt x="475" y="628" on="0"/>
        <pt x="460" y="626" on="1"/>
        <pt x="400" y="618" on="1"/>
        <pt x="514" y="439" on="0"/>
        <pt x="514" y="259" on="1"/>
        <pt x="514" y="129" on="0"/>
        <pt x="399" y="-6" on="0"/>
        <pt x="174" y="-6" on="0"/>
        <pt x="55" y="130" on="0"/>
        <pt x="55" y="389" on="0"/>
        <pt x="175" y="529" on="0"/>
        <pt x="287" y="529" on="1"/>
        <pt x="331" y="529" on="0"/>
        <pt x="367" y="517" on="1"/>
        <pt x="345" y="565" on="0"/>
      </contour>
      <contour>
        <pt x="211" y="66" on="0"/>
        <pt x="357" y="66" on="0"/>
        <pt x="427" y="161" on="0"/>
        <pt x="427" y="361" on="0"/>
        <pt x="357" y="457" on="0"/>
        <pt x="211" y="457" on="0"/>
        <pt x="141" y="361" on="0"/>
        <pt x="141" y="161" on="0"/>
      </contour>
    </TTGlyph>
    <TTGlyph name="exclam" xMin="100" yMin="-2" xMax="211" yMax="702">
      <contour>
        <pt x="142" y="202" on="1"/>
        <pt x="112" y="202" on="0"/>
        <pt x="112" y="224" on="1"/>
        <pt x="112" y="680" on="1"/>
        <pt x="112" y="702" on="0"/>
        <pt x="152" y="702" on="1"/>
        <pt x="172" y="702" on="1"/>
        <pt x="211" y="702" on="0"/>
        <pt x="211" y="680" on="1"/>
        <pt x="184" y="224" on="1"/>
        <pt x="182" y="202" on="0"/>
        <pt x="153" y="202" on="1"/>
      </contour>
      <contour>
        <pt x="100" y="20" on="1"/>
        <pt x="100" y="86" on="1"/>
        <pt x="100" y="108" on="0"/>
        <pt x="140" y="108" on="1"/>
        <pt x="157" y="108" on="1"/>
        <pt x="197" y="108" on="0"/>
        <pt x="197" y="86" on="1"/>
        <pt x="197" y="20" on="1"/>
        <pt x="197" y="-2" on="0"/>
        <pt x="157" y="-2" on="1"/>
        <pt x="140" y="-2" on="1"/>
        <pt x="100" y="-2" on="0"/>
      </contour>
    </TTGlyph>
    <TTGlyph name="exclamdown" xMin="82" yMin="-179" xMax="193" yMax="525">
      <contour>
        <pt x="136" y="415" on="1"/>
        <pt x="96" y="415" on="0"/>
        <pt x="96" y="437" on="1"/>
        <pt x="96" y="503" on="1"/>
        <pt x="96" y="525" on="0"/>
        <pt x="136" y="525" on="1"/>
        <pt x="153" y="525" on="1"/>
        <pt x="193" y="525" on="0"/>
        <pt x="193" y="503" on="1"/>
        <pt x="193" y="437" on="1"/>
        <pt x="193" y="415" on="0"/>
        <pt x="153" y="415" on="1"/>
      </contour>
      <contour>
        <pt x="140" y="321" on="1"/>
        <pt x="151" y="321" on="1"/>
        <pt x="181" y="321" on="0"/>
        <pt x="181" y="299" on="1"/>
        <pt x="181" y="-157" on="1"/>
        <pt x="181" y="-179" on="0"/>
        <pt x="141" y="-179" on="1"/>
        <pt x="121" y="-179" on="1"/>
        <pt x="82" y="-179" on="0"/>
        <pt x="82" y="-157" on="1"/>
        <pt x="109" y="299" on="1"/>
        <pt x="111" y="321" on="0"/>
      </contour>
    </TTGlyph>
    <TTGlyph name="f" xMin="48" yMin="-2" xMax="310" yMax="756">
      <contour>
        <pt x="108" y="20" on="1"/>
        <pt x="108" y="451" on="1"/>
        <pt x="68" y="451" on="1"/>
        <pt x="48" y="451" on="0"/>
        <pt x="48" y="481" on="1"/>
        <pt x="48" y="493" on="1"/>
        <pt x="48" y="523" on="0"/>
        <pt x="68" y="523" on="1"/>
        <pt x="108" y="523" on="1"/>
        <pt x="108" y="618" on="1"/>
        <pt x="108" y="704" on="0"/>
        <pt x="154" y="732" on="1"/>
        <pt x="193" y="756" on="0"/>
        <pt x="237" y="756" on="1"/>
        <pt x="310" y="756" on="0"/>
        <pt x="310" y="726" on="1"/>
        <pt x="310" y="716" on="0"/>
        <pt x="298" y="679" on="0"/>
        <pt x="289" y="679" on="1"/>
        <pt x="287" y="679" on="0"/>
        <pt x="263" y="684" on="0"/>
        <pt x="220" y="684" on="0"/>
        <pt x="192" y="655" on="0"/>
        <pt x="192" y="610" on="1"/>
        <pt x="192" y="523" on="1"/>
        <pt x="279" y="523" on="1"/>
        <pt x="299" y="523" on="0"/>
        <pt x="299" y="493" on="1"/>
        <pt x="299" y="481" on="1"/>
        <pt x="299" y="451" on="0"/>
        <pt x="279" y="451" on="1"/>
        <pt x="192" y="451" on="1"/>
        <pt x="192" y="20" on="1"/>
        <pt x="192" y="-2" on="0"/>
        <pt x="152" y="-2" on="1"/>
        <pt x="148" y="-2" on="1"/>
        <pt x="108" y="-2" on="0"/>
      </contour>
    </TTGlyph>
    <TTGlyph name="fi" xMin="48" yMin="-2" xMax="477" yMax="756">
      <contour>
        <pt x="108" y="20" on="1"/>
        <pt x="108" y="451" on="1"/>
        <pt x="68" y="451" on="1"/>
        <pt x="48" y="451" on="0"/>
        <pt x="48" y="481" on="1"/>
        <pt x="48" y="493" on="1"/>
        <pt x="48" y="523" on="0"/>
        <pt x="68" y="523" on="1"/>
        <pt x="108" y="523" on="1"/>
        <pt x="108" y="618" on="1"/>
        <pt x="108" y="704" on="0"/>
        <pt x="154" y="732" on="1"/>
        <pt x="193" y="756" on="0"/>
        <pt x="237" y="756" on="1"/>
        <pt x="310" y="756" on="0"/>
        <pt x="310" y="726" on="1"/>
        <pt x="310" y="716" on="0"/>
        <pt x="298" y="679" on="0"/>
        <pt x="289" y="679" on="1"/>
        <pt x="287" y="679" on="0"/>
        <pt x="263" y="684" on="0"/>
        <pt x="220" y="684" on="0"/>
        <pt x="192" y="655" on="0"/>
        <pt x="192" y="610" on="1"/>
        <pt x="192" y="523" on="1"/>
        <pt x="279" y="523" on="1"/>
        <pt x="299" y="523" on="0"/>
        <pt x="299" y="493" on="1"/>
        <pt x="299" y="481" on="1"/>
        <pt x="299" y="451" on="0"/>
        <pt x="279" y="451" on="1"/>
        <pt x="192" y="451" on="1"/>
        <pt x="192" y="20" on="1"/>
        <pt x="192" y="-2" on="0"/>
        <pt x="152" y="-2" on="1"/>
        <pt x="148" y="-2" on="1"/>
        <pt x="108" y="-2" on="0"/>
      </contour>
      <contour>
        <pt x="425" y="649" on="1"/>
        <pt x="385" y="649" on="0"/>
        <pt x="385" y="671" on="1"/>
        <pt x="385" y="730" on="1"/>
        <pt x="385" y="752" on="0"/>
        <pt x="425" y="752" on="1"/>
        <pt x="437" y="752" on="1"/>
        <pt x="477" y="752" on="0"/>
        <pt x="477" y="730" on="1"/>
        <pt x="477" y="671" on="1"/>
        <pt x="477" y="649" on="0"/>
        <pt x="437" y="649" on="1"/>
      </contour>
      <contour>
        <pt x="389" y="20" on="1"/>
        <pt x="389" y="503" on="1"/>
        <pt x="389" y="525" on="0"/>
        <pt x="429" y="525" on="1"/>
        <pt x="433" y="525" on="1"/>
        <pt x="473" y="525" on="0"/>
        <pt x="473" y="503" on="1"/>
        <pt x="473" y="20" on="1"/>
        <pt x="473" y="-2" on="0"/>
        <pt x="433" y="-2" on="1"/>
        <pt x="429" y="-2" on="1"/>
        <pt x="389" y="-2" on="0"/>
      </contour>
    </TTGlyph>
    <TTGlyph name="five" xMin="47" yMin="-6" xMax="474" yMax="700">
      <contour>
        <pt x="47" y="54" on="1"/>
        <pt x="47" y="68" on="0"/>
        <pt x="73" y="104" on="0"/>
        <pt x="82" y="104" on="1"/>
        <pt x="83" y="104" on="0"/>
        <pt x="181" y="66" on="0"/>
        <pt x="298" y="66" on="0"/>
        <pt x="388" y="143" on="0"/>
        <pt x="388" y="280" on="0"/>
        <pt x="296" y="350" on="0"/>
        <pt x="208" y="350" on="1"/>
        <pt x="123" y="350" on="1"/>
        <pt x="107" y="350" on="0"/>
        <pt x="95" y="364" on="0"/>
        <pt x="95" y="380" on="1"/>
        <pt x="112" y="670" on="1"/>
        <pt x="113" y="700" on="0"/>
        <pt x="144" y="700" on="1"/>
        <pt x="410" y="700" on="1"/>
        <pt x="430" y="700" on="0"/>
        <pt x="430" y="670" on="1"/>
        <pt x="430" y="658" on="1"/>
        <pt x="430" y="628" on="0"/>
        <pt x="410" y="628" on="1"/>
        <pt x="193" y="628" on="1"/>
        <pt x="180" y="422" on="1"/>
        <pt x="232" y="422" on="1"/>
        <pt x="321" y="422" on="0"/>
        <pt x="393" y="378" on="1"/>
        <pt x="430" y="356" on="0"/>
        <pt x="474" y="271" on="0"/>
        <pt x="474" y="151" on="0"/>
        <pt x="432" y="61" on="0"/>
        <pt x="396" y="38" on="1"/>
        <pt x="328" y="-6" on="0"/>
        <pt x="156" y="-6" on="0"/>
        <pt x="47" y="33" on="0"/>
      </contour>
    </TTGlyph>
    <TTGlyph name="fl" xMin="48" yMin="-6" xMax="582" yMax="756">
      <contour>
        <pt x="108" y="20" on="1"/>
        <pt x="108" y="451" on="1"/>
        <pt x="68" y="451" on="1"/>
        <pt x="48" y="451" on="0"/>
        <pt x="48" y="481" on="1"/>
        <pt x="48" y="493" on="1"/>
        <pt x="48" y="523" on="0"/>
        <pt x="68" y="523" on="1"/>
        <pt x="108" y="523" on="1"/>
        <pt x="108" y="618" on="1"/>
        <pt x="108" y="704" on="0"/>
        <pt x="154" y="732" on="1"/>
        <pt x="193" y="756" on="0"/>
        <pt x="237" y="756" on="1"/>
        <pt x="310" y="756" on="0"/>
        <pt x="310" y="726" on="1"/>
        <pt x="310" y="716" on="0"/>
        <pt x="298" y="679" on="0"/>
        <pt x="289" y="679" on="1"/>
        <pt x="287" y="679" on="0"/>
        <pt x="263" y="684" on="0"/>
        <pt x="220" y="684" on="0"/>
        <pt x="192" y="655" on="0"/>
        <pt x="192" y="610" on="1"/>
        <pt x="192" y="523" on="1"/>
        <pt x="279" y="523" on="1"/>
        <pt x="299" y="523" on="0"/>
        <pt x="299" y="493" on="1"/>
        <pt x="299" y="481" on="1"/>
        <pt x="299" y="451" on="0"/>
        <pt x="279" y="451" on="1"/>
        <pt x="192" y="451" on="1"/>
        <pt x="192" y="20" on="1"/>
        <pt x="192" y="-2" on="0"/>
        <pt x="152" y="-2" on="1"/>
        <pt x="148" y="-2" on="1"/>
        <pt x="108" y="-2" on="0"/>
      </contour>
      <contour>
        <pt x="380" y="132" on="1"/>
        <pt x="380" y="730" on="1"/>
        <pt x="380" y="752" on="0"/>
        <pt x="420" y="752" on="1"/>
        <pt x="424" y="752" on="1"/>
        <pt x="464" y="752" on="0"/>
        <pt x="464" y="730" on="1"/>
        <pt x="464" y="140" on="1"/>
        <pt x="464" y="66" on="0"/>
        <pt x="518" y="66" on="1"/>
        <pt x="535" y="66" on="0"/>
        <pt x="559" y="71" on="0"/>
        <pt x="561" y="71" on="1"/>
        <pt x="570" y="71" on="0"/>
        <pt x="582" y="34" on="0"/>
        <pt x="582" y="24" on="1"/>
        <pt x="582" y="-6" on="0"/>
        <pt x="509" y="-6" on="1"/>
        <pt x="459" y="-6" on="0"/>
        <pt x="380" y="55" on="0"/>
      </contour>
    </TTGlyph>
    <TTGlyph name="florin" xMin="15" yMin="-207" xMax="345" yMax="756">
      <contour>
        <pt x="63" y="441" on="1"/>
        <pt x="46" y="441" on="0"/>
        <pt x="46" y="460" on="1"/>
        <pt x="46" y="467" on="0"/>
        <pt x="49" y="483" on="1"/>
        <pt x="53" y="513" on="0"/>
        <pt x="73" y="513" on="1"/>
        <pt x="113" y="513" on="1"/>
        <pt x="127" y="618" on="1"/>
        <pt x="138" y="697" on="0"/>
        <pt x="225" y="756" on="0"/>
        <pt x="276" y="756" on="1"/>
        <pt x="345" y="756" on="0"/>
        <pt x="345" y="726" on="1"/>
        <pt x="333" y="679" on="0"/>
        <pt x="317" y="679" on="1"/>
        <pt x="315" y="679" on="0"/>
        <pt x="292" y="684" on="0"/>
        <pt x="249" y="684" on="0"/>
        <pt x="216" y="655" on="0"/>
        <pt x="210" y="610" on="1"/>
        <pt x="197" y="513" on="1"/>
        <pt x="284" y="513" on="1"/>
        <pt x="301" y="513" on="0"/>
        <pt x="301" y="493" on="1"/>
        <pt x="301" y="466" on="0"/>
        <pt x="284" y="441" on="0"/>
        <pt x="274" y="441" on="1"/>
        <pt x="187" y="441" on="1"/>
        <pt x="99" y="-185" on="1"/>
        <pt x="96" y="-207" on="0"/>
        <pt x="56" y="-207" on="1"/>
        <pt x="52" y="-207" on="1"/>
        <pt x="15" y="-207" on="0"/>
        <pt x="15" y="-185" on="1"/>
        <pt x="103" y="441" on="1"/>
      </contour>
    </TTGlyph>
    <TTGlyph name="four" xMin="18" yMin="-2" xMax="516" yMax="702">
      <contour>
        <pt x="42" y="167" on="1"/>
        <pt x="34" y="167" on="0"/>
        <pt x="18" y="203" on="0"/>
        <pt x="18" y="227" on="0"/>
        <pt x="20" y="229" on="1"/>
        <pt x="349" y="688" on="1"/>
        <pt x="360" y="702" on="0"/>
        <pt x="383" y="702" on="1"/>
        <pt x="399" y="702" on="1"/>
        <pt x="429" y="702" on="0"/>
        <pt x="429" y="680" on="1"/>
        <pt x="429" y="239" on="1"/>
        <pt x="496" y="239" on="1"/>
        <pt x="516" y="239" on="0"/>
        <pt x="516" y="209" on="1"/>
        <pt x="516" y="197" on="1"/>
        <pt x="516" y="167" on="0"/>
        <pt x="496" y="167" on="1"/>
        <pt x="429" y="167" on="1"/>
        <pt x="429" y="20" on="1"/>
        <pt x="429" y="-2" on="0"/>
        <pt x="399" y="-2" on="1"/>
        <pt x="376" y="-2" on="1"/>
        <pt x="346" y="-2" on="0"/>
        <pt x="346" y="20" on="1"/>
        <pt x="346" y="167" on="1"/>
      </contour>
      <contour>
        <pt x="346" y="239" on="1"/>
        <pt x="346" y="557" on="1"/>
        <pt x="342" y="559" on="1"/>
        <pt x="117" y="239" on="1"/>
      </contour>
    </TTGlyph>
    <TTGlyph name="fraction" xMin="-76" yMin="-3" xMax="351" yMax="703">
      <contour>
        <pt x="-46" y="-3" on="1"/>
        <pt x="-50" y="-3" on="1"/>
        <pt x="-76" y="-3" on="0"/>
        <pt x="-76" y="17" on="1"/>
        <pt x="-76" y="24" on="0"/>
        <pt x="-73" y="32" on="1"/>
        <pt x="288" y="680" on="1"/>
        <pt x="300" y="703" on="0"/>
        <pt x="323" y="703" on="1"/>
        <pt x="327" y="703" on="1"/>
        <pt x="351" y="703" on="0"/>
        <pt x="351" y="683" on="1"/>
        <pt x="351" y="676" on="0"/>
        <pt x="348" y="668" on="1"/>
        <pt x="-13" y="20" on="1"/>
        <pt x="-25" y="-3" on="0"/>
      </contour>
    </TTGlyph>
    <TTGlyph name="g" xMin="34" yMin="-212" xMax="526" yMax="529">
      <contour>
        <pt x="34" y="-81" on="1"/>
        <pt x="34" y="1" on="0"/>
        <pt x="147" y="41" on="1"/>
        <pt x="83" y="68" on="0"/>
        <pt x="83" y="181" on="0"/>
        <pt x="159" y="207" on="1"/>
        <pt x="115" y="228" on="0"/>
        <pt x="68" y="307" on="0"/>
        <pt x="68" y="356" on="1"/>
        <pt x="68" y="431" on="0"/>
        <pt x="173" y="529" on="0"/>
        <pt x="268" y="529" on="1"/>
        <pt x="304" y="529" on="0"/>
        <pt x="334" y="523" on="1"/>
        <pt x="506" y="523" on="1"/>
        <pt x="526" y="523" on="0"/>
        <pt x="526" y="493" on="1"/>
        <pt x="526" y="481" on="1"/>
        <pt x="526" y="451" on="0"/>
        <pt x="506" y="451" on="1"/>
        <pt x="436" y="451" on="1"/>
        <pt x="469" y="411" on="0"/>
        <pt x="469" y="356" on="1"/>
        <pt x="469" y="282" on="0"/>
        <pt x="363" y="184" on="0"/>
        <pt x="268" y="184" on="1"/>
        <pt x="258" y="184" on="1"/>
        <pt x="172" y="180" on="0"/>
        <pt x="172" y="142" on="1"/>
        <pt x="172" y="121" on="0"/>
        <pt x="242" y="100" on="0"/>
        <pt x="341" y="88" on="0"/>
        <pt x="440" y="66" on="0"/>
        <pt x="510" y="-1" on="0"/>
        <pt x="510" y="-55" on="1"/>
        <pt x="510" y="-123" on="0"/>
        <pt x="377" y="-212" on="0"/>
        <pt x="152" y="-212" on="0"/>
        <pt x="34" y="-153" on="0"/>
      </contour>
      <contour>
        <pt x="156" y="256" on="0"/>
        <pt x="381" y="256" on="0"/>
        <pt x="381" y="457" on="0"/>
        <pt x="156" y="457" on="0"/>
      </contour>
      <contour>
        <pt x="121" y="-72" on="1"/>
        <pt x="121" y="-140" on="0"/>
        <pt x="271" y="-140" on="1"/>
        <pt x="338" y="-140" on="0"/>
        <pt x="421" y="-94" on="0"/>
        <pt x="421" y="-60" on="1"/>
        <pt x="421" y="-33" on="0"/>
        <pt x="398" y="-20" on="1"/>
        <pt x="360" y="1" on="0"/>
        <pt x="262" y="14" on="1"/>
        <pt x="236" y="18" on="0"/>
        <pt x="221" y="21" on="1"/>
        <pt x="182" y="6" on="0"/>
        <pt x="121" y="-42" on="0"/>
      </contour>
    </TTGlyph>
    <TTGlyph name="germandbls" xMin="90" yMin="-2" xMax="514" yMax="706">
      <contour>
        <pt x="90" y="20" on="1"/>
        <pt x="90" y="521" on="1"/>
        <pt x="90" y="603" on="0"/>
        <pt x="198" y="706" on="0"/>
        <pt x="377" y="706" on="0"/>
        <pt x="485" y="625" on="0"/>
        <pt x="485" y="536" on="1"/>
        <pt x="485" y="491" on="0"/>
        <pt x="428" y="404" on="0"/>
        <pt x="383" y="385" on="1"/>
        <pt x="445" y="371" on="0"/>
        <pt x="514" y="273" on="0"/>
        <pt x="514" y="206" on="1"/>
        <pt x="514" y="109" on="0"/>
        <pt x="392" y="0" on="0"/>
        <pt x="299" y="0" on="1"/>
        <pt x="267" y="0" on="1"/>
        <pt x="247" y="0" on="0"/>
        <pt x="247" y="30" on="1"/>
        <pt x="247" y="42" on="1"/>
        <pt x="247" y="72" on="0"/>
        <pt x="267" y="72" on="1"/>
        <pt x="300" y="72" on="1"/>
        <pt x="354" y="72" on="0"/>
        <pt x="426" y="144" on="0"/>
        <pt x="426" y="267" on="0"/>
        <pt x="354" y="340" on="0"/>
        <pt x="300" y="340" on="1"/>
        <pt x="267" y="340" on="1"/>
        <pt x="247" y="340" on="0"/>
        <pt x="247" y="370" on="1"/>
        <pt x="247" y="382" on="1"/>
        <pt x="247" y="412" on="0"/>
        <pt x="267" y="412" on="1"/>
        <pt x="277" y="412" on="1"/>
        <pt x="324" y="412" on="0"/>
        <pt x="396" y="480" on="0"/>
        <pt x="396" y="528" on="1"/>
        <pt x="396" y="634" on="0"/>
        <pt x="285" y="634" on="1"/>
        <pt x="234" y="634" on="0"/>
        <pt x="174" y="573" on="0"/>
        <pt x="174" y="521" on="1"/>
        <pt x="174" y="20" on="1"/>
        <pt x="174" y="-2" on="0"/>
        <pt x="134" y="-2" on="1"/>
        <pt x="130" y="-2" on="1"/>
        <pt x="90" y="-2" on="0"/>
      </contour>
    </TTGlyph>
    <TTGlyph name="grave" xMin="74" yMin="605" xMax="242" yMax="752">
      <contour>
        <pt x="242" y="625" on="0"/>
        <pt x="242" y="605" on="0"/>
        <pt x="184" y="605" on="0"/>
        <pt x="168" y="623" on="1"/>
        <pt x="80" y="724" on="0"/>
        <pt x="74" y="735" on="0"/>
        <pt x="74" y="739" on="1"/>
        <pt x="74" y="752" on="0"/>
        <pt x="169" y="752" on="0"/>
        <pt x="184" y="726" on="1"/>
      </contour>
    </TTGlyph>
    <TTGlyph name="greater" xMin="46" yMin="6" xMax="518" yMax="447">
      <contour>
        <pt x="46" y="32" on="1"/>
        <pt x="46" y="46" on="1"/>
        <pt x="46" y="70" on="0"/>
        <pt x="70" y="81" on="1"/>
        <pt x="426" y="227" on="1"/>
        <pt x="70" y="372" on="1"/>
        <pt x="46" y="381" on="0"/>
        <pt x="46" y="407" on="1"/>
        <pt x="46" y="421" on="1"/>
        <pt x="46" y="447" on="0"/>
        <pt x="67" y="447" on="1"/>
        <pt x="74" y="447" on="0"/>
        <pt x="82" y="444" on="1"/>
        <pt x="493" y="270" on="1"/>
        <pt x="518" y="259" on="0"/>
        <pt x="518" y="235" on="1"/>
        <pt x="518" y="218" on="1"/>
        <pt x="518" y="194" on="0"/>
        <pt x="493" y="183" on="1"/>
        <pt x="82" y="9" on="1"/>
        <pt x="74" y="6" on="0"/>
        <pt x="67" y="6" on="1"/>
        <pt x="46" y="6" on="0"/>
      </contour>
    </TTGlyph>
    <TTGlyph name="greaterequal" xMin="48" yMin="0" xMax="518" yMax="552">
      <contour>
        <pt x="68" y="111" on="1"/>
        <pt x="48" y="111" on="0"/>
        <pt x="48" y="137" on="1"/>
        <pt x="48" y="151" on="1"/>
        <pt x="48" y="176" on="0"/>
        <pt x="71" y="186" on="1"/>
        <pt x="427" y="332" on="1"/>
        <pt x="71" y="477" on="1"/>
        <pt x="48" y="486" on="0"/>
        <pt x="48" y="512" on="1"/>
        <pt x="48" y="526" on="1"/>
        <pt x="48" y="552" on="0"/>
        <pt x="68" y="552" on="1"/>
        <pt x="76" y="552" on="0"/>
        <pt x="83" y="549" on="1"/>
        <pt x="494" y="375" on="1"/>
        <pt x="517" y="365" on="0"/>
        <pt x="517" y="340" on="1"/>
        <pt x="517" y="323" on="1"/>
        <pt x="517" y="298" on="0"/>
        <pt x="494" y="288" on="1"/>
        <pt x="83" y="114" on="1"/>
        <pt x="76" y="111" on="0"/>
      </contour>
      <contour>
        <pt x="48" y="30" on="1"/>
        <pt x="48" y="43" on="1"/>
        <pt x="48" y="73" on="0"/>
        <pt x="78" y="73" on="1"/>
        <pt x="488" y="73" on="1"/>
        <pt x="518" y="73" on="0"/>
        <pt x="518" y="43" on="1"/>
        <pt x="518" y="30" on="1"/>
        <pt x="518" y="0" on="0"/>
        <pt x="488" y="0" on="1"/>
        <pt x="78" y="0" on="1"/>
        <pt x="48" y="0" on="0"/>
      </contour>
    </TTGlyph>
    <TTGlyph name="guillemotleft" xMin="44" yMin="61" xMax="416" yMax="454">
      <contour>
        <pt x="216" y="246" on="0"/>
        <pt x="216" y="270" on="0"/>
        <pt x="229" y="286" on="1"/>
        <pt x="359" y="442" on="1"/>
        <pt x="370" y="454" on="0"/>
        <pt x="391" y="454" on="0"/>
        <pt x="416" y="434" on="0"/>
        <pt x="416" y="413" on="0"/>
        <pt x="408" y="402" on="1"/>
        <pt x="297" y="258" on="1"/>
        <pt x="408" y="113" on="1"/>
        <pt x="416" y="102" on="0"/>
        <pt x="416" y="84" on="0"/>
        <pt x="392" y="61" on="0"/>
        <pt x="370" y="61" on="0"/>
        <pt x="359" y="74" on="1"/>
        <pt x="229" y="230" on="1"/>
      </contour>
      <contour>
        <pt x="44" y="246" on="0"/>
        <pt x="44" y="270" on="0"/>
        <pt x="57" y="286" on="1"/>
        <pt x="187" y="442" on="1"/>
        <pt x="198" y="454" on="0"/>
        <pt x="219" y="454" on="0"/>
        <pt x="244" y="434" on="0"/>
        <pt x="244" y="413" on="0"/>
        <pt x="236" y="402" on="1"/>
        <pt x="125" y="258" on="1"/>
        <pt x="236" y="113" on="1"/>
        <pt x="244" y="102" on="0"/>
        <pt x="244" y="84" on="0"/>
        <pt x="220" y="61" on="0"/>
        <pt x="198" y="61" on="0"/>
        <pt x="187" y="74" on="1"/>
        <pt x="57" y="230" on="1"/>
      </contour>
    </TTGlyph>
</ttFont>
